<svg width="82" height="95" viewBox="0 0 82 95" fill="none" xmlns="http://www.w3.org/2000/svg">
<g clip-path="url(#clip0_583_157)">
<path d="M57.7584 52.8515L66.5157 50.1948L66.4629 44.3504L57.659 41.8521C57.3749 41.0182 57.0302 40.2124 56.6296 39.4391L60.9461 31.365L56.7771 27.2689L48.7806 31.7283C48.0011 31.3417 47.189 31.0125 46.349 30.7439L43.6923 21.9866L37.8479 22.0394L35.3496 30.8433C34.5157 31.1274 33.7099 31.4721 32.9366 31.8727L24.8625 27.5562L20.7664 31.7252L25.2258 39.7217C24.8392 40.5012 24.51 41.3133 24.2414 42.1517L15.4841 44.8084L15.5369 50.6529L24.3408 53.1512C24.6249 53.985 24.9696 54.7909 25.3702 55.5641L21.0537 63.6383L25.2227 67.7343L33.2192 63.2749C33.9987 63.6615 34.8108 63.9907 35.6508 64.2593L38.3075 73.0167L44.1519 72.9639L46.6502 64.16C47.4841 63.8758 48.2899 63.5311 49.0632 63.1305L57.1373 67.4471L61.2334 63.278L56.774 55.2815C57.1606 54.5021 57.4898 53.69 57.7584 52.85V52.8515ZM28.2226 47.5009C28.2226 40.4562 33.9552 34.7235 40.9999 34.7235C48.0446 34.7235 53.7772 40.4562 53.7772 47.5009C53.7772 54.5455 48.0446 60.2782 40.9999 60.2782C33.9552 60.2782 28.2226 54.5455 28.2226 47.5009Z" fill="#004147"/>
<path d="M41 95L39.764 94.2594C26.1219 86.0889 15.9531 75.5957 9.53882 63.0699C6.21911 56.5873 3.83568 49.4215 2.45376 41.7744C1.05011 34.0108 0.638636 25.5251 1.23022 16.5504L1.35289 14.6856L3.18975 14.3425C15.3289 12.077 27.6559 7.47324 39.8246 0.658353L41 0L42.1754 0.658353C54.3441 7.47324 66.6696 12.077 78.8103 14.344L80.6471 14.6872L80.7698 16.552C81.3614 25.5251 80.9499 34.0123 79.5463 41.7759C78.1643 49.423 75.7794 56.5888 72.4596 63.0714C66.0469 75.5972 55.8782 86.0905 42.2344 94.2609L40.9985 95.0016L41 95ZM5.92564 18.7118C5.52815 26.6089 5.95204 34.0713 7.18956 40.9172C8.48763 48.0986 10.7204 54.8141 13.8228 60.8759C16.8537 66.7964 20.81 72.2744 25.58 77.1577C29.954 81.6357 35.1369 85.7411 41 89.376C46.8646 85.7411 52.0461 81.6357 56.4201 77.1577C61.19 72.2744 65.1448 66.7964 68.1757 60.8759C71.2796 54.8141 73.5108 48.1001 74.8089 40.9172C76.0464 34.0713 76.4703 26.6089 76.0728 18.7118C64.4119 16.3206 52.6283 11.8861 40.9985 5.50905C29.3701 11.8861 17.5866 16.3222 5.92564 18.7118Z" fill="#004147"/>
</g>
<defs>
<clipPath id="clip0_583_157">
<rect width="80.0644" height="95" fill="white" transform="translate(0.967773)"/>
</clipPath>
</defs>
</svg>
