<svg width="80" height="80" viewBox="0 0 80 80" fill="none" xmlns="http://www.w3.org/2000/svg">
<path d="M79.4865 29.0202C78.8231 27.3281 77.5765 25.9657 75.9756 25.1819L71.7394 23.1094V11.0478C71.7394 4.95625 66.9242 0.00144624 61.0043 0.00144624L60.8947 0.00433871C54.5405 0.38036 42.0654 1.09191 40.3352 1.09191C38.605 1.09191 25.6886 0.378914 19.1011 0.00289247L18.9957 0C13.0757 0 8.26054 4.9548 8.26054 11.0464V23.108L4.0244 25.1804C2.42355 25.9643 1.17688 27.3266 0.513487 29.0187C-0.149903 30.7108 -0.170986 32.5823 0.453051 34.2903L7.94009 54.7646C9.39899 58.7562 12.5051 61.8006 16.3028 63.1759V80H22.6134L27.7701 63.9555L52.0668 63.9584L57.2236 80H63.5342V63.2352C67.4063 61.8888 70.5813 58.8141 72.0613 54.7646L79.5469 34.2903C80.171 32.5823 80.1499 30.7108 79.4865 29.0187V29.0202ZM18.9465 3.90484C20.2986 3.98149 38.1075 4.9953 40.3366 4.9953C42.5657 4.9953 59.7211 3.98438 61.0563 3.90484C64.8596 3.93376 67.946 7.12561 67.946 11.0464V22.1072C65.9671 22.2113 64.0795 23.2786 62.9594 25.1096L56.7035 35.3272C55.2179 35.0307 53.4765 34.7603 51.4315 34.5274C45.6986 33.8752 40.2509 33.8101 40.0218 33.8087H40.0021H39.9824C39.7533 33.8116 34.3057 33.8752 28.5727 34.5274C26.5277 34.7603 24.7877 35.0293 23.3007 35.3272L17.0448 25.1096C15.9247 23.2786 14.0371 22.2113 12.0582 22.1072V11.0464C12.0582 7.12561 15.1446 3.93232 18.9493 3.90484H18.9465ZM61.3894 46.524C58.362 46.8985 47.5454 48.1785 39.9993 48.3433C32.4532 48.177 21.6366 46.8971 18.6092 46.524C18.1299 45.6852 17.4229 43.8759 18.2255 41.3436C18.2859 41.2423 19.4918 39.4562 29.2712 38.3759C34.5404 37.793 39.6409 37.7178 39.9979 37.7121C40.3549 37.7164 45.4554 37.793 50.7246 38.3759C60.5054 39.4562 61.7113 41.2423 61.7703 41.3436C62.5729 43.8759 61.8659 45.6852 61.3866 46.524H61.3894ZM20.0962 75.3937V63.9569H23.7729L20.0962 75.3937ZM56.0626 63.9598H59.738V75.3937L56.0626 63.9598ZM75.9953 32.9163L68.5096 53.3907C67.128 57.1683 63.7169 59.7787 59.8069 60.055H39.9993H20.1917C16.2817 59.7787 12.8705 57.1683 11.489 53.3907L4.00332 32.9163C3.41161 31.298 4.13684 29.4497 5.65336 28.7078L10.678 26.2492C11.808 25.6953 13.1643 26.1002 13.8319 27.1907L19.4314 36.3367C15.9964 37.5168 15.0111 38.9038 14.6246 40.1143C12.789 45.8732 16.0315 49.5379 16.1706 49.6912L16.6387 50.2075L17.3203 50.2958C17.8727 50.3681 30.9508 52.0558 39.9599 52.2482H39.9993H40.0387C49.0478 52.0544 62.1259 50.3666 62.6783 50.2958L63.3599 50.2075L63.828 49.6912C63.9671 49.5379 67.2096 45.8746 65.374 40.1143C64.9875 38.9038 64.0022 37.5168 60.5672 36.3367L66.1667 27.1907C66.8343 26.1002 68.1892 25.6967 69.3206 26.2492L74.3452 28.7078C75.8618 29.4497 76.587 31.2994 75.9953 32.9163Z" fill="#1B4349"/>
</svg>
