<svg width="496" height="663" viewBox="0 0 496 663" fill="none" xmlns="http://www.w3.org/2000/svg">
<path d="M491.6 240.5C485.937 226.477 475.294 215.187 461.627 208.691L425.461 191.516V91.557C425.461 41.0742 384.353 0.0119855 333.812 0.0119855L332.877 0.0359564C278.629 3.15218 172.125 9.04903 157.354 9.04903C142.583 9.04903 32.3114 3.14019 -23.9283 0.0239709L-24.8282 0C-75.3684 0 -116.477 41.0622 -116.477 91.545V191.504L-152.642 208.679C-166.309 215.175 -176.953 226.465 -182.616 240.488C-188.28 254.511 -188.46 270.021 -183.132 284.175L-119.213 453.854C-106.758 486.934 -80.24 512.163 -47.8185 523.561V662.988H6.05742L50.0821 530.021L257.51 530.045L301.535 662.988H355.411V524.052C388.468 512.894 415.574 487.413 428.209 453.854L492.116 284.175C497.444 270.021 497.264 254.511 491.6 240.488V240.5ZM-25.2482 32.3608C-13.7051 32.996 138.335 41.3978 157.366 41.3978C176.396 41.3978 322.857 33.02 334.256 32.3608C366.726 32.6005 393.076 59.0524 393.076 91.545V183.21C376.181 184.073 360.066 192.918 350.503 208.092L297.095 292.769C284.412 290.312 269.545 288.071 252.087 286.141C203.142 280.736 156.634 280.196 154.678 280.184H154.51H154.342C152.386 280.208 105.878 280.736 56.9335 286.141C39.4749 288.071 24.62 290.3 11.925 292.769L-41.483 208.092C-51.0462 192.918 -67.161 184.073 -84.0557 183.21V91.545C-84.0557 59.0524 -57.7057 32.5885 -25.2242 32.3608H-25.2482ZM337.1 385.56C311.254 388.665 218.909 399.272 154.486 400.638C90.063 399.26 -2.28194 388.653 -28.128 385.56C-32.2197 378.609 -38.2552 363.615 -31.4037 342.628C-30.8878 341.79 -20.5925 326.987 62.8971 318.034C107.882 313.204 151.426 312.581 154.474 312.533C157.522 312.569 201.067 313.204 246.051 318.034C329.553 326.987 339.848 341.79 340.352 342.628C347.203 363.615 341.168 378.609 337.076 385.56H337.1ZM-15.4329 624.814V530.033H15.9567L-15.4329 624.814ZM291.624 530.057H323.001V624.814L291.624 530.057ZM461.795 272.789L397.888 442.467C386.092 473.773 356.971 495.407 323.589 497.696H154.486H-14.617C-47.9985 495.407 -77.1202 473.773 -88.9153 442.467L-152.822 272.789C-157.874 259.377 -151.683 244.06 -138.736 237.911L-95.8388 217.536C-86.1915 212.946 -74.6124 216.302 -68.9129 225.339L-21.1085 301.135C-50.4343 310.915 -58.8456 322.409 -62.1454 332.441C-77.8162 380.167 -50.1343 410.538 -48.9464 411.809L-44.9507 416.087L-39.1311 416.819C-34.4155 417.418 77.236 431.405 154.15 432.999H154.486H154.822C231.736 431.393 343.388 417.406 348.103 416.819L353.923 416.087L357.919 411.809C359.107 410.538 386.788 380.179 371.118 332.441C367.818 322.409 359.406 310.915 330.081 301.135L377.885 225.339C383.585 216.302 395.152 212.958 404.811 217.536L447.708 237.911C460.655 244.06 466.846 259.389 461.795 272.789Z" fill="#DCE7DC" fill-opacity="0.23"/>
</svg>
