<svg width="80" height="80" viewBox="0 0 80 80" fill="none" xmlns="http://www.w3.org/2000/svg">
<g clip-path="url(#clip0_583_63)">
<path d="M40 80C29.3153 80 19.2712 75.8392 11.7153 68.2847C4.16079 60.7288 0 50.6847 0 40C0 29.3153 4.16079 19.2712 11.7153 11.7153C19.2699 4.15947 29.3153 0 40 0C50.6847 0 60.7288 4.16079 68.2847 11.7153C75.8392 19.2699 80 29.3153 80 40C80 50.6847 75.8392 60.7288 68.2847 68.2847C60.7301 75.8405 50.6847 80 40 80ZM40 4.08567C30.4066 4.08567 21.3878 7.82076 14.6043 14.6043C7.82076 21.3878 4.08567 30.4066 4.08567 40C4.08567 49.5934 7.82076 58.6122 14.6043 65.3957C21.3878 72.1792 30.4066 75.9143 40 75.9143C49.5934 75.9143 58.6122 72.1792 65.3957 65.3957C72.1792 58.6122 75.9143 49.5934 75.9143 40C75.9143 30.4066 72.1792 21.3878 65.3957 14.6043C58.6122 7.82076 49.5934 4.08567 40 4.08567Z" fill="#F5F7F5"/>
<path d="M33.8096 57.1018L15.9275 40.0145C15.1117 39.2356 15.0827 37.9413 15.8616 37.1268C16.6405 36.311 17.9348 36.282 18.7493 37.0609L33.7621 51.4069L61.2244 24.2912C62.027 23.4978 63.3213 23.5071 64.1134 24.3097C64.9054 25.1123 64.8975 26.4066 64.0949 27.1987L33.8082 57.1018H33.8096Z" fill="#F5F7F5"/>
</g>
<defs>
<clipPath id="clip0_583_63">
<rect width="80" height="80" fill="white"/>
</clipPath>
</defs>
</svg>
