<svg width="80" height="74" viewBox="0 0 80 74" fill="none" xmlns="http://www.w3.org/2000/svg">
<path d="M40.0134 25.5325C44.1906 25.5325 47.2916 28.5306 47.2917 31.8626C47.2917 35.1947 44.1907 38.1927 40.0134 38.1927C35.8361 38.1926 32.735 35.1947 32.735 31.8626C32.7352 28.5306 35.8362 25.5326 40.0134 25.5325ZM40.0134 25.888C36.5798 25.8881 33.4969 28.406 33.4968 31.8626C33.4968 35.3193 36.5798 37.8381 40.0134 37.8382C43.447 37.8382 46.5309 35.3194 46.5309 31.8626C46.5308 28.4059 43.447 25.888 40.0134 25.888Z" stroke="#1B4349" stroke-width="3"/>
<path d="M40.0137 1.5C40.1729 1.5 40.286 1.5571 40.3458 1.61035C40.3748 1.63628 40.3873 1.6577 40.3917 1.66699C40.3951 1.67433 40.3946 1.67636 40.3946 1.67773V7.37695H46.6026C46.7615 7.377 46.8739 7.43412 46.9337 7.4873C46.9627 7.51323 46.9751 7.53465 46.9796 7.54395C46.983 7.5513 46.9835 7.55331 46.9835 7.55469C46.9835 7.55608 46.9828 7.55848 46.9796 7.56543C46.975 7.57488 46.9624 7.59547 46.9337 7.62109C46.8739 7.67433 46.7616 7.73238 46.6026 7.73242H40.3946V14.1914L41.42 14.5332C41.7306 14.6369 42.02 14.7764 42.2803 14.9463L42.5303 15.126L42.5313 15.127L63.3809 31.5732V31.5723C64.1251 32.1595 64.503 32.9608 64.503 33.7471V47.2256L65.2003 47.667L67.378 49.0459L76.7628 54.9863L76.7647 54.9893L77.084 55.1924C78.0159 55.7821 78.5001 56.6884 78.5001 57.5732V72.1309H1.50006V57.1826C1.50015 56.3666 1.91552 55.5269 2.71198 54.9404L2.87604 54.8262L12.5958 48.4971L12.5948 48.4961L14.8448 47.0322L15.5264 46.5879V33.6104C15.5264 32.8618 15.8651 32.1048 16.5352 31.5283L16.6739 31.416L16.6749 31.415L37.7706 15.1074C38.0391 14.8998 38.3437 14.7285 38.6758 14.5996L39.6329 14.2285V7.73242H33.4258C33.2667 7.73242 33.1535 7.67436 33.0938 7.62109C33.065 7.59538 33.0524 7.57476 33.0479 7.56543C33.0446 7.55846 33.045 7.55608 33.045 7.55469C33.045 7.55333 33.0445 7.55113 33.0479 7.54395C33.0523 7.53466 33.0648 7.51321 33.0938 7.4873C33.1535 7.43404 33.2667 7.37695 33.4258 7.37695H39.6329V1.67773C39.6329 1.67635 39.6332 1.67447 39.6368 1.66699C39.6412 1.6577 39.6536 1.63628 39.6827 1.61035C39.7424 1.55719 39.855 1.50006 40.0137 1.5ZM13.1749 48.6904L3.45612 55.0195L3.45416 55.0215C2.74852 55.4827 2.25983 56.27 2.25983 57.1807V71.7734H13.9952V70.2734H15.4932V47.1807L13.1749 48.6904ZM64.503 71.7734H76.2374V70.2734H77.7354V57.5703C77.7353 56.7031 77.2943 55.9497 76.6436 55.4814L76.5098 55.3916V55.3906L66.8047 49.2471L64.503 47.79V71.7734ZM40.1378 14.6826C39.6166 14.6827 39.0741 14.8229 38.5977 15.1289L38.3975 15.2705L17.3047 31.5752C16.6894 32.0492 16.2873 32.7834 16.2872 33.6084V71.7627H29.4952V59.2656C29.4952 54.3392 34.0491 50.045 40.0137 50.0449C45.9785 50.0449 50.5332 54.3392 50.5333 59.2656V71.7676H63.7413V33.7471C63.7413 32.9804 63.3931 32.2959 62.8575 31.8242L62.7471 31.7324L62.7462 31.7314L41.8975 15.2852H41.8965C41.4358 14.9212 40.8912 14.7329 40.3633 14.6914L40.1378 14.6826ZM40.0157 50.4004C34.7916 50.4004 30.2579 54.2134 30.2579 59.2656V71.7637H31.7579L48.2715 71.7656L48.8438 71.7666L49.2706 71.3848L49.2725 71.3838L49.7725 70.9365V59.2656C49.7725 54.2119 45.2379 50.4005 40.0157 50.4004Z" stroke="#1B4349" stroke-width="3"/>
</svg>
