<svg width="494" height="683" viewBox="0 0 494 683" fill="none" xmlns="http://www.w3.org/2000/svg">
<path d="M152.618 254.048C176.276 254.048 195.45 272.63 195.45 295.558C195.45 318.486 176.276 337.067 152.618 337.067C128.961 337.067 109.787 318.486 109.787 295.558C109.787 272.63 128.961 254.048 152.618 254.048ZM152.618 222.925C111.297 222.925 77.6719 255.512 77.6719 295.558C77.6719 335.603 111.297 368.191 152.618 368.191C193.94 368.191 227.565 335.603 227.565 295.558C227.565 255.512 193.94 222.925 152.618 222.925Z" fill="#1B4349" fill-opacity="0.2"/>
<path d="M475.944 500.178L393.088 443.188L374.497 430.404V313.034C374.497 301.149 369.228 289.818 360.045 281.945L182.046 129.393C178.085 125.993 173.541 123.376 168.676 121.612V85.6358H208.868C217.741 85.6358 224.925 78.6734 224.925 70.074C224.925 61.4747 217.741 54.5123 208.868 54.5123H168.676V15.5618C168.676 6.96245 161.492 0 152.619 0C143.746 0 136.562 6.96245 136.562 15.5618V54.5123H96.3704C87.4971 54.5123 80.3129 61.4747 80.3129 70.074C80.3129 78.6734 87.4971 85.6358 96.3704 85.6358H136.562V122.454C132.624 124.114 128.937 126.35 125.631 129.128L-54.4744 280.4C-63.8709 288.285 -69.2472 299.72 -69.2472 311.766V424.606L-88.4567 438.196L-171.432 496.904C-182.434 504.685 -189 517.215 -189 530.426V683H494V534.045C494 520.616 487.256 507.971 475.956 500.201L475.944 500.178ZM-69.5208 651.853H-156.897V530.403C-156.897 527.094 -155.267 523.982 -152.508 522.022L-69.5327 463.314V651.853H-69.5208ZM223.117 651.784L82.1328 651.761V549.745C82.1328 512.017 113.689 481.423 152.631 481.423C191.561 481.423 223.129 512.005 223.129 549.745V651.773L223.117 651.784ZM342.382 651.796H255.232V549.745C255.232 494.91 209.201 450.3 152.619 450.3C96.0373 450.3 50.006 494.91 50.006 549.745V651.75H-37.1442V311.754C-37.1442 308.745 -35.8002 305.887 -33.4451 303.915L146.672 152.644C148.682 150.949 151.18 150.108 153.678 150.108C156.175 150.108 158.745 150.972 160.767 152.713L338.766 305.264C341.062 307.235 342.382 310.059 342.382 313.034V651.796ZM461.873 651.853H374.497V468.57L457.353 525.561C460.184 527.509 461.861 530.656 461.861 534.022V651.853H461.873Z" fill="#1B4349" fill-opacity="0.2"/>
</svg>
