<svg width="80" height="79" viewBox="0 0 80 79" fill="none" xmlns="http://www.w3.org/2000/svg">
<g clip-path="url(#clip0_583_185)">
<path d="M41.9132 78.038C35.607 78.038 29.9222 76.057 24.9711 72.1257C19.0661 67.4518 15.6117 61.1368 14.7087 53.3558C13.8072 45.5908 15.7211 38.6514 20.3964 32.7303C25.0805 26.8194 31.397 23.3651 39.1722 22.4621C46.9343 21.5606 53.8736 23.4745 59.7962 28.1498C65.71 32.8456 69.1629 39.1605 70.0644 46.927C70.9674 54.708 69.0535 61.6459 64.3738 67.5524C59.6941 73.4619 53.3776 76.9177 45.5995 77.8207C44.3479 77.9665 43.1181 78.038 41.9117 78.038H41.9132ZM42.8979 26.7654C41.8548 26.7654 40.7885 26.8296 39.6944 26.9565C33.0614 27.7268 27.9091 30.5334 23.9427 35.5384C19.9836 40.5522 18.4315 46.2107 19.2003 52.8364C19.9705 59.4738 22.7771 64.6247 27.7807 68.5838C31.9484 71.8937 36.58 73.5217 41.8592 73.5217C42.9066 73.5217 43.9803 73.4575 45.0802 73.3291C51.7146 72.5589 56.867 69.7508 60.8304 64.7443C64.7924 59.7437 66.3446 54.0866 65.5729 47.4492C64.8041 40.8235 61.996 35.6712 56.9895 31.6961C52.8029 28.392 48.1669 26.764 42.8979 26.764V26.7654Z" fill="#1B4349"/>
<path d="M28.3423 58.864C24.5684 58.864 20.7727 58.0442 16.9829 56.406C9.79264 53.2989 4.74095 48.1713 1.96638 41.1649C-0.811101 34.157 -0.644802 26.9594 2.4609 19.7721C5.57244 12.5731 10.7029 7.51997 17.7079 4.7527C24.7085 1.97521 31.9046 2.14151 39.0948 5.25014C46.2705 8.35146 51.3236 13.479 54.1128 20.4884C56.8903 27.5006 56.7225 34.6967 53.6168 41.8826C50.5169 49.0553 45.3894 54.1085 38.3786 56.9005C35.0657 58.2091 31.7135 58.8626 28.3437 58.8626L28.3423 58.864ZM27.7354 7.29678C24.939 7.29678 22.1629 7.85111 19.3723 8.95831C13.4396 11.3011 9.26749 15.425 6.61254 21.5664C3.96197 27.6976 3.81755 33.5633 6.172 39.499C8.52206 45.4317 12.6445 49.6024 18.7786 52.2544C24.901 54.9006 30.7667 55.045 36.7126 52.6978C42.6469 50.3347 46.8219 46.2093 49.4666 40.0898C52.1157 33.96 52.2616 28.0944 49.9101 22.1587C47.5483 16.2229 43.423 12.0494 37.3005 9.40323C34.0533 7.9999 30.882 7.29824 27.7369 7.29824L27.7354 7.29678Z" fill="#1B4349"/>
<path d="M52.0122 56.1157C50.6453 56.1157 49.2595 56.0136 47.8562 55.8094C40.3946 54.708 34.2459 50.9648 29.5764 44.6819C24.9142 38.4107 23.1024 31.4437 24.1892 23.9763C25.2979 16.5074 29.0411 10.3587 35.3167 5.69505C41.6025 1.0241 48.5681 -0.787686 56.0223 0.312221C63.481 1.41067 69.6311 5.15239 74.3021 11.4367C78.9804 17.7313 80.7921 24.6998 79.6864 32.1497C78.5923 39.6011 74.8491 45.7498 68.5633 50.4222C63.4693 54.2091 57.9173 56.1157 52.0137 56.1157H52.0122ZM51.7934 4.51637C46.8817 4.51637 42.345 6.10351 38.0125 9.32445C32.6588 13.304 29.6012 18.3119 28.6618 24.6342C27.7413 30.955 29.2263 36.6325 33.2044 41.9832C37.1883 47.3427 42.1962 50.4017 48.5126 51.3339C54.8335 52.2558 60.511 50.7708 65.8646 46.7913C71.227 42.8045 74.2846 37.7995 75.2124 31.4874C76.1489 25.1783 74.6653 19.5022 70.6727 14.1325C66.6874 8.77158 61.6809 5.71402 55.363 4.78479C54.1507 4.60536 52.9619 4.51637 51.7948 4.51637H51.7934Z" fill="#1B4349"/>
</g>
<defs>
<clipPath id="clip0_583_185">
<rect width="80" height="78.038" fill="white"/>
</clipPath>
</defs>
</svg>
