<svg width="80" height="80" viewBox="0 0 80 80" fill="none" xmlns="http://www.w3.org/2000/svg">
<g clip-path="url(#clip0_583_328)">
<path d="M56.9792 50.7541C56.9792 42.136 49.4264 40.0193 42.1528 38.2346V20.9416C45.8792 21.1624 49.9333 22.3902 53.4597 24.6818L55.0889 20.836C51.7236 18.493 46.9181 17.036 42.1528 16.8235V10.9499C42.1528 9.76101 41.1889 8.79712 40 8.79712C38.8111 8.79712 37.8472 9.76101 37.8472 10.9499V16.9443C28.4111 17.8916 24.1292 23.2263 24.1292 29.3096C24.1292 37.6193 30.9347 39.9749 37.8472 41.7166V58.9985C32.632 58.5263 27.7833 56.3707 24.9111 53.5555L23.0208 57.2707C26.0583 60.4249 31.7681 62.6888 37.8472 63.1235V69.0457C37.8472 70.2346 38.8111 71.1985 40 71.1985C41.1889 71.1985 42.1528 70.2346 42.1528 69.0457V63.1291C52.3028 62.4527 56.9792 57.0305 56.9792 50.7513V50.7541ZM28.8875 29.1805C28.8875 25.2277 31.6778 21.9138 37.8472 21.0971V37.143C32.8764 35.761 28.8875 33.8957 28.8875 29.1805ZM42.1528 59.011V42.7846C47.6264 44.1985 52.2208 45.9541 52.2208 51.0152C52.2208 55.1082 49.1417 58.4443 42.1528 59.011Z" fill="#1B4349"/>
<path d="M75.3153 21.2028L72.3347 24.8639C72.5264 25.275 72.7139 25.6875 72.8917 26.1069C74.7514 30.5042 75.6945 35.1792 75.6945 40C75.6945 44.8208 74.7514 49.4944 72.8917 53.8931C71.0945 58.1431 68.5194 61.9611 65.2403 65.2403C61.9611 68.5194 58.1431 71.0945 53.8931 72.8917C49.4958 74.7514 44.8208 75.6945 40 75.6945C35.1792 75.6945 30.5056 74.7514 26.1069 72.8917C21.8569 71.0945 18.0389 68.5194 14.7597 65.2403C11.4806 61.9611 8.90556 58.1431 7.10833 53.8931C5.24861 49.4958 4.30556 44.8208 4.30556 40C4.30556 35.1792 5.24861 30.5056 7.10833 26.1069C8.90556 21.8569 11.4806 18.0389 14.7597 14.7597C18.0389 11.4806 21.8569 8.90556 26.1069 7.10833C30.5042 5.24861 35.1792 4.30556 40 4.30556C44.8208 4.30556 49.4944 5.24861 53.8931 7.10833C55.9903 7.99583 57.9833 9.07361 59.8569 10.3306V5.52778C59.8569 5.44306 59.8625 5.35972 59.8694 5.27639C54.0153 1.91944 47.2319 0 40 0C17.9083 0 0 17.9083 0 40C0 62.0917 17.9083 80 40 80C62.0917 80 80 62.0917 80 40C80 33.2056 78.3042 26.8069 75.3153 21.2028Z" fill="#1B4349"/>
<path d="M71.2792 18.5388H68.0583V5.11523H63.7528V18.5388H60.5319C60.2472 18.5388 60.0694 18.8472 60.2111 19.0944L65.5847 28.4013C65.7278 28.6486 66.0833 28.6486 66.225 28.4013L71.5986 19.0944C71.7417 18.8472 71.5625 18.5388 71.2778 18.5388H71.2792Z" fill="#1B4349"/>
</g>
<defs>
<clipPath id="clip0_583_328">
<rect width="80" height="80" fill="white"/>
</clipPath>
</defs>
</svg>
