<svg width="57" height="100" viewBox="0 0 57 100" fill="none" xmlns="http://www.w3.org/2000/svg">
<g clip-path="url(#clip0_511_221)">
<path d="M28.6365 17.1738C28.6365 18.5553 28.166 19.7116 27.23 20.6476C26.2939 21.5837 25.1377 22.0542 23.7561 22.0542C22.3746 22.0542 21.2183 21.5837 20.2823 20.6476C19.3463 19.7116 18.8758 18.5503 18.8758 17.1738C18.8758 15.7973 19.3463 14.636 20.2823 13.7C21.2183 12.764 22.3796 12.2935 23.7561 12.2935C25.1326 12.2935 26.2939 12.759 27.23 13.7C28.166 14.636 28.6365 15.7923 28.6365 17.1738Z" fill="white"/>
<path d="M13.8753 17.1738C13.8753 18.5553 13.4048 19.7116 12.4687 20.6476C11.5327 21.5837 10.3764 22.0542 8.9949 22.0542C7.61338 22.0542 6.45711 21.5837 5.52108 20.6476C4.58505 19.7116 4.11453 18.5503 4.11453 17.1738C4.11453 15.7973 4.58505 14.636 5.52108 13.7C6.45711 12.764 7.61839 12.2935 8.9949 12.2935C10.3714 12.2935 11.5327 12.759 12.4687 13.7C13.4048 14.636 13.8753 15.7923 13.8753 17.1738Z" fill="white"/>
<path d="M21.2584 4.88037C21.2584 6.26189 20.7879 7.41816 19.8518 8.35419C18.9158 9.29022 17.7595 9.76074 16.378 9.76074C14.9965 9.76074 13.8402 9.29022 12.9042 8.35419C11.9682 7.41816 11.4977 6.25688 11.4977 4.88037C11.4977 3.50385 11.9682 2.34258 12.9042 1.40655C13.8402 0.470518 15.0015 0 16.378 0C17.7545 0 18.9158 0.465512 19.8518 1.40655C20.7879 2.34258 21.2584 3.49885 21.2584 4.88037Z" fill="white"/>
<path d="M46.1908 29.0718V66.2226C46.1908 66.2226 46.1908 66.2627 46.1908 66.2827C46.1608 77.8154 43.3627 86.3798 40.7398 90.7646C38.8027 94.0032 33.8973 96.7762 28.0158 96.8213C22.1343 96.7762 17.229 94.0032 15.2918 90.7646C12.6689 86.3798 9.87086 77.8154 9.84083 66.2827C9.84083 66.2627 9.84083 66.2427 9.84083 66.2226V29.0718H0V66.1225C0 66.1776 0.0150165 66.2226 0.0150165 66.2777C0.10011 77.6502 2.65292 86.0995 7.70848 91.6056C12.8491 97.2017 19.5265 99.9998 27.7405 99.9998C27.8356 99.9998 27.9207 99.9848 28.0108 99.9848C28.1009 99.9848 28.191 99.9998 28.2811 99.9998C36.4951 99.9998 43.1725 97.2017 48.3131 91.6056C53.3687 86.1045 55.9215 77.6502 56.0066 66.2777C56.0066 66.2226 56.0216 66.1776 56.0216 66.1225V29.0718H46.1858H46.1908Z" fill="white"/>
<path d="M23.2205 29.0718V41.8258C23.2205 41.8258 23.2205 41.8659 23.2205 41.8859C23.1905 53.4186 20.3924 61.983 17.7695 66.3678C15.8324 69.6064 10.927 72.3794 5.04555 72.4245V75.5879C5.13565 75.5879 5.22575 75.603 5.31584 75.603C13.5299 75.603 20.2072 72.8049 25.3479 67.2087C30.4034 61.7077 32.9563 53.2534 33.0413 41.8809C33.0413 41.8258 33.0564 41.7808 33.0564 41.7257V29.0718H23.2205Z" fill="white"/>
</g>
<defs>
<clipPath id="clip0_511_221">
<rect width="56.0266" height="100" fill="white"/>
</clipPath>
</defs>
</svg>
