<svg width="80" height="63" viewBox="0 0 80 63" fill="none" xmlns="http://www.w3.org/2000/svg">
<g clip-path="url(#clip0_583_237)">
<path d="M46.4736 23.4404C44.0403 23.4404 39.3 23.0084 35.8139 19.9973C31.0291 15.864 30.7111 8.68342 30.7 8.38064L30.6292 6.48064L32.5194 6.27509C32.8208 6.24175 39.9708 5.51675 44.7555 9.65009C49.5403 13.7834 49.8583 20.964 49.8694 21.2668L49.9403 23.1668L48.05 23.3723C47.968 23.3806 47.3805 23.4418 46.4736 23.4418V23.4404ZM35.0736 10.3195C35.468 12.2515 36.3833 15.089 38.4847 16.9056C40.5861 18.7223 43.5264 19.2168 45.4958 19.3265C45.1014 17.3945 44.1861 14.557 42.0847 12.7404C39.9833 10.9237 37.043 10.4293 35.0736 10.3195Z" fill="#004147"/>
<path d="M51.9347 24.1986L51.7 22.275C51.6542 21.9 50.6347 13.025 55.6583 6.93611C60.6819 0.845833 69.5889 0.161111 69.9653 0.134722L71.8986 0L72.1347 1.92361C72.1806 2.29861 73.1986 11.1736 68.1764 17.2625C63.1528 23.3514 54.2458 24.0375 53.8694 24.0639L51.9361 24.1986H51.9347ZM68.1569 4.53611C65.6375 5.05972 61.4194 6.37222 58.8097 9.53472C56.2014 12.6972 55.7125 17.0875 55.6778 19.6611C58.1972 19.1375 62.4153 17.825 65.025 14.6611C67.6333 11.4986 68.1222 7.10833 68.1569 4.53472V4.53611Z" fill="#004147"/>
<path d="M41.9931 62.743C38.0306 62.743 34.3486 61.4249 31.4709 60.2041C30.3334 59.7221 29.2042 59.2027 28.1111 58.7013C25.5889 57.5416 23.2056 56.4471 20.6875 55.7457C18.3209 55.086 12.2514 56.4888 8.98197 57.5277C7.99447 57.8416 6.9292 57.3666 6.50281 56.4221C6.46114 56.3305 2.33059 47.1874 0.145863 41.7221C-0.18747 40.8874 0.0639189 39.9318 0.765308 39.3693C2.09725 38.3013 5.7042 35.6471 9.81392 33.2402C14.8723 30.2777 18.8417 28.7749 21.6111 28.7749C21.6223 28.7749 21.632 28.7749 21.6431 28.7749C25.2167 28.7902 30.6473 31.3152 35.4375 33.5443C37.7334 34.6124 39.9014 35.6207 41.35 36.0999C44.9806 37.3013 52.0542 38.5707 55.8542 39.2527C56.6264 39.3916 57.2445 39.5027 57.707 39.5902C61.0834 37.3027 70.5625 31.2943 75.2806 30.4013C76.3042 30.2082 77.3903 30.5749 78.3431 31.436C79.1723 32.186 80.1028 33.511 79.9931 34.7763C79.8028 36.9791 78.4486 39.4888 75.8556 42.4499C73.7847 44.8152 71.0014 47.3777 67.5834 50.0652C61.5292 54.8277 54.2 59.3485 49.7611 61.0596C48.2528 61.6416 46.2459 62.343 44.1098 62.611C43.3986 62.6999 42.6931 62.7416 41.9959 62.7416L41.9931 62.743ZM19.1153 51.5055C20.1014 51.5055 21.0139 51.5943 21.7848 51.8096C24.6153 52.5985 27.2598 53.8138 29.8181 54.9888C30.8834 55.4777 31.9848 55.9846 33.0667 56.443C37.3945 58.2777 40.6431 58.9305 43.6 58.5596C45.2986 58.3471 46.9986 57.7471 48.2903 57.2499C52.3278 55.6943 59.3778 51.3221 65.057 46.8555C68.232 44.3582 70.9028 41.9041 72.782 39.7582C75.0209 37.2013 75.6903 35.618 75.8709 34.768C75.8056 34.6777 75.7236 34.5805 75.6459 34.5041C71.8473 35.4582 63.7473 40.3846 59.8139 43.0971C59.5403 43.5777 59.05 44.2541 58.1528 45.2416C57.4806 45.9818 56.1348 47.361 54.6848 48.2846C51.8945 50.061 44.7986 50.7235 40.8028 48.9346C37.2556 47.3471 29.8042 46.4638 25.1389 47.6568C24.0459 47.9374 22.9334 47.2777 22.6528 46.1846C22.3736 45.0916 23.032 43.9791 24.125 43.6985C29.8264 42.2388 38.2153 43.2999 42.4709 45.2055C45.2209 46.436 50.8861 45.8596 52.4903 44.8388C53.1528 44.4166 53.8653 43.7888 54.4931 43.1596C50.4806 42.4374 43.7709 41.2041 40.0695 39.9791C38.3959 39.4249 36.1236 38.368 33.7167 37.2485C29.525 35.2985 24.3084 32.8721 21.6292 32.861C21.6236 32.861 21.6167 32.861 21.6111 32.861C17.6736 32.861 9.10281 38.2055 4.52225 41.6318C6.1292 45.5332 8.36253 50.5735 9.50003 53.1166C11.8098 52.4777 15.8611 51.5055 19.1181 51.5055H19.1153Z" fill="#004147"/>
</g>
<defs>
<clipPath id="clip0_583_237">
<rect width="80" height="62.7431" fill="white"/>
</clipPath>
</defs>
</svg>
