<svg width="770" height="292" viewBox="0 0 770 292" fill="none" xmlns="http://www.w3.org/2000/svg">
<path d="M36.524 31.672C31.9853 31.672 28.0293 32.5 24.656 34.156C21.344 35.7507 18.584 37.8667 16.376 40.504C14.168 43.08 12.512 45.9933 11.408 49.244C10.3653 52.4947 9.844 55.7147 9.844 58.904C9.844 62.5227 10.5493 66.08 11.96 69.576C13.3707 73.0107 15.3027 76.0773 17.756 78.776C20.2707 81.4133 23.184 83.56 26.496 85.216C29.808 86.8107 33.396 87.608 37.26 87.608C38.364 87.608 39.652 87.4853 41.124 87.24C42.6573 86.9947 44.16 86.5347 45.632 85.86C47.104 85.124 48.4533 84.112 49.68 82.824C50.968 81.536 51.9493 79.8493 52.624 77.764H53.544V87.976C52.624 87.976 51.6427 88.0987 50.6 88.344C49.6187 88.5893 48.5147 88.8653 47.288 89.172C45.6933 89.6013 43.9147 90 41.952 90.368C40.0507 90.736 38.0267 90.92 35.88 90.92C30.544 90.92 25.852 90 21.804 88.16C17.756 86.32 14.3827 83.928 11.684 80.984C8.98533 78.04 6.96133 74.728 5.612 71.048C4.26267 67.3067 3.588 63.5347 3.588 59.732C3.588 55.9293 4.26267 52.1573 5.612 48.416C6.96133 44.6747 9.016 41.332 11.776 38.388C14.536 35.3827 18.0013 32.96 22.172 31.12C26.3427 29.28 31.2493 28.36 36.892 28.36C38.916 28.36 40.7253 28.544 42.32 28.912C43.976 29.28 45.448 29.648 46.736 30.016C47.656 30.3227 48.484 30.568 49.22 30.752C50.0173 30.8747 50.784 30.936 51.52 30.936V41.148H50.6C50.232 39.2467 49.5573 37.6827 48.576 36.456C47.5947 35.168 46.4293 34.1867 45.08 33.512C43.792 32.8373 42.3813 32.3773 40.848 32.132C39.376 31.8253 37.9347 31.672 36.524 31.672ZM88.3315 28.36C93.1155 28.36 97.4088 29.2187 101.212 30.936C105.014 32.592 108.234 34.8613 110.872 37.744C113.57 40.5653 115.625 43.8773 117.036 47.68C118.508 51.4213 119.244 55.3467 119.244 59.456C119.244 64.056 118.385 68.288 116.668 72.152C115.012 76.016 112.712 79.328 109.768 82.088C106.824 84.848 103.389 87.0253 99.4635 88.62C95.5995 90.1533 91.4595 90.92 87.0435 90.92C82.3208 90.92 78.0582 90.0613 74.2555 88.344C70.5142 86.6267 67.3248 84.3573 64.6875 81.536C62.1115 78.7147 60.1182 75.464 58.7075 71.784C57.2968 68.104 56.5915 64.2707 56.5915 60.284C56.5915 56.3587 57.2968 52.4947 58.7075 48.692C60.1182 44.828 62.1728 41.3933 64.8715 38.388C67.6315 35.3827 70.9742 32.96 74.8995 31.12C78.8248 29.28 83.3022 28.36 88.3315 28.36ZM88.2395 87.7C92.3488 87.516 95.9368 86.596 99.0035 84.94C102.132 83.2227 104.738 81.076 106.824 78.5C108.909 75.8627 110.442 72.98 111.424 69.852C112.466 66.724 112.988 63.6267 112.988 60.56C112.988 57.1867 112.374 53.7827 111.148 50.348C109.921 46.9133 108.173 43.816 105.904 41.056C103.634 38.2347 100.905 35.9653 97.7155 34.248C94.5875 32.4693 91.0608 31.58 87.1355 31.58C83.3328 31.58 79.9288 32.4387 76.9235 34.156C73.9182 35.812 71.3422 37.9587 69.1955 40.596C67.1102 43.2333 65.5155 46.1773 64.4115 49.428C63.3075 52.6787 62.7555 55.868 62.7555 58.996C62.7555 62.3693 63.3995 65.7733 64.6875 69.208C65.9755 72.5813 67.7542 75.648 70.0235 78.408C72.2928 81.168 74.9608 83.4067 78.0275 85.124C81.1555 86.8413 84.5595 87.7 88.2395 87.7ZM136.976 89.08H137.436V90H127.224V89.08H127.684C128.113 89.08 128.512 88.896 128.88 88.528C129.309 88.16 129.646 87.7307 129.892 87.24C130.137 86.7493 130.321 86.228 130.444 85.676C130.628 85.0627 130.72 84.5107 130.72 84.02V34.984C130.72 34.5547 130.658 34.064 130.536 33.512C130.474 32.96 130.321 32.4387 130.076 31.948C129.83 31.4573 129.493 31.0587 129.064 30.752C128.634 30.384 128.113 30.2 127.5 30.2H127.04V29.28H136.332L169.728 81.904V34.984C169.728 34.5547 169.636 34.064 169.452 33.512C169.329 32.96 169.114 32.4387 168.808 31.948C168.562 31.4573 168.256 31.0587 167.888 30.752C167.52 30.384 167.09 30.2 166.6 30.2H166.14V29.28H176.444V30.2H175.984C175.493 30.2 175.064 30.384 174.696 30.752C174.328 31.0587 173.99 31.4573 173.684 31.948C173.438 32.4387 173.254 32.96 173.132 33.512C173.009 34.064 172.948 34.5547 172.948 34.984V90H167.244L133.94 37.192V84.02C133.94 84.5107 134.001 85.0627 134.124 85.676C134.246 86.228 134.43 86.7493 134.676 87.24C134.982 87.7307 135.32 88.16 135.688 88.528C136.056 88.896 136.485 89.08 136.976 89.08ZM194.745 89.08H195.205V90H184.993V89.08H185.453C185.883 89.08 186.281 88.896 186.649 88.528C187.079 88.16 187.416 87.7307 187.661 87.24C187.907 86.7493 188.091 86.228 188.213 85.676C188.397 85.0627 188.489 84.5107 188.489 84.02V34.984C188.489 34.5547 188.428 34.064 188.305 33.512C188.244 32.96 188.091 32.4387 187.845 31.948C187.6 31.4573 187.263 31.0587 186.833 30.752C186.404 30.384 185.883 30.2 185.269 30.2H184.809V29.28H194.101L227.497 81.904V34.984C227.497 34.5547 227.405 34.064 227.221 33.512C227.099 32.96 226.884 32.4387 226.577 31.948C226.332 31.4573 226.025 31.0587 225.657 30.752C225.289 30.384 224.86 30.2 224.369 30.2H223.909V29.28H234.213V30.2H233.753C233.263 30.2 232.833 30.384 232.465 30.752C232.097 31.0587 231.76 31.4573 231.453 31.948C231.208 32.4387 231.024 32.96 230.901 33.512C230.779 34.064 230.717 34.5547 230.717 34.984V90H225.013L191.709 37.192V84.02C191.709 84.5107 191.771 85.0627 191.893 85.676C192.016 86.228 192.2 86.7493 192.445 87.24C192.752 87.7307 193.089 88.16 193.457 88.528C193.825 88.896 194.255 89.08 194.745 89.08ZM242.855 89.08H243.315C243.806 89.08 244.235 88.9267 244.603 88.62C244.971 88.252 245.278 87.8227 245.523 87.332C245.83 86.8413 246.044 86.32 246.167 85.768C246.351 85.216 246.443 84.6947 246.443 84.204V34.984C246.443 34.5547 246.351 34.064 246.167 33.512C246.044 32.96 245.83 32.4387 245.523 31.948C245.278 31.4573 244.971 31.0587 244.603 30.752C244.235 30.384 243.806 30.2 243.315 30.2H242.855V29.28H278.275V37.836H277.355C277.232 36.4253 276.68 35.1987 275.699 34.156C274.718 33.052 273.184 32.5 271.099 32.5H252.607V55.776H267.879C269.29 55.776 270.455 55.3467 271.375 54.488C272.356 53.6293 272.847 52.6173 272.847 51.452H273.767V62.952H272.847C272.847 61.848 272.387 60.8973 271.467 60.1C270.547 59.3027 269.351 58.904 267.879 58.904H252.607V86.78H272.755C273.92 86.78 274.932 86.504 275.791 85.952C276.65 85.4 277.355 84.756 277.907 84.02C278.52 83.2227 278.95 82.3947 279.195 81.536C279.502 80.616 279.655 79.8493 279.655 79.236H280.575V90H242.855V89.08ZM316.837 31.672C312.298 31.672 308.342 32.5 304.969 34.156C301.657 35.7507 298.897 37.8667 296.689 40.504C294.481 43.08 292.825 45.9933 291.721 49.244C290.678 52.4947 290.157 55.7147 290.157 58.904C290.157 62.5227 290.862 66.08 292.273 69.576C293.683 73.0107 295.615 76.0773 298.069 78.776C300.583 81.4133 303.497 83.56 306.809 85.216C310.121 86.8107 313.709 87.608 317.573 87.608C318.677 87.608 319.965 87.4853 321.437 87.24C322.97 86.9947 324.473 86.5347 325.945 85.86C327.417 85.124 328.766 84.112 329.993 82.824C331.281 81.536 332.262 79.8493 332.937 77.764H333.857V87.976C332.937 87.976 331.955 88.0987 330.913 88.344C329.931 88.5893 328.827 88.8653 327.6 89.172C326.006 89.6013 324.227 90 322.265 90.368C320.363 90.736 318.339 90.92 316.193 90.92C310.857 90.92 306.165 90 302.117 88.16C298.069 86.32 294.695 83.928 291.997 80.984C289.298 78.04 287.274 74.728 285.925 71.048C284.575 67.3067 283.901 63.5347 283.901 59.732C283.901 55.9293 284.575 52.1573 285.925 48.416C287.274 44.6747 289.329 41.332 292.089 38.388C294.849 35.3827 298.314 32.96 302.485 31.12C306.655 29.28 311.562 28.36 317.205 28.36C319.229 28.36 321.038 28.544 322.633 28.912C324.289 29.28 325.761 29.648 327.049 30.016C327.969 30.3227 328.797 30.568 329.533 30.752C330.33 30.8747 331.097 30.936 331.833 30.936V41.148H330.913C330.545 39.2467 329.87 37.6827 328.888 36.456C327.907 35.168 326.742 34.1867 325.393 33.512C324.105 32.8373 322.694 32.3773 321.161 32.132C319.689 31.8253 318.247 31.672 316.837 31.672ZM360.467 89.08H360.927V90H347.863V89.08H348.323C348.813 89.08 349.243 88.896 349.611 88.528C349.979 88.16 350.285 87.7307 350.531 87.24C350.837 86.7493 351.052 86.228 351.175 85.676C351.297 85.0627 351.359 84.5107 351.359 84.02V32.684H340.687C339.705 32.684 338.847 32.8987 338.111 33.328C337.375 33.7573 336.761 34.3093 336.271 34.984C335.78 35.5973 335.412 36.3027 335.167 37.1C334.921 37.836 334.799 38.572 334.799 39.308H333.879V29.28H375.187V39.308H374.267C374.267 38.572 374.144 37.836 373.899 37.1C373.653 36.3027 373.285 35.5973 372.795 34.984C372.304 34.3093 371.691 33.7573 370.955 33.328C370.219 32.8987 369.36 32.684 368.379 32.684H357.523V84.02C357.523 84.5107 357.584 85.0627 357.707 85.676C357.829 86.228 358.013 86.7493 358.259 87.24C358.565 87.7307 358.872 88.16 359.179 88.528C359.547 88.896 359.976 89.08 360.467 89.08ZM380.594 29.28H393.75V30.2H393.29C392.861 30.2 392.462 30.384 392.094 30.752C391.726 31.0587 391.419 31.4573 391.174 31.948C390.929 32.3773 390.714 32.8987 390.53 33.512C390.407 34.064 390.346 34.5547 390.346 34.984V84.02C390.346 84.5107 390.407 85.0627 390.53 85.676C390.653 86.228 390.837 86.7493 391.082 87.24C391.389 87.7307 391.695 88.16 392.002 88.528C392.37 88.896 392.799 89.08 393.29 89.08H393.75V90H380.594V89.08H381.054C381.545 89.08 381.974 88.9267 382.342 88.62C382.71 88.252 383.017 87.8227 383.262 87.332C383.569 86.78 383.783 86.228 383.906 85.676C384.029 85.0627 384.09 84.5107 384.09 84.02V34.984C384.09 34.5547 384.029 34.064 383.906 33.512C383.783 32.96 383.569 32.4387 383.262 31.948C383.017 31.4573 382.71 31.0587 382.342 30.752C381.974 30.384 381.545 30.2 381.054 30.2H380.594V29.28ZM412.257 89.08H412.717V90H402.505V89.08H402.965C403.394 89.08 403.793 88.896 404.161 88.528C404.59 88.16 404.928 87.7307 405.173 87.24C405.418 86.7493 405.602 86.228 405.725 85.676C405.909 85.0627 406.001 84.5107 406.001 84.02V34.984C406.001 34.5547 405.94 34.064 405.817 33.512C405.756 32.96 405.602 32.4387 405.357 31.948C405.112 31.4573 404.774 31.0587 404.345 30.752C403.916 30.384 403.394 30.2 402.781 30.2H402.321V29.28H411.613L445.009 81.904V34.984C445.009 34.5547 444.917 34.064 444.733 33.512C444.61 32.96 444.396 32.4387 444.089 31.948C443.844 31.4573 443.537 31.0587 443.169 30.752C442.801 30.384 442.372 30.2 441.881 30.2H441.421V29.28H451.725V30.2H451.265C450.774 30.2 450.345 30.384 449.977 30.752C449.609 31.0587 449.272 31.4573 448.965 31.948C448.72 32.4387 448.536 32.96 448.413 33.512C448.29 34.064 448.229 34.5547 448.229 34.984V90H442.525L409.221 37.192V84.02C409.221 84.5107 409.282 85.0627 409.405 85.676C409.528 86.228 409.712 86.7493 409.957 87.24C410.264 87.7307 410.601 88.16 410.969 88.528C411.337 88.896 411.766 89.08 412.257 89.08ZM499.927 57.984H513.083V58.904H512.623C512.132 58.904 511.703 59.088 511.335 59.456C510.967 59.7627 510.66 60.1613 510.415 60.652C510.169 61.1427 509.955 61.664 509.771 62.216C509.648 62.768 509.587 63.2587 509.587 63.688V88.344C508.483 88.7733 507.225 89.1413 505.815 89.448C504.404 89.7547 502.932 90 501.399 90.184C499.865 90.4293 498.301 90.6133 496.707 90.736C495.112 90.8587 493.64 90.92 492.291 90.92C486.771 90.92 481.956 90 477.847 88.16C473.737 86.32 470.333 83.928 467.635 80.984C464.936 77.9787 462.912 74.6053 461.563 70.864C460.275 67.1227 459.631 63.3507 459.631 59.548C459.631 55.7453 460.275 51.9733 461.563 48.232C462.912 44.4907 464.936 41.148 467.635 38.204C470.395 35.26 473.829 32.8987 477.939 31.12C482.109 29.28 487.047 28.36 492.751 28.36C494.897 28.36 496.891 28.544 498.731 28.912C500.571 29.28 502.196 29.6173 503.607 29.924C504.404 30.108 505.079 30.292 505.631 30.476C506.244 30.5987 506.765 30.66 507.195 30.66H508.023V40.412H507.103C506.735 38.5107 505.999 36.9773 504.895 35.812C503.852 34.6467 502.625 33.7573 501.215 33.144C499.804 32.5307 498.301 32.132 496.707 31.948C495.173 31.7027 493.732 31.58 492.383 31.58C487.783 31.58 483.796 32.408 480.423 34.064C477.049 35.6587 474.289 37.744 472.143 40.32C469.996 42.896 468.401 45.8093 467.359 49.06C466.316 52.2493 465.795 55.4387 465.795 58.628C465.795 62.1853 466.469 65.712 467.819 69.208C469.168 72.6427 471.069 75.74 473.523 78.5C475.976 81.1987 478.92 83.4067 482.355 85.124C485.851 86.78 489.715 87.608 493.947 87.608C495.112 87.608 496.553 87.4853 498.271 87.24C499.988 86.9333 501.705 86.2893 503.423 85.308V63.688C503.423 63.2587 503.361 62.768 503.239 62.216C503.116 61.664 502.901 61.1427 502.595 60.652C502.349 60.1613 502.043 59.7627 501.675 59.456C501.307 59.088 500.877 58.904 500.387 58.904H499.927V57.984ZM540.866 29.28H553.562V30.2C553.133 30.2613 552.734 30.4453 552.366 30.752C551.998 31.0587 551.814 31.5187 551.814 32.132C551.814 32.4387 551.906 32.776 552.09 33.144L565.89 57.34L579.138 34.432C579.383 33.9413 579.537 33.5733 579.598 33.328C579.721 33.0827 579.782 32.776 579.782 32.408C579.659 31.4267 579.291 30.8133 578.678 30.568C578.126 30.3227 577.789 30.2 577.666 30.2V29.28H587.51V30.2C586.59 30.2 585.639 30.7827 584.658 31.948C583.738 33.052 582.941 34.1867 582.266 35.352L567.914 60.192V84.02C567.914 84.5107 567.975 85.032 568.098 85.584C568.282 86.136 568.497 86.688 568.742 87.24C568.987 87.7307 569.294 88.16 569.662 88.528C570.03 88.896 570.459 89.08 570.95 89.08H571.41V90H558.254V89.08H558.714C559.205 89.08 559.634 88.9267 560.002 88.62C560.37 88.252 560.677 87.8227 560.922 87.332C561.229 86.78 561.443 86.228 561.566 85.676C561.689 85.0627 561.75 84.5107 561.75 84.02V61.02L546.938 35.628C546.631 35.1373 546.263 34.5853 545.834 33.972C545.405 33.3587 544.945 32.776 544.454 32.224C543.963 31.672 543.442 31.212 542.89 30.844C542.338 30.4147 541.817 30.2 541.326 30.2H540.866V29.28ZM616.074 28.36C620.858 28.36 625.151 29.2187 628.954 30.936C632.756 32.592 635.976 34.8613 638.614 37.744C641.312 40.5653 643.367 43.8773 644.778 47.68C646.25 51.4213 646.986 55.3467 646.986 59.456C646.986 64.056 646.127 68.288 644.41 72.152C642.754 76.016 640.454 79.328 637.51 82.088C634.566 84.848 631.131 87.0253 627.206 88.62C623.342 90.1533 619.202 90.92 614.786 90.92C610.063 90.92 605.8 90.0613 601.998 88.344C598.256 86.6267 595.067 84.3573 592.43 81.536C589.854 78.7147 587.86 75.464 586.45 71.784C585.039 68.104 584.334 64.2707 584.334 60.284C584.334 56.3587 585.039 52.4947 586.45 48.692C587.86 44.828 589.915 41.3933 592.614 38.388C595.374 35.3827 598.716 32.96 602.642 31.12C606.567 29.28 611.044 28.36 616.074 28.36ZM615.982 87.7C620.091 87.516 623.679 86.596 626.746 84.94C629.874 83.2227 632.48 81.076 634.566 78.5C636.651 75.8627 638.184 72.98 639.166 69.852C640.208 66.724 640.73 63.6267 640.73 60.56C640.73 57.1867 640.116 53.7827 638.89 50.348C637.663 46.9133 635.915 43.816 633.646 41.056C631.376 38.2347 628.647 35.9653 625.458 34.248C622.33 32.4693 618.803 31.58 614.878 31.58C611.075 31.58 607.671 32.4387 604.666 34.156C601.66 35.812 599.084 37.9587 596.938 40.596C594.852 43.2333 593.258 46.1773 592.154 49.428C591.05 52.6787 590.498 55.868 590.498 58.996C590.498 62.3693 591.142 65.7733 592.43 69.208C593.718 72.5813 595.496 75.648 597.766 78.408C600.035 81.168 602.703 83.4067 605.77 85.124C608.898 86.8413 612.302 87.7 615.982 87.7ZM72.772 122.2C71.5453 122.2 70.5027 122.721 69.644 123.764C68.7853 124.807 68.2027 125.941 67.896 127.168L51.152 182.368L36.8 137.104L22.448 182.46L5.612 127.26C5.30533 126.095 4.75333 124.96 3.956 123.856C3.22 122.752 2.36133 122.2 1.38 122.2V121.28H14.444V122.2C13.6467 122.2 12.972 122.537 12.42 123.212C11.9293 123.825 11.684 124.623 11.684 125.604C11.684 125.911 11.7453 126.309 11.868 126.8L23.828 165.808L38.456 120.728L52.532 165.716L64.676 126.8C64.676 126.677 64.7067 126.432 64.768 126.064C64.8907 125.635 64.952 125.297 64.952 125.052C64.952 124.193 64.7067 123.519 64.216 123.028C63.7253 122.476 63.2347 122.2 62.744 122.2V121.28H72.772V122.2ZM78.6291 121.28H91.7851V122.2H91.3251C90.8958 122.2 90.4971 122.384 90.1291 122.752C89.7611 123.059 89.4544 123.457 89.2091 123.948C88.9638 124.377 88.7491 124.899 88.5651 125.512C88.4424 126.064 88.3811 126.555 88.3811 126.984V176.02C88.3811 176.511 88.4424 177.063 88.5651 177.676C88.6878 178.228 88.8718 178.749 89.1171 179.24C89.4238 179.731 89.7304 180.16 90.0371 180.528C90.4051 180.896 90.8344 181.08 91.3251 181.08H91.7851V182H78.6291V181.08H79.0891C79.5798 181.08 80.0091 180.927 80.3771 180.62C80.7451 180.252 81.0518 179.823 81.2971 179.332C81.6038 178.78 81.8184 178.228 81.9411 177.676C82.0638 177.063 82.1251 176.511 82.1251 176.02V126.984C82.1251 126.555 82.0638 126.064 81.9411 125.512C81.8184 124.96 81.6038 124.439 81.2971 123.948C81.0518 123.457 80.7451 123.059 80.3771 122.752C80.0091 122.384 79.5798 122.2 79.0891 122.2H78.6291V121.28ZM123.908 181.08H124.368V182H111.304V181.08H111.764C112.255 181.08 112.684 180.896 113.052 180.528C113.42 180.16 113.727 179.731 113.972 179.24C114.279 178.749 114.494 178.228 114.616 177.676C114.739 177.063 114.8 176.511 114.8 176.02V124.684H104.128C103.147 124.684 102.288 124.899 101.552 125.328C100.816 125.757 100.203 126.309 99.7122 126.984C99.2215 127.597 98.8535 128.303 98.6082 129.1C98.3629 129.836 98.2402 130.572 98.2402 131.308H97.3202V121.28H138.628V131.308H137.708C137.708 130.572 137.586 129.836 137.34 129.1C137.095 128.303 136.727 127.597 136.236 126.984C135.746 126.309 135.132 125.757 134.396 125.328C133.66 124.899 132.802 124.684 131.82 124.684H120.964V176.02C120.964 176.511 121.026 177.063 121.148 177.676C121.271 178.228 121.455 178.749 121.7 179.24C122.007 179.731 122.314 180.16 122.62 180.528C122.988 180.896 123.418 181.08 123.908 181.08ZM180.375 181.08H180.835C181.265 181.08 181.663 180.927 182.031 180.62C182.399 180.252 182.706 179.823 182.951 179.332C183.258 178.78 183.473 178.228 183.595 177.676C183.718 177.063 183.779 176.511 183.779 176.02V150.996H154.339V176.02C154.339 176.511 154.401 177.063 154.523 177.676C154.646 178.228 154.83 178.749 155.075 179.24C155.321 179.731 155.597 180.16 155.903 180.528C156.271 180.896 156.701 181.08 157.191 181.08H157.651V182H144.771V181.08H145.231C145.661 181.08 146.059 180.927 146.427 180.62C146.795 180.252 147.102 179.823 147.347 179.332C147.654 178.78 147.869 178.228 147.991 177.676C148.114 177.063 148.175 176.511 148.175 176.02V126.984C148.175 126.555 148.114 126.064 147.991 125.512C147.869 124.96 147.685 124.439 147.439 123.948C147.194 123.457 146.887 123.059 146.519 122.752C146.151 122.384 145.722 122.2 145.231 122.2H144.771V121.28H157.651V122.2H157.191C156.701 122.2 156.271 122.384 155.903 122.752C155.535 123.059 155.229 123.457 154.983 123.948C154.799 124.439 154.646 124.96 154.523 125.512C154.401 126.064 154.339 126.555 154.339 126.984V147.776H183.779V126.984C183.779 126.555 183.718 126.064 183.595 125.512C183.473 124.96 183.289 124.439 183.043 123.948C182.798 123.457 182.491 123.059 182.123 122.752C181.755 122.384 181.326 122.2 180.835 122.2H180.375V121.28H193.255V122.2H192.795C192.305 122.2 191.875 122.384 191.507 122.752C191.139 123.059 190.833 123.457 190.587 123.948C190.403 124.439 190.25 124.96 190.127 125.512C190.005 126.064 189.943 126.555 189.943 126.984V176.02C189.943 176.511 190.005 177.063 190.127 177.676C190.311 178.228 190.526 178.749 190.771 179.24C191.017 179.731 191.293 180.16 191.599 180.528C191.967 180.896 192.366 181.08 192.795 181.08H193.255V182H180.375V181.08ZM259.94 181.08H260.4C261.872 181.08 262.608 180.405 262.608 179.056C262.608 178.565 262.516 178.044 262.332 177.492L254.052 155.136H237.952L229.948 177.124C229.764 177.615 229.672 178.075 229.672 178.504C229.672 179.301 229.887 179.945 230.316 180.436C230.746 180.865 231.206 181.08 231.696 181.08H232.156V182H221.944V181.08H222.404C223.202 181.08 223.968 180.62 224.704 179.7C225.502 178.719 226.146 177.584 226.636 176.296L247.704 120.176L268.312 175.744C268.742 176.971 269.324 178.167 270.06 179.332C270.858 180.497 271.87 181.08 273.096 181.08H273.556V182H259.94V181.08ZM238.872 152.008H253.04L245.956 132.78L238.872 152.008ZM335.344 123.672C330.806 123.672 326.85 124.5 323.476 126.156C320.164 127.751 317.404 129.867 315.196 132.504C312.988 135.08 311.332 137.993 310.228 141.244C309.186 144.495 308.664 147.715 308.664 150.904C308.664 154.523 309.37 158.08 310.78 161.576C312.191 165.011 314.123 168.077 316.576 170.776C319.091 173.413 322.004 175.56 325.316 177.216C328.628 178.811 332.216 179.608 336.08 179.608C337.184 179.608 338.472 179.485 339.944 179.24C341.478 178.995 342.98 178.535 344.452 177.86C345.924 177.124 347.274 176.112 348.5 174.824C349.788 173.536 350.77 171.849 351.444 169.764H352.364V179.976C351.444 179.976 350.463 180.099 349.42 180.344C348.439 180.589 347.335 180.865 346.108 181.172C344.514 181.601 342.735 182 340.772 182.368C338.871 182.736 336.847 182.92 334.7 182.92C329.364 182.92 324.672 182 320.624 180.16C316.576 178.32 313.203 175.928 310.504 172.984C307.806 170.04 305.782 166.728 304.432 163.048C303.083 159.307 302.408 155.535 302.408 151.732C302.408 147.929 303.083 144.157 304.432 140.416C305.782 136.675 307.836 133.332 310.596 130.388C313.356 127.383 316.822 124.96 320.992 123.12C325.163 121.28 330.07 120.36 335.712 120.36C337.736 120.36 339.546 120.544 341.14 120.912C342.796 121.28 344.268 121.648 345.556 122.016C346.476 122.323 347.304 122.568 348.04 122.752C348.838 122.875 349.604 122.936 350.34 122.936V133.148H349.42C349.052 131.247 348.378 129.683 347.396 128.456C346.415 127.168 345.25 126.187 343.9 125.512C342.612 124.837 341.202 124.377 339.668 124.132C338.196 123.825 336.755 123.672 335.344 123.672ZM396.989 181.08H397.449C397.878 181.08 398.277 180.927 398.645 180.62C399.013 180.252 399.319 179.823 399.565 179.332C399.871 178.78 400.086 178.228 400.209 177.676C400.331 177.063 400.393 176.511 400.393 176.02V150.996H370.953V176.02C370.953 176.511 371.014 177.063 371.137 177.676C371.259 178.228 371.443 178.749 371.689 179.24C371.934 179.731 372.21 180.16 372.517 180.528C372.885 180.896 373.314 181.08 373.805 181.08H374.265V182H361.385V181.08H361.845C362.274 181.08 362.673 180.927 363.041 180.62C363.409 180.252 363.715 179.823 363.961 179.332C364.267 178.78 364.482 178.228 364.605 177.676C364.727 177.063 364.789 176.511 364.789 176.02V126.984C364.789 126.555 364.727 126.064 364.605 125.512C364.482 124.96 364.298 124.439 364.053 123.948C363.807 123.457 363.501 123.059 363.133 122.752C362.765 122.384 362.335 122.2 361.845 122.2H361.385V121.28H374.265V122.2H373.805C373.314 122.2 372.885 122.384 372.517 122.752C372.149 123.059 371.842 123.457 371.597 123.948C371.413 124.439 371.259 124.96 371.137 125.512C371.014 126.064 370.953 126.555 370.953 126.984V147.776H400.393V126.984C400.393 126.555 400.331 126.064 400.209 125.512C400.086 124.96 399.902 124.439 399.657 123.948C399.411 123.457 399.105 123.059 398.737 122.752C398.369 122.384 397.939 122.2 397.449 122.2H396.989V121.28H409.869V122.2H409.409C408.918 122.2 408.489 122.384 408.121 122.752C407.753 123.059 407.446 123.457 407.201 123.948C407.017 124.439 406.863 124.96 406.741 125.512C406.618 126.064 406.557 126.555 406.557 126.984V176.02C406.557 176.511 406.618 177.063 406.741 177.676C406.925 178.228 407.139 178.749 407.385 179.24C407.63 179.731 407.906 180.16 408.213 180.528C408.581 180.896 408.979 181.08 409.409 181.08H409.869V182H396.989V181.08ZM430.023 181.08H430.483V182H417.511V181.08H417.971C418.4 181.08 418.799 180.896 419.167 180.528C419.535 180.16 419.842 179.731 420.087 179.24C420.394 178.749 420.608 178.228 420.731 177.676C420.854 177.063 420.915 176.511 420.915 176.02V126.984C420.915 126.555 420.854 126.064 420.731 125.512C420.608 124.96 420.394 124.439 420.087 123.948C419.842 123.457 419.535 123.059 419.167 122.752C418.799 122.384 418.4 122.2 417.971 122.2H417.511V121.28H433.519C439.652 121.28 444.375 122.476 447.687 124.868C451.06 127.26 452.747 130.787 452.747 135.448C452.747 137.779 452.348 139.833 451.551 141.612C450.815 143.329 449.803 144.832 448.515 146.12C447.227 147.347 445.694 148.359 443.915 149.156C442.198 149.892 440.358 150.444 438.395 150.812L445.019 160.932C446.614 163.385 448.239 165.808 449.895 168.2C451.551 170.531 453.176 172.953 454.771 175.468C455.2 176.081 455.66 176.725 456.151 177.4C456.703 178.075 457.255 178.688 457.807 179.24C458.42 179.792 459.034 180.252 459.647 180.62C460.322 180.927 460.996 181.08 461.671 181.08V182H457.715C455.262 182 453.238 181.417 451.643 180.252C450.11 179.025 448.822 177.615 447.779 176.02C445.019 171.972 442.259 167.863 439.499 163.692C436.8 159.521 434.102 155.412 431.403 151.364C430.728 151.303 429.992 151.241 429.195 151.18C428.459 151.057 427.754 150.935 427.079 150.812V176.02C427.079 176.511 427.14 177.063 427.263 177.676C427.386 178.228 427.57 178.749 427.815 179.24C428.122 179.731 428.428 180.16 428.735 180.528C429.103 180.896 429.532 181.08 430.023 181.08ZM427.079 124.408V147.776H427.539C428.03 147.837 428.796 147.899 429.839 147.96C430.943 147.96 432.292 147.96 433.887 147.96C435.175 147.96 436.524 147.776 437.935 147.408C439.407 146.979 440.756 146.304 441.983 145.384C443.271 144.403 444.314 143.145 445.111 141.612C445.97 140.079 446.399 138.147 446.399 135.816C446.399 133.485 445.939 131.584 445.019 130.112C444.16 128.64 442.934 127.475 441.339 126.616C439.806 125.757 437.935 125.175 435.727 124.868C433.519 124.561 431.096 124.408 428.459 124.408H427.079ZM467.563 121.28H480.719V122.2H480.259C479.829 122.2 479.431 122.384 479.063 122.752C478.695 123.059 478.388 123.457 478.143 123.948C477.897 124.377 477.683 124.899 477.499 125.512C477.376 126.064 477.315 126.555 477.315 126.984V176.02C477.315 176.511 477.376 177.063 477.499 177.676C477.621 178.228 477.805 178.749 478.051 179.24C478.357 179.731 478.664 180.16 478.971 180.528C479.339 180.896 479.768 181.08 480.259 181.08H480.719V182H467.563V181.08H468.023C468.513 181.08 468.943 180.927 469.311 180.62C469.679 180.252 469.985 179.823 470.231 179.332C470.537 178.78 470.752 178.228 470.875 177.676C470.997 177.063 471.059 176.511 471.059 176.02V126.984C471.059 126.555 470.997 126.064 470.875 125.512C470.752 124.96 470.537 124.439 470.231 123.948C469.985 123.457 469.679 123.059 469.311 122.752C468.943 122.384 468.513 122.2 468.023 122.2H467.563V121.28ZM526.826 165.716C526.826 168.783 526.212 171.42 524.986 173.628C523.759 175.775 522.164 177.523 520.202 178.872C518.3 180.221 516.123 181.203 513.67 181.816C511.278 182.429 508.886 182.736 506.494 182.736C504.04 182.736 501.924 182.491 500.146 182C498.367 181.509 496.742 181.049 495.27 180.62C494.288 180.313 493.399 180.068 492.602 179.884C491.804 179.639 491.007 179.516 490.21 179.516V169.028H491.13C491.13 171.359 491.712 173.229 492.878 174.64C494.104 175.989 495.515 177.032 497.11 177.768C498.704 178.504 500.299 178.995 501.894 179.24C503.488 179.424 504.654 179.516 505.39 179.516C508.027 179.516 510.296 179.148 512.198 178.412C514.099 177.615 515.663 176.603 516.89 175.376C518.116 174.088 519.006 172.677 519.558 171.144C520.171 169.611 520.478 168.047 520.478 166.452C520.478 164.428 520.048 162.741 519.19 161.392C518.331 159.981 517.196 158.755 515.786 157.712C514.436 156.669 512.872 155.78 511.094 155.044C509.315 154.308 507.506 153.572 505.666 152.836C503.58 152.039 501.526 151.211 499.502 150.352C497.478 149.493 495.668 148.451 494.074 147.224C492.479 145.936 491.191 144.433 490.21 142.716C489.228 140.937 488.738 138.76 488.738 136.184C488.738 133.485 489.259 131.155 490.302 129.192C491.344 127.168 492.724 125.512 494.442 124.224C496.22 122.936 498.214 121.985 500.422 121.372C502.691 120.697 504.991 120.36 507.322 120.36C508.916 120.36 510.419 120.483 511.83 120.728C513.24 120.912 514.59 121.157 515.878 121.464C516.92 121.709 517.932 121.924 518.914 122.108C519.895 122.231 520.846 122.292 521.766 122.292V131.768H520.846C520.723 128.579 519.466 126.432 517.074 125.328C514.682 124.163 511.37 123.58 507.138 123.58C504.684 123.58 502.66 124.009 501.066 124.868C499.532 125.665 498.306 126.677 497.386 127.904C496.466 129.069 495.822 130.357 495.454 131.768C495.147 133.117 494.994 134.313 494.994 135.356C494.994 137.073 495.362 138.545 496.098 139.772C496.895 140.999 497.938 142.072 499.226 142.992C500.514 143.912 501.986 144.74 503.642 145.476C505.359 146.212 507.138 146.917 508.978 147.592C511.063 148.389 513.179 149.248 515.326 150.168C517.472 151.088 519.374 152.223 521.03 153.572C522.747 154.921 524.127 156.577 525.17 158.54C526.274 160.503 526.826 162.895 526.826 165.716ZM554.529 181.08H554.989V182H541.925V181.08H542.385C542.876 181.08 543.305 180.896 543.673 180.528C544.041 180.16 544.348 179.731 544.593 179.24C544.9 178.749 545.115 178.228 545.237 177.676C545.36 177.063 545.421 176.511 545.421 176.02V124.684H534.749C533.768 124.684 532.909 124.899 532.173 125.328C531.437 125.757 530.824 126.309 530.333 126.984C529.843 127.597 529.475 128.303 529.229 129.1C528.984 129.836 528.861 130.572 528.861 131.308H527.941V121.28H569.249V131.308H568.329C568.329 130.572 568.207 129.836 567.961 129.1C567.716 128.303 567.348 127.597 566.857 126.984C566.367 126.309 565.753 125.757 565.017 125.328C564.281 124.899 563.423 124.684 562.441 124.684H551.585V176.02C551.585 176.511 551.647 177.063 551.769 177.676C551.892 178.228 552.076 178.749 552.321 179.24C552.628 179.731 552.935 180.16 553.241 180.528C553.609 180.896 554.039 181.08 554.529 181.08ZM574.656 121.28H587.812V122.2H587.352C586.923 122.2 586.524 122.384 586.156 122.752C585.788 123.059 585.482 123.457 585.236 123.948C584.991 124.377 584.776 124.899 584.592 125.512C584.47 126.064 584.408 126.555 584.408 126.984V176.02C584.408 176.511 584.47 177.063 584.592 177.676C584.715 178.228 584.899 178.749 585.144 179.24C585.451 179.731 585.758 180.16 586.064 180.528C586.432 180.896 586.862 181.08 587.352 181.08H587.812V182H574.656V181.08H575.116C575.607 181.08 576.036 180.927 576.404 180.62C576.772 180.252 577.079 179.823 577.324 179.332C577.631 178.78 577.846 178.228 577.968 177.676C578.091 177.063 578.152 176.511 578.152 176.02V126.984C578.152 126.555 578.091 126.064 577.968 125.512C577.846 124.96 577.631 124.439 577.324 123.948C577.079 123.457 576.772 123.059 576.404 122.752C576.036 122.384 575.607 122.2 575.116 122.2H574.656V121.28ZM631.804 181.08H632.264C633.736 181.08 634.472 180.405 634.472 179.056C634.472 178.565 634.38 178.044 634.196 177.492L625.916 155.136H609.816L601.812 177.124C601.628 177.615 601.536 178.075 601.536 178.504C601.536 179.301 601.75 179.945 602.18 180.436C602.609 180.865 603.069 181.08 603.56 181.08H604.02V182H593.808V181.08H594.268C595.065 181.08 595.832 180.62 596.568 179.7C597.365 178.719 598.009 177.584 598.5 176.296L619.568 120.176L640.176 175.744C640.605 176.971 641.188 178.167 641.924 179.332C642.721 180.497 643.733 181.08 644.96 181.08H645.42V182H631.804V181.08ZM610.736 152.008H624.904L617.82 132.78L610.736 152.008ZM660.585 181.08H661.045V182H650.833V181.08H651.293C651.722 181.08 652.121 180.896 652.489 180.528C652.918 180.16 653.256 179.731 653.501 179.24C653.746 178.749 653.93 178.228 654.053 177.676C654.237 177.063 654.329 176.511 654.329 176.02V126.984C654.329 126.555 654.268 126.064 654.145 125.512C654.084 124.96 653.93 124.439 653.685 123.948C653.44 123.457 653.102 123.059 652.673 122.752C652.244 122.384 651.722 122.2 651.109 122.2H650.649V121.28H659.941L693.337 173.904V126.984C693.337 126.555 693.245 126.064 693.061 125.512C692.938 124.96 692.724 124.439 692.417 123.948C692.172 123.457 691.865 123.059 691.497 122.752C691.129 122.384 690.7 122.2 690.209 122.2H689.749V121.28H700.053V122.2H699.593C699.102 122.2 698.673 122.384 698.305 122.752C697.937 123.059 697.6 123.457 697.293 123.948C697.048 124.439 696.864 124.96 696.741 125.512C696.618 126.064 696.557 126.555 696.557 126.984V182H690.853L657.549 129.192V176.02C657.549 176.511 657.61 177.063 657.733 177.676C657.856 178.228 658.04 178.749 658.285 179.24C658.592 179.731 658.929 180.16 659.297 180.528C659.665 180.896 660.094 181.08 660.585 181.08ZM27.416 273.08H27.876V274H14.812V273.08H15.272C15.7627 273.08 16.192 272.896 16.56 272.528C16.928 272.16 17.2347 271.731 17.48 271.24C17.7867 270.749 18.0013 270.228 18.124 269.676C18.2467 269.063 18.308 268.511 18.308 268.02V216.684H7.636C6.65467 216.684 5.796 216.899 5.06 217.328C4.324 217.757 3.71067 218.309 3.22 218.984C2.72933 219.597 2.36133 220.303 2.116 221.1C1.87067 221.836 1.748 222.572 1.748 223.308H0.828V213.28H42.136V223.308H41.216C41.216 222.572 41.0933 221.836 40.848 221.1C40.6027 220.303 40.2347 219.597 39.744 218.984C39.2533 218.309 38.64 217.757 37.904 217.328C37.168 216.899 36.3093 216.684 35.328 216.684H24.472V268.02C24.472 268.511 24.5333 269.063 24.656 269.676C24.7787 270.228 24.9627 270.749 25.208 271.24C25.5147 271.731 25.8213 272.16 26.128 272.528C26.496 272.896 26.9253 273.08 27.416 273.08ZM83.8832 273.08H84.3432C84.7725 273.08 85.1712 272.927 85.5392 272.62C85.9072 272.252 86.2138 271.823 86.4592 271.332C86.7658 270.78 86.9805 270.228 87.1032 269.676C87.2258 269.063 87.2872 268.511 87.2872 268.02V242.996H57.8472V268.02C57.8472 268.511 57.9085 269.063 58.0312 269.676C58.1538 270.228 58.3378 270.749 58.5832 271.24C58.8285 271.731 59.1045 272.16 59.4112 272.528C59.7792 272.896 60.2085 273.08 60.6992 273.08H61.1592V274H48.2792V273.08H48.7392C49.1685 273.08 49.5672 272.927 49.9352 272.62C50.3032 272.252 50.6098 271.823 50.8552 271.332C51.1618 270.78 51.3765 270.228 51.4992 269.676C51.6218 269.063 51.6832 268.511 51.6832 268.02V218.984C51.6832 218.555 51.6218 218.064 51.4992 217.512C51.3765 216.96 51.1925 216.439 50.9472 215.948C50.7018 215.457 50.3952 215.059 50.0272 214.752C49.6592 214.384 49.2298 214.2 48.7392 214.2H48.2792V213.28H61.1592V214.2H60.6992C60.2085 214.2 59.7792 214.384 59.4112 214.752C59.0432 215.059 58.7365 215.457 58.4912 215.948C58.3072 216.439 58.1538 216.96 58.0312 217.512C57.9085 218.064 57.8472 218.555 57.8472 218.984V239.776H87.2872V218.984C87.2872 218.555 87.2258 218.064 87.1032 217.512C86.9805 216.96 86.7965 216.439 86.5512 215.948C86.3058 215.457 85.9992 215.059 85.6312 214.752C85.2632 214.384 84.8338 214.2 84.3432 214.2H83.8832V213.28H96.7632V214.2H96.3032C95.8125 214.2 95.3832 214.384 95.0152 214.752C94.6472 215.059 94.3405 215.457 94.0952 215.948C93.9112 216.439 93.7578 216.96 93.6352 217.512C93.5125 218.064 93.4512 218.555 93.4512 218.984V268.02C93.4512 268.511 93.5125 269.063 93.6352 269.676C93.8192 270.228 94.0338 270.749 94.2792 271.24C94.5245 271.731 94.8005 272.16 95.1072 272.528C95.4752 272.896 95.8738 273.08 96.3032 273.08H96.7632V274H83.8832V273.08ZM104.406 273.08H104.866C105.356 273.08 105.786 272.927 106.154 272.62C106.522 272.252 106.828 271.823 107.074 271.332C107.38 270.841 107.595 270.32 107.718 269.768C107.902 269.216 107.994 268.695 107.994 268.204V218.984C107.994 218.555 107.902 218.064 107.718 217.512C107.595 216.96 107.38 216.439 107.074 215.948C106.828 215.457 106.522 215.059 106.154 214.752C105.786 214.384 105.356 214.2 104.866 214.2H104.406V213.28H139.826V221.836H138.906C138.783 220.425 138.231 219.199 137.25 218.156C136.268 217.052 134.735 216.5 132.65 216.5H114.158V239.776H129.43C130.84 239.776 132.006 239.347 132.926 238.488C133.907 237.629 134.398 236.617 134.398 235.452H135.318V246.952H134.398C134.398 245.848 133.938 244.897 133.018 244.1C132.098 243.303 130.902 242.904 129.43 242.904H114.158V270.78H134.306C135.471 270.78 136.483 270.504 137.342 269.952C138.2 269.4 138.906 268.756 139.458 268.02C140.071 267.223 140.5 266.395 140.746 265.536C141.052 264.616 141.206 263.849 141.206 263.236H142.126V274H104.406V273.08ZM161.57 273.08H162.03V274H149.058V273.08H149.518C149.947 273.08 150.346 272.896 150.714 272.528C151.082 272.16 151.389 271.731 151.634 271.24C151.941 270.749 152.155 270.228 152.278 269.676C152.401 269.063 152.462 268.511 152.462 268.02V218.984C152.462 218.555 152.401 218.064 152.278 217.512C152.155 216.96 151.941 216.439 151.634 215.948C151.389 215.457 151.082 215.059 150.714 214.752C150.346 214.384 149.947 214.2 149.518 214.2H149.058V213.28H165.066C171.199 213.28 175.922 214.476 179.234 216.868C182.607 219.26 184.294 222.787 184.294 227.448C184.294 229.779 183.895 231.833 183.098 233.612C182.362 235.329 181.35 236.832 180.062 238.12C178.774 239.347 177.241 240.359 175.462 241.156C173.745 241.892 171.905 242.444 169.942 242.812L176.566 252.932C178.161 255.385 179.786 257.808 181.442 260.2C183.098 262.531 184.723 264.953 186.318 267.468C186.747 268.081 187.207 268.725 187.698 269.4C188.25 270.075 188.802 270.688 189.354 271.24C189.967 271.792 190.581 272.252 191.194 272.62C191.869 272.927 192.543 273.08 193.218 273.08V274H189.262C186.809 274 184.785 273.417 183.19 272.252C181.657 271.025 180.369 269.615 179.326 268.02C176.566 263.972 173.806 259.863 171.046 255.692C168.347 251.521 165.649 247.412 162.95 243.364C162.275 243.303 161.539 243.241 160.742 243.18C160.006 243.057 159.301 242.935 158.626 242.812V268.02C158.626 268.511 158.687 269.063 158.81 269.676C158.933 270.228 159.117 270.749 159.362 271.24C159.669 271.731 159.975 272.16 160.282 272.528C160.65 272.896 161.079 273.08 161.57 273.08ZM158.626 216.408V239.776H159.086C159.577 239.837 160.343 239.899 161.386 239.96C162.49 239.96 163.839 239.96 165.434 239.96C166.722 239.96 168.071 239.776 169.482 239.408C170.954 238.979 172.303 238.304 173.53 237.384C174.818 236.403 175.861 235.145 176.658 233.612C177.517 232.079 177.946 230.147 177.946 227.816C177.946 225.485 177.486 223.584 176.566 222.112C175.707 220.64 174.481 219.475 172.886 218.616C171.353 217.757 169.482 217.175 167.274 216.868C165.066 216.561 162.643 216.408 160.006 216.408H158.626ZM233.886 273.08H234.346C235.818 273.08 236.554 272.405 236.554 271.056C236.554 270.565 236.462 270.044 236.278 269.492L227.998 247.136H211.898L203.894 269.124C203.71 269.615 203.618 270.075 203.618 270.504C203.618 271.301 203.832 271.945 204.262 272.436C204.691 272.865 205.151 273.08 205.642 273.08H206.102V274H195.89V273.08H196.35C197.147 273.08 197.914 272.62 198.65 271.7C199.447 270.719 200.091 269.584 200.582 268.296L221.65 212.176L242.258 267.744C242.687 268.971 243.27 270.167 244.006 271.332C244.803 272.497 245.815 273.08 247.042 273.08H247.502V274H233.886V273.08ZM212.818 244.008H226.986L219.902 224.78L212.818 244.008ZM252.915 213.28H265.979C272.787 213.28 277.939 214.599 281.435 217.236C284.993 219.812 286.771 223.492 286.771 228.276C286.771 230.852 286.158 233.152 284.931 235.176C283.705 237.2 282.079 238.917 280.055 240.328C278.093 241.677 275.854 242.72 273.339 243.456C270.886 244.192 268.433 244.56 265.979 244.56H262.483V268.02C262.483 268.511 262.545 269.063 262.667 269.676C262.79 270.228 262.974 270.749 263.219 271.24C263.526 271.731 263.833 272.16 264.139 272.528C264.507 272.896 264.937 273.08 265.427 273.08H265.887V274H252.915V273.08H253.375C253.805 273.08 254.203 272.896 254.571 272.528C254.939 272.16 255.246 271.731 255.491 271.24C255.737 270.749 255.921 270.228 256.043 269.676C256.166 269.063 256.227 268.511 256.227 268.02V218.984C256.227 218.125 255.982 217.144 255.491 216.04C255.001 214.936 254.295 214.323 253.375 214.2H252.915V213.28ZM262.483 216.5V241.34H265.243C267.697 241.34 269.874 241.003 271.775 240.328C273.738 239.653 275.363 238.764 276.651 237.66C277.939 236.556 278.921 235.299 279.595 233.888C280.27 232.477 280.607 231.036 280.607 229.564C280.607 227.785 280.301 226.129 279.687 224.596C279.135 223.001 278.185 221.621 276.835 220.456C275.547 219.229 273.83 218.279 271.683 217.604C269.537 216.868 266.899 216.5 263.771 216.5H262.483ZM294.973 213.28H308.129V214.2H307.669C307.24 214.2 306.841 214.384 306.473 214.752C306.105 215.059 305.798 215.457 305.553 215.948C305.308 216.377 305.093 216.899 304.909 217.512C304.786 218.064 304.725 218.555 304.725 218.984V268.02C304.725 268.511 304.786 269.063 304.909 269.676C305.032 270.228 305.216 270.749 305.461 271.24C305.768 271.731 306.074 272.16 306.381 272.528C306.749 272.896 307.178 273.08 307.669 273.08H308.129V274H294.973V273.08H295.433C295.924 273.08 296.353 272.927 296.721 272.62C297.089 272.252 297.396 271.823 297.641 271.332C297.948 270.78 298.162 270.228 298.285 269.676C298.408 269.063 298.469 268.511 298.469 268.02V218.984C298.469 218.555 298.408 218.064 298.285 217.512C298.162 216.96 297.948 216.439 297.641 215.948C297.396 215.457 297.089 215.059 296.721 214.752C296.353 214.384 295.924 214.2 295.433 214.2H294.973V213.28ZM354.236 257.716C354.236 260.783 353.623 263.42 352.396 265.628C351.169 267.775 349.575 269.523 347.612 270.872C345.711 272.221 343.533 273.203 341.08 273.816C338.688 274.429 336.296 274.736 333.904 274.736C331.451 274.736 329.335 274.491 327.556 274C325.777 273.509 324.152 273.049 322.68 272.62C321.699 272.313 320.809 272.068 320.012 271.884C319.215 271.639 318.417 271.516 317.62 271.516V261.028H318.54C318.54 263.359 319.123 265.229 320.288 266.64C321.515 267.989 322.925 269.032 324.52 269.768C326.115 270.504 327.709 270.995 329.304 271.24C330.899 271.424 332.064 271.516 332.8 271.516C335.437 271.516 337.707 271.148 339.608 270.412C341.509 269.615 343.073 268.603 344.3 267.376C345.527 266.088 346.416 264.677 346.968 263.144C347.581 261.611 347.888 260.047 347.888 258.452C347.888 256.428 347.459 254.741 346.6 253.392C345.741 251.981 344.607 250.755 343.196 249.712C341.847 248.669 340.283 247.78 338.504 247.044C336.725 246.308 334.916 245.572 333.076 244.836C330.991 244.039 328.936 243.211 326.912 242.352C324.888 241.493 323.079 240.451 321.484 239.224C319.889 237.936 318.601 236.433 317.62 234.716C316.639 232.937 316.148 230.76 316.148 228.184C316.148 225.485 316.669 223.155 317.712 221.192C318.755 219.168 320.135 217.512 321.852 216.224C323.631 214.936 325.624 213.985 327.832 213.372C330.101 212.697 332.401 212.36 334.732 212.36C336.327 212.36 337.829 212.483 339.24 212.728C340.651 212.912 342 213.157 343.288 213.464C344.331 213.709 345.343 213.924 346.324 214.108C347.305 214.231 348.256 214.292 349.176 214.292V223.768H348.256C348.133 220.579 346.876 218.432 344.484 217.328C342.092 216.163 338.78 215.58 334.548 215.58C332.095 215.58 330.071 216.009 328.476 216.868C326.943 217.665 325.716 218.677 324.796 219.904C323.876 221.069 323.232 222.357 322.864 223.768C322.557 225.117 322.404 226.313 322.404 227.356C322.404 229.073 322.772 230.545 323.508 231.772C324.305 232.999 325.348 234.072 326.636 234.992C327.924 235.912 329.396 236.74 331.052 237.476C332.769 238.212 334.548 238.917 336.388 239.592C338.473 240.389 340.589 241.248 342.736 242.168C344.883 243.088 346.784 244.223 348.44 245.572C350.157 246.921 351.537 248.577 352.58 250.54C353.684 252.503 354.236 254.895 354.236 257.716ZM381.939 273.08H382.399V274H369.335V273.08H369.795C370.286 273.08 370.715 272.896 371.083 272.528C371.451 272.16 371.758 271.731 372.003 271.24C372.31 270.749 372.525 270.228 372.647 269.676C372.77 269.063 372.831 268.511 372.831 268.02V216.684H362.159C361.178 216.684 360.319 216.899 359.583 217.328C358.847 217.757 358.234 218.309 357.743 218.984C357.253 219.597 356.885 220.303 356.639 221.1C356.394 221.836 356.271 222.572 356.271 223.308H355.351V213.28H396.659V223.308H395.739C395.739 222.572 395.617 221.836 395.371 221.1C395.126 220.303 394.758 219.597 394.267 218.984C393.777 218.309 393.163 217.757 392.427 217.328C391.691 216.899 390.833 216.684 389.851 216.684H378.995V268.02C378.995 268.511 379.057 269.063 379.179 269.676C379.302 270.228 379.486 270.749 379.731 271.24C380.038 271.731 380.345 272.16 380.651 272.528C381.019 272.896 381.449 273.08 381.939 273.08Z" fill="#F5F7F5"/>
<g clip-path="url(#clip0_231_771)">
<path d="M682.715 21.5881C682.715 22.7464 682.323 23.7148 681.538 24.5066C680.753 25.2919 679.785 25.6845 678.621 25.6845C677.457 25.6845 676.496 25.2919 675.705 24.5066C674.92 23.7214 674.528 22.7464 674.528 21.5881C674.528 20.4299 674.92 19.4548 675.705 18.6696C676.489 17.8843 677.464 17.4917 678.621 17.4917C679.779 17.4917 680.753 17.8843 681.538 18.6696C682.323 19.4548 682.715 20.4233 682.715 21.5881Z" fill="#C8823A"/>
<path d="M670.336 21.5881C670.336 22.7464 669.943 23.7148 669.159 24.5066C668.374 25.2919 667.406 25.6845 666.242 25.6845C665.078 25.6845 664.117 25.2919 663.325 24.5066C662.541 23.7214 662.148 22.7464 662.148 21.5881C662.148 20.4299 662.541 19.4548 663.325 18.6696C664.11 17.8843 665.084 17.4917 666.242 17.4917C667.399 17.4917 668.374 17.8843 669.159 18.6696C669.943 19.4548 670.336 20.4233 670.336 21.5881Z" fill="#C8823A"/>
<path d="M676.529 11.2751C676.529 12.4334 676.136 13.4019 675.352 14.1937C674.567 14.9789 673.599 15.3715 672.435 15.3715C671.271 15.3715 670.31 14.9789 669.518 14.1937C668.734 13.4084 668.341 12.4334 668.341 11.2751C668.341 10.1169 668.734 9.14185 669.518 8.35659C670.303 7.57134 671.277 7.17871 672.435 7.17871C673.592 7.17871 674.567 7.57134 675.352 8.35659C676.136 9.14185 676.529 10.1103 676.529 11.2751Z" fill="#C8823A"/>
<path d="M678.17 31.5737V42.2728C678.17 42.2728 678.17 42.3055 678.17 42.3186C678.144 51.9969 675.803 59.182 673.599 62.8596C671.977 65.5753 667.857 67.9048 662.927 67.9441V70.6009C663.005 70.6009 663.077 70.614 663.155 70.614C670.041 70.614 675.646 68.2648 679.949 63.5729C684.186 58.9529 686.331 51.866 686.397 42.3252C686.397 42.2794 686.41 42.2401 686.41 42.1943V31.5737H678.164H678.17Z" fill="#C8823A"/>
<path d="M697.435 31.5737V62.7418C697.435 62.7418 697.435 62.7745 697.435 62.7876C697.409 72.4659 695.062 79.6509 692.864 83.3286C691.243 86.0442 687.123 88.3738 682.192 88.4131C677.261 88.3738 673.148 86.0442 671.519 83.3286C669.322 79.6509 666.974 72.4659 666.948 62.7876C666.948 62.768 666.948 62.7549 666.948 62.7418V31.5737H658.702V62.6633C658.702 62.7091 658.715 62.7483 658.715 62.7941C658.787 72.335 660.925 79.4285 665.163 84.0418C669.472 88.7337 675.07 91.0829 681.956 91.0829C682.035 91.0829 682.107 91.0699 682.185 91.0699C682.264 91.0699 682.336 91.0829 682.414 91.0829C689.3 91.0829 694.905 88.7337 699.208 84.0418C703.445 79.4219 705.59 72.335 705.656 62.7941C705.656 62.7483 705.669 62.7091 705.669 62.6633V31.5737H697.422H697.435Z" fill="#F5F7F5"/>
</g>
<defs>
<clipPath id="clip0_231_771">
<rect width="252" height="180" fill="white" transform="translate(510)"/>
</clipPath>
</defs>
</svg>
