<svg width="49" height="80" viewBox="0 0 49 80" fill="none" xmlns="http://www.w3.org/2000/svg">
<g clip-path="url(#clip0_583_149)">
<path d="M48.2616 36.0224C48.0266 30.366 46.6556 24.9705 44.1896 19.9854C42.2235 16.0098 39.5618 12.2923 36.2791 8.93494C30.7029 3.23103 25.2789 0.547564 25.0507 0.436149L24.1566 0L23.2626 0.436149C23.0343 0.547564 17.6103 3.23103 12.0328 8.93494C8.7501 12.2923 6.08837 16.0098 4.1223 19.9854C1.65759 24.9705 0.286641 30.3674 0.0515829 36.0224C-0.191628 41.8648 0.427948 47.1 1.89536 51.581C3.21876 55.6246 5.22966 59.0717 7.87237 61.8258C11.6673 65.7824 16.772 68.2403 22.1199 68.7417V77.9619C22.1199 79.0869 23.0316 79.9987 24.1566 79.9987C25.2816 79.9987 26.1933 79.0869 26.1933 77.9619V38.8485C26.1933 37.7235 25.2816 36.8118 24.1566 36.8118C23.0316 36.8118 22.1199 37.7235 22.1199 38.8485V64.6397C19.2082 64.2932 14.6999 63.0581 10.8126 59.0064C8.59657 56.6966 6.89953 53.7713 5.76771 50.3134C4.45383 46.297 3.89947 41.5455 4.1223 36.1908C4.33291 31.1378 5.54896 26.3184 7.7365 21.8686C9.49604 18.2884 11.8887 14.9296 14.8467 11.8847C18.6701 7.94851 22.48 5.54493 24.1593 4.5816C25.821 5.53134 29.5602 7.88736 33.3687 11.7815C36.3511 14.8318 38.7642 18.1987 40.54 21.7898C42.752 26.2627 43.9817 31.1065 44.1923 36.1908C44.4151 41.5442 43.8621 46.297 42.5469 50.3134C41.4151 53.7713 39.718 56.6953 37.502 59.0064C34.9747 61.6424 32.1853 63.084 29.7409 63.8666V68.1167C33.7641 67.065 37.4965 64.8965 40.4409 61.8271C43.0836 59.0717 45.0945 55.6246 46.4179 51.5824C47.8839 47.1014 48.5049 41.8662 48.2616 36.0237V36.0224Z" fill="#F5F7F5"/>
</g>
<defs>
<clipPath id="clip0_583_149">
<rect width="48.3133" height="80" fill="white"/>
</clipPath>
</defs>
</svg>
