<svg width="64" height="80" viewBox="0 0 64 80" fill="none" xmlns="http://www.w3.org/2000/svg">
<g clip-path="url(#clip0_583_259)">
<path d="M60.0125 79.3882H3.98747C1.78896 79.3882 0 77.5992 0 75.4007V32.3776C0 30.1791 1.78896 28.3901 3.98747 28.3901H60.0125C62.211 28.3901 64 30.1791 64 32.3776V75.4007C64 77.5992 62.211 79.3882 60.0125 79.3882ZM4.4084 74.9798H59.5916V32.7985H4.4084V74.9798Z" fill="#004147"/>
<path d="M12.8924 24.0002C12.8882 23.8409 12.8867 23.6816 12.8867 23.5224C12.8867 12.982 21.4618 4.4084 32.0007 4.4084C42.5396 4.4084 51.1147 12.9834 51.1147 23.5224C51.1147 23.6816 51.1118 23.8409 51.109 24.0002H55.5174C55.5202 23.8409 55.5231 23.6816 55.5231 23.5224C55.5231 10.5517 44.9713 0 32.0007 0C19.0301 0 8.47833 10.5517 8.47833 23.5224C8.47833 23.6816 8.48118 23.8409 8.48402 24.0002H12.8924Z" fill="#004147"/>
<path d="M36.3082 50.6824C36.3082 48.3033 34.3798 46.375 32.0007 46.375C29.6216 46.375 27.6933 48.3033 27.6933 50.6824C27.6933 52.2567 28.538 53.6318 29.7965 54.3841V61.4048H34.2049V54.3841C35.4649 53.6318 36.3082 52.2567 36.3082 50.6824Z" fill="#004147"/>
</g>
<defs>
<clipPath id="clip0_583_259">
<rect width="64" height="79.3882" fill="white"/>
</clipPath>
</defs>
</svg>
