<svg width="80" height="61" viewBox="0 0 80 61" fill="none" xmlns="http://www.w3.org/2000/svg">
<g clip-path="url(#clip0_583_182)">
<path d="M76.8132 9.61054H68.97C67.4755 9.61054 65.9229 10.7334 65.8227 13.2415C65.7423 15.2764 65.3206 16.9687 64.6049 18.1351C63.7891 19.4636 62.6069 20.083 60.8843 20.083C60.8659 20.083 60.8488 20.083 60.8303 20.083C59.5651 20.0738 55.714 20.0448 55.6929 13.5671C55.6863 11.5361 54.3222 10.0033 52.5193 10.0033H32.0712C31.7641 6.91664 30.7282 4.4626 28.9898 2.70181C27.2448 0.934432 24.8962 0 22.1957 0C19.4952 0 17.1506 0.93575 15.4109 2.70708C13.6843 4.46392 12.6511 6.91664 12.3348 10.0033H3.18682C1.42998 10.0033 0 11.5176 0 13.3786V57.1914C0 59.0524 1.42998 60.5654 3.18682 60.5654H76.8132C78.57 60.5654 80 59.0511 80 57.1914V12.9845C80 11.1236 78.57 9.61054 76.8132 9.61054ZM4.08567 14.089H13.1756C14.8402 14.089 16.2359 12.713 16.3532 10.9562C16.7328 5.27842 19.7404 4.08567 22.1957 4.08567C25.6896 4.08567 27.768 6.52125 28.0488 10.943C28.1608 12.7064 29.5565 14.089 31.2277 14.089H39.2053V27.0774C36.4007 27.2923 34.0046 28.2346 32.2386 29.8254C30.3829 31.4965 29.3615 33.7582 29.3615 36.1951C29.3615 40.543 32.7394 45.1018 39.2053 45.7502V56.4784H4.08567V14.089ZM75.9143 56.4797H43.2909V44.9542C43.2909 43.2277 41.9414 41.8109 40.2188 41.7305C35.5664 41.5104 33.4471 38.7071 33.4471 36.1964C33.4471 33.6857 35.5176 31.2356 40.1437 31.1196C41.9084 31.0761 43.2909 29.658 43.2909 27.8919V14.0876H51.6165C51.8102 20.369 55.2145 24.1252 60.8 24.1674C60.8277 24.1674 60.8554 24.1674 60.883 24.1674C64.0316 24.1674 66.5226 22.8204 68.087 20.2702C69.144 18.5476 69.7502 16.3374 69.8913 13.6949H75.9143V56.4784V56.4797Z" fill="#004147"/>
</g>
<defs>
<clipPath id="clip0_583_182">
<rect width="80" height="60.5654" fill="white"/>
</clipPath>
</defs>
</svg>
