<svg width="38" height="10" viewBox="0 0 38 10" fill="none" xmlns="http://www.w3.org/2000/svg">
<path id="dot1" d="M23.8187 5.07251C23.8187 6.32164 23.3743 7.37647 22.4998 8.22311C21.6254 9.06974 20.5359 9.5 19.2458 9.5C17.9556 9.5 16.8661 9.06974 15.9917 8.22311C15.1172 7.37647 14.6729 6.32164 14.6729 5.07251C14.6729 3.82337 15.1172 2.76855 15.9917 1.92191C16.8661 1.07528 17.9556 0.64502 19.2458 0.64502C20.5359 0.64502 21.6254 1.0614 22.4998 1.92191C23.3743 2.76855 23.8187 3.82337 23.8187 5.07251Z" fill="#1B4349"/>
<path id="dot2" d="M9.99984 5.07251C9.99984 6.32164 9.55545 7.37647 8.68101 8.22311C7.80656 9.06974 6.71708 9.5 5.42692 9.5C4.13676 9.5 3.04729 9.06974 2.17285 8.22311C1.2984 7.37647 0.854004 6.32164 0.854004 5.07251C0.854004 3.82337 1.2984 2.76855 2.17285 1.92191C3.04729 1.07528 4.13676 0.64502 5.42692 0.64502C6.71708 0.64502 7.80656 1.0614 8.68101 1.92191C9.55545 2.76855 9.99984 3.82337 9.99984 5.07251Z" fill="#1B4349"/>
<path id="dot3" d="M37.9998 4.92749C37.9998 6.17663 37.5554 7.23145 36.681 8.07809C35.8066 8.92472 34.7171 9.35498 33.4269 9.35498C32.1368 9.35498 31.0473 8.92472 30.1728 8.07809C29.2984 7.23145 28.854 6.17663 28.854 4.92749C28.854 3.67836 29.2984 2.62353 30.1728 1.77689C31.0473 0.930258 32.1368 0.5 33.4269 0.5C34.7171 0.5 35.8066 0.916378 36.681 1.77689C37.5554 2.62353 37.9998 3.67836 37.9998 4.92749Z" fill="#1B4349"/>
</svg>
