<svg width="337" height="50" viewBox="0 0 337 50" fill="none" xmlns="http://www.w3.org/2000/svg">
<g clip-path="url(#clip0_511_90)">
<path d="M137.992 41.181C137.992 42.7332 137.682 44.0666 137.054 45.1672C136.433 46.2678 135.629 47.1638 134.648 47.8482C133.667 48.5325 132.56 49.0264 131.325 49.3368C130.09 49.6472 128.87 49.8025 127.656 49.8025C126.443 49.8025 125.335 49.6755 124.432 49.4285C123.529 49.1816 122.704 48.9488 121.956 48.7301C121.455 48.5749 121.01 48.4408 120.601 48.335C120.199 48.2292 119.79 48.1727 119.388 48.1727V42.8602H119.853C119.853 44.0384 120.157 44.9838 120.763 45.6822C121.37 46.3807 122.076 46.9169 122.887 47.2908C123.698 47.6647 124.51 47.9046 125.321 48.0104C126.132 48.1233 126.725 48.1727 127.099 48.1727C128.439 48.1727 129.596 47.9822 130.563 47.5871C131.53 47.1991 132.327 46.6841 132.948 46.0491C133.568 45.4141 134.034 44.7016 134.33 43.9255C134.627 43.1494 134.775 42.3592 134.775 41.5479C134.775 40.5249 134.556 39.6571 134.126 38.9587C133.688 38.2602 133.124 37.6464 132.426 37.1173C131.727 36.5881 130.923 36.1366 130.027 35.7627C129.124 35.3887 128.207 35.0148 127.275 34.6409C126.217 34.2387 125.18 33.8154 124.15 33.3851C123.127 32.9476 122.21 32.4115 121.398 31.7765C120.587 31.1415 119.938 30.3796 119.444 29.4906C118.943 28.6017 118.696 27.5081 118.696 26.2029C118.696 24.8977 118.957 23.6489 119.486 22.633C120.016 21.6241 120.721 20.7916 121.61 20.1355C122.499 19.4864 123.508 18.9925 124.644 18.668C125.78 18.3434 126.937 18.1812 128.115 18.1812C128.926 18.1812 129.681 18.2376 130.401 18.3434C131.113 18.4563 131.798 18.5833 132.454 18.7385C132.983 18.8655 133.498 18.9643 133.992 19.0419C134.486 19.1195 134.972 19.1618 135.438 19.1618V23.9664H134.972C134.909 22.3508 134.267 21.2572 133.053 20.6787C131.84 20.1072 130.154 19.818 128.002 19.818C126.753 19.818 125.73 20.0296 124.94 20.4459C124.143 20.8621 123.515 21.3772 123.042 21.9839C122.577 22.5907 122.252 23.2397 122.083 23.9452C121.913 24.6508 121.829 25.2575 121.829 25.7866C121.829 26.6544 122.026 27.4023 122.414 28.0231C122.802 28.644 123.324 29.1872 123.981 29.6529C124.637 30.1185 125.392 30.5348 126.245 30.9087C127.099 31.2826 128.002 31.6424 128.933 31.9811C129.992 32.3832 131.071 32.8207 132.157 33.2863C133.251 33.7519 134.225 34.3305 135.078 35.0078C135.939 35.6921 136.637 36.5317 137.181 37.5265C137.724 38.5212 137.999 39.7347 137.999 41.1669L137.992 41.181Z" fill="#1B4349"/>
<path d="M155.15 48.9699H155.383V49.4356H148.765V48.9699H148.998C149.245 48.9699 149.464 48.8782 149.654 48.6877C149.838 48.5043 150.007 48.2856 150.141 48.0316C150.282 47.7847 150.381 47.5095 150.444 47.2132C150.508 46.9169 150.536 46.6488 150.536 46.3948V20.3894H145.125C144.624 20.3894 144.194 20.4953 143.82 20.714C143.446 20.9327 143.135 21.2008 142.888 21.5324C142.641 21.8569 142.451 22.2167 142.331 22.6048C142.211 22.9928 142.148 23.3738 142.148 23.7477H141.682V18.668H162.615V23.7477H162.149C162.149 23.3738 162.086 22.9928 161.966 22.6048C161.839 22.2167 161.655 21.8569 161.408 21.5324C161.161 21.2078 160.851 20.9327 160.477 20.714C160.103 20.4953 159.666 20.3894 159.172 20.3894H153.669V46.4089C153.669 46.6558 153.697 46.931 153.76 47.2273C153.824 47.5236 153.923 47.7988 154.064 48.0457C154.205 48.2926 154.36 48.5114 154.529 48.7018C154.699 48.8853 154.91 48.9841 155.157 48.9841L155.15 48.9699Z" fill="#1B4349"/>
<path d="M174.637 48.9699H174.869V49.4356H168.294V48.9699H168.527C168.746 48.9699 168.943 48.8782 169.134 48.6877C169.317 48.5043 169.486 48.2856 169.62 48.0316C169.762 47.7847 169.86 47.5095 169.924 47.2132C169.987 46.9169 170.016 46.6488 170.016 46.3948V21.5535C170.016 21.3348 169.987 21.0879 169.924 20.8057C169.86 20.5235 169.762 20.2625 169.62 20.0155C169.479 19.7686 169.317 19.5569 169.134 19.3876C168.95 19.2183 168.746 19.1336 168.527 19.1336H168.294V18.668H176.408C179.519 18.668 181.918 19.2747 183.611 20.4882C185.304 21.7017 186.151 23.4867 186.151 25.8501C186.151 27.0354 185.953 28.0655 185.565 28.9544C185.177 29.8434 184.655 30.6053 184.006 31.2403C183.35 31.8753 182.581 32.3903 181.699 32.7783C180.817 33.1664 179.872 33.4556 178.877 33.6391L182.235 38.7682C183.046 40.0099 183.865 41.2304 184.704 42.4298C185.544 43.6292 186.369 44.8638 187.174 46.1338C187.392 46.4442 187.632 46.7687 187.893 47.1144C188.154 47.4601 188.437 47.7635 188.733 48.0457C189.029 48.3279 189.34 48.5537 189.664 48.723C189.989 48.8923 190.327 48.977 190.666 48.977V49.4426H188.662C187.421 49.4426 186.398 49.1393 185.607 48.5325C184.817 47.9258 184.154 47.2203 183.625 46.4089C182.228 44.3559 180.838 42.2746 179.455 40.158C178.073 38.0415 176.697 35.9602 175.328 33.9072C174.982 33.8789 174.623 33.8366 174.235 33.7872C173.846 33.7378 173.48 33.6884 173.141 33.6249V46.4019C173.141 46.6488 173.169 46.9239 173.233 47.2203C173.296 47.5166 173.395 47.7917 173.536 48.0387C173.677 48.2856 173.832 48.5043 174.002 48.6948C174.171 48.8782 174.383 48.977 174.63 48.977L174.637 48.9699ZM173.148 20.2483V32.094H173.381C173.628 32.1293 174.023 32.1504 174.573 32.1645C175.116 32.1786 175.794 32.1857 176.598 32.1857C177.247 32.1857 177.946 32.0869 178.672 31.8823C179.399 31.6777 180.083 31.3391 180.725 30.8593C181.36 30.3796 181.889 29.7517 182.313 28.9685C182.729 28.1925 182.941 27.2118 182.941 26.0336C182.941 24.8554 182.715 23.8888 182.263 23.141C181.812 22.3931 181.191 21.8075 180.401 21.3701C179.611 20.9327 178.651 20.6364 177.529 20.4812C176.408 20.326 175.18 20.2483 173.846 20.2483H173.148Z" fill="#1B4349"/>
<path d="M196.599 48.9699H196.832C197.079 48.9699 197.298 48.8853 197.481 48.716C197.665 48.5466 197.834 48.335 197.968 48.0881C198.102 47.8411 198.215 47.573 198.293 47.2979C198.37 47.0157 198.413 46.7546 198.413 46.5077V21.5535C198.413 21.3348 198.37 21.0879 198.293 20.8057C198.215 20.5235 198.109 20.2625 197.968 20.0155C197.827 19.7686 197.665 19.5569 197.481 19.3876C197.298 19.2183 197.079 19.1336 196.832 19.1336H196.599V18.668H214.548V23.0069H214.082C214.019 22.2943 213.736 21.6594 213.243 21.1161C212.742 20.5729 211.966 20.2977 210.914 20.2977H201.545V32.094H209.285C209.997 32.094 210.597 31.8753 211.084 31.4449C211.563 31.0075 211.803 30.4995 211.803 29.9069H212.269V35.7344H211.803C211.803 35.1771 211.57 34.6903 211.105 34.2881C210.639 33.886 210.032 33.6814 209.285 33.6814H201.545V47.8058H211.754C212.347 47.8058 212.855 47.6647 213.292 47.3896C213.729 47.1074 214.089 46.7758 214.386 46.3878C214.682 45.9997 214.901 45.5835 215.035 45.1319C215.176 44.6804 215.246 44.2994 215.246 43.989H215.712V49.4426H196.599V48.977V48.9699Z" fill="#1B4349"/>
<path d="M227.233 48.9699H227.466V49.4356H222.287V48.9699H222.52C222.739 48.9699 222.943 48.8782 223.148 48.6877C223.353 48.5043 223.515 48.2856 223.635 48.0316C223.762 47.7847 223.861 47.5095 223.938 47.2132C224.016 46.9169 224.058 46.6488 224.058 46.3948V21.5535C224.058 21.3348 224.037 21.0879 223.988 20.8057C223.938 20.5235 223.854 20.2625 223.734 20.0155C223.607 19.7686 223.437 19.5569 223.219 19.3876C223 19.2183 222.739 19.1336 222.428 19.1336H222.196V18.668H226.901L243.827 45.3365V21.5535C243.827 21.3348 243.784 21.0879 243.707 20.8057C243.629 20.5235 243.523 20.2625 243.382 20.0155C243.241 19.7686 243.079 19.5569 242.895 19.3876C242.712 19.2183 242.493 19.1336 242.239 19.1336H242.006V18.668H247.227V19.1336H246.995C246.748 19.1336 246.529 19.2183 246.345 19.3876C246.162 19.5569 245.993 19.7686 245.859 20.0155C245.718 20.2625 245.619 20.5305 245.555 20.8057C245.492 21.0879 245.464 21.3348 245.464 21.5535V49.4356H242.571L225.695 22.6753V46.4089C225.695 46.6558 225.723 46.931 225.787 47.2273C225.85 47.5236 225.949 47.7988 226.09 48.0457C226.231 48.2926 226.393 48.5114 226.577 48.7018C226.76 48.8853 226.979 48.9841 227.233 48.9841V48.9699Z" fill="#1B4349"/>
<path d="M274.785 33.2087H281.452V33.6743H281.219C280.972 33.6743 280.753 33.759 280.57 33.9283C280.387 34.0976 280.224 34.3093 280.104 34.5562C279.984 34.8032 279.879 35.0713 279.801 35.3464C279.723 35.6216 279.681 35.8755 279.681 36.0943V48.589C279.124 48.8077 278.482 48.9911 277.769 49.1463C277.057 49.3015 276.309 49.4356 275.533 49.5414C274.757 49.6472 273.966 49.739 273.155 49.7954C272.344 49.8589 271.603 49.8871 270.919 49.8871C268.118 49.8871 265.684 49.4215 263.595 48.4902C261.514 47.5589 259.786 46.3384 258.417 44.8286C257.048 43.3187 256.032 41.6185 255.362 39.7206C254.692 37.8228 254.36 35.9108 254.36 33.9848C254.36 32.0587 254.692 30.1467 255.362 28.2489C256.032 26.3511 257.055 24.6578 258.438 23.1692C259.821 21.6805 261.563 20.4741 263.659 19.5569C265.754 18.6398 268.252 18.1812 271.144 18.1812C272.231 18.1812 273.24 18.2729 274.178 18.4634C275.109 18.6468 275.935 18.8232 276.647 18.9784C277.05 19.0701 277.402 19.1548 277.699 19.2324C277.995 19.31 278.249 19.3523 278.468 19.3523H278.884V24.291H278.418C278.235 23.3244 277.868 22.5483 277.325 21.9627C276.781 21.3701 276.154 20.9186 275.434 20.6082C274.721 20.2977 273.966 20.0861 273.169 19.9802C272.379 19.8744 271.638 19.818 270.954 19.818C268.626 19.818 266.601 20.2272 264.893 21.0526C263.186 21.8781 261.782 22.9434 260.696 24.2486C259.609 25.5538 258.798 27.0213 258.269 28.651C257.74 30.2808 257.479 31.9105 257.479 33.5262C257.479 35.3252 257.817 37.1102 258.501 38.8669C259.186 40.6237 260.145 42.197 261.394 43.5727C262.636 44.9555 264.139 46.0773 265.895 46.931C267.652 47.7847 269.599 48.215 271.744 48.215C272.337 48.215 273.063 48.1445 273.938 48.0034C274.806 47.8623 275.681 47.5448 276.549 47.0509V36.0943C276.549 35.8755 276.513 35.6286 276.457 35.3464C276.4 35.0642 276.295 34.8032 276.154 34.5562C276.012 34.3093 275.85 34.0976 275.667 33.9283C275.483 33.759 275.265 33.6743 275.018 33.6743H274.785V33.2087Z" fill="#1B4349"/>
<path d="M298.66 48.9699H298.892V49.4356H292.275V48.9699H292.507C292.754 48.9699 292.973 48.8782 293.164 48.6877C293.347 48.5043 293.516 48.2856 293.65 48.0316C293.791 47.7847 293.89 47.5095 293.954 47.2132C294.017 46.9169 294.045 46.6488 294.045 46.3948V20.3894H288.634C288.133 20.3894 287.703 20.4953 287.329 20.714C286.955 20.9327 286.645 21.2008 286.398 21.5324C286.151 21.8569 285.96 22.2167 285.84 22.6048C285.72 22.9928 285.657 23.3738 285.657 23.7477H285.191V18.668H306.124V23.7477H305.658C305.658 23.3738 305.595 22.9928 305.475 22.6048C305.348 22.2167 305.164 21.8569 304.917 21.5324C304.671 21.2078 304.36 20.9327 303.986 20.714C303.612 20.4953 303.175 20.3894 302.681 20.3894H297.178V46.4089C297.178 46.6558 297.206 46.931 297.27 47.2273C297.333 47.5236 297.432 47.7988 297.573 48.0457C297.714 48.2926 297.869 48.5114 298.039 48.7018C298.208 48.8853 298.42 48.9841 298.667 48.9841L298.66 48.9699Z" fill="#1B4349"/>
<path d="M330.408 48.9699H330.641C330.859 48.9699 331.057 48.8853 331.247 48.716C331.431 48.5466 331.6 48.3279 331.734 48.0669C331.875 47.8058 331.974 47.5236 332.038 47.2273C332.101 46.931 332.129 46.6629 332.129 46.4089V33.7237H317.208V46.4089C317.208 46.6558 317.236 46.931 317.299 47.2273C317.363 47.5236 317.455 47.7988 317.582 48.0457C317.708 48.2927 317.857 48.5114 318.026 48.7018C318.195 48.8853 318.407 48.9841 318.654 48.9841H318.887V49.4497H312.361V48.9841H312.593C312.812 48.9841 313.01 48.8994 313.2 48.7301C313.384 48.5607 313.553 48.342 313.687 48.081C313.828 47.82 313.927 47.5377 313.99 47.2414C314.054 46.9451 314.082 46.677 314.082 46.423V21.5535C314.082 21.3348 314.054 21.0879 313.99 20.8057C313.927 20.5235 313.835 20.2625 313.708 20.0155C313.581 19.7686 313.426 19.5569 313.243 19.3876C313.059 19.2183 312.84 19.1336 312.593 19.1336H312.361V18.668H318.887V19.1336H318.654C318.407 19.1336 318.188 19.2183 318.005 19.3876C317.821 19.5569 317.673 19.7686 317.56 20.0155C317.454 20.2625 317.363 20.5305 317.306 20.8057C317.243 21.0879 317.215 21.3348 317.215 21.5535V32.094H332.136V21.5535C332.136 21.3348 332.108 21.0879 332.045 20.8057C331.981 20.5235 331.889 20.2625 331.762 20.0155C331.635 19.7686 331.48 19.5569 331.297 19.3876C331.113 19.2183 330.895 19.1336 330.648 19.1336H330.415V18.668H336.941V19.1336H336.708C336.461 19.1336 336.242 19.2183 336.059 19.3876C335.876 19.5569 335.727 19.7686 335.615 20.0155C335.509 20.2625 335.417 20.5305 335.361 20.8057C335.297 21.0879 335.269 21.3348 335.269 21.5535V46.4019C335.269 46.6488 335.304 46.9239 335.389 47.2203C335.466 47.5166 335.565 47.7917 335.692 48.0387C335.819 48.2856 335.96 48.5043 336.137 48.6948C336.306 48.8782 336.503 48.977 336.722 48.977H336.955V49.4426H330.429V48.977L330.408 48.9699Z" fill="#1B4349"/>
<path d="M76.9305 11.8527C76.9305 12.4877 76.7117 13.0238 76.2813 13.4542C75.8508 13.8846 75.3145 14.1033 74.6794 14.1033C74.0444 14.1033 73.5081 13.8846 73.0776 13.4542C72.6472 13.0238 72.4284 12.4877 72.4284 11.8527C72.4284 11.2177 72.6472 10.6815 73.0776 10.2512C73.5081 9.8208 74.0444 9.60209 74.6794 9.60209C75.3145 9.60209 75.8508 9.81374 76.2813 10.2512C76.7117 10.6815 76.9305 11.2177 76.9305 11.8527Z" fill="#1B4349"/>
<path d="M70.1293 11.8527C70.1293 12.4877 69.9105 13.0238 69.4801 13.4542C69.0496 13.8846 68.5133 14.1033 67.8782 14.1033C67.2432 14.1033 66.7069 13.8846 66.2764 13.4542C65.846 13.0238 65.6272 12.4877 65.6272 11.8527C65.6272 11.2177 65.846 10.6815 66.2764 10.2512C66.7069 9.8208 67.2432 9.60209 67.8782 9.60209C68.5133 9.60209 69.0496 9.81374 69.4801 10.2512C69.9105 10.6815 70.1293 11.2177 70.1293 11.8527Z" fill="#1B4349"/>
<path d="M73.5299 6.18738C73.5299 6.82235 73.3111 7.35854 72.8807 7.78891C72.4502 8.21927 71.9139 8.43798 71.2788 8.43798C70.6438 8.43798 70.1075 8.21927 69.677 7.78891C69.2466 7.35854 69.0278 6.82235 69.0278 6.18738C69.0278 5.55242 69.2466 5.01622 69.677 4.58586C70.1075 4.15549 70.6438 3.93678 71.2788 3.93678C71.9139 3.93678 72.4502 4.14844 72.8807 4.58586C73.3111 5.01622 73.5299 5.55242 73.5299 6.18738Z" fill="#1B4349"/>
<path d="M85.0148 17.3346V34.4433C85.0148 34.4433 85.0148 34.4575 85.0148 34.4716C85.0007 39.7841 83.7096 43.7279 82.5032 45.7457C81.6142 47.2344 79.3495 48.5114 76.6403 48.5325C73.9311 48.5114 71.6735 47.2344 70.7775 45.7457C69.571 43.7279 68.28 39.7841 68.2658 34.4716C68.2658 34.4645 68.2658 34.4575 68.2658 34.4433V17.3346H63.7364V34.401C63.7364 34.401 63.7364 34.4504 63.7435 34.4716C63.7788 39.7065 64.957 43.601 67.2852 46.1338C69.6487 48.7089 72.7247 50 76.5133 50C76.5557 50 76.598 50 76.6403 50C76.6827 50 76.725 50 76.7673 50C80.5489 50 83.625 48.7089 85.9955 46.1338C88.3237 43.601 89.5019 39.7065 89.5372 34.4716C89.5372 34.4716 89.5442 34.4222 89.5442 34.401V17.3346H85.0148Z" fill="#1B4349"/>
<path d="M74.432 17.3346V23.2045C74.432 23.2045 74.432 23.2186 74.432 23.2327C74.4179 28.5452 73.1268 32.4891 71.9204 34.5068C71.0315 35.9955 68.7667 37.2725 66.0576 37.2936V38.7541C66.0999 38.7541 66.1422 38.7541 66.1845 38.7541C69.9661 38.7541 73.0422 37.463 75.4127 34.8878C77.7409 32.355 78.9191 28.4606 78.9544 23.2256C78.9544 23.2256 78.9615 23.1762 78.9615 23.1551V17.3275H74.432V17.3346Z" fill="#1B4349"/>
<path d="M25.1658 40.8071C25.1658 42.1123 24.8413 43.3188 24.1851 44.4264C23.529 45.5341 22.64 46.5006 21.5112 47.3261C20.3824 48.1515 19.0631 48.8077 17.5533 49.2874C16.0435 49.7672 14.4137 50 12.657 50C10.4981 50 8.74136 49.7107 7.37971 49.1322C6.02512 48.5537 4.86807 47.9611 3.91562 47.3614C3.25949 46.9592 2.6598 46.6206 2.1095 46.3454C1.5592 46.0703 0.952452 45.9292 0.303376 45.9292V40.2004H1.05828C1.20644 40.9059 1.65091 41.6678 2.3776 42.5004C3.10428 43.3258 3.98618 44.0948 5.01623 44.8003C6.04629 45.5059 7.17511 46.0914 8.40977 46.5712C9.63737 47.0509 10.8861 47.2838 12.142 47.2838C13.045 47.2838 13.9763 47.185 14.9287 46.9804C15.8812 46.7828 16.749 46.4512 17.5251 45.9997C18.3011 45.5482 18.9573 44.9838 19.4864 44.3065C20.0155 43.6292 20.2766 42.8108 20.2766 41.8583C20.2766 40.9059 20.0014 40.0734 19.4511 39.3749C18.9008 38.6694 18.1953 38.0556 17.3416 37.5265C16.4879 36.9973 15.5073 36.5317 14.4067 36.1295C13.299 35.7274 12.1984 35.3535 11.0907 35.0007C9.78553 34.5986 8.46621 34.147 7.13278 33.6461C5.79935 33.1452 4.60703 32.5526 3.55581 31.8753C2.49753 31.198 1.64386 30.3655 0.994783 29.3918C0.338652 28.4112 0.0141144 27.2471 0.0141144 25.8854C0.0141144 24.7284 0.22577 23.6278 0.656135 22.5695C1.07945 21.5112 1.78496 20.6011 2.76563 19.818C3.7463 19.0419 5.00918 18.414 6.56837 17.9342C8.12756 17.4545 10.0113 17.2217 12.2196 17.2217C14.1809 17.2217 15.6978 17.3839 16.7772 17.7085C17.8566 18.033 18.7456 18.3717 19.4511 18.7244C19.9026 18.9784 20.3542 19.1618 20.8057 19.2888C21.2572 19.4158 21.7582 19.4793 22.3155 19.4793V24.7566H21.7158C20.8128 23.0986 19.4299 21.8428 17.5744 20.9891C15.7189 20.1355 13.807 19.7051 11.8456 19.7051C10.5898 19.7051 9.51038 19.8674 8.60731 20.1919C7.70425 20.5164 6.96346 20.9186 6.38493 21.3983C5.80641 21.8781 5.3831 22.4143 5.10089 23.021C4.82574 23.6207 4.68464 24.2275 4.68464 24.8271C4.68464 25.6808 4.92451 26.4075 5.39721 27.0143C5.87696 27.6139 6.52604 28.1431 7.35855 28.5946C8.19106 29.0461 9.11529 29.4765 10.1453 29.8786C11.1754 30.2808 12.2689 30.6547 13.4189 31.0075C14.8229 31.459 16.234 31.9458 17.6379 32.475C19.0419 33.0041 20.2977 33.6461 21.4054 34.394C22.5131 35.1489 23.4161 36.0378 24.1146 37.0679C24.8201 38.0979 25.1729 39.3396 25.1729 40.8001L25.1658 40.8071Z" fill="#1B4349"/>
<path d="M43.6221 50C41.1105 50 38.8528 49.5837 36.8421 48.7583C34.8314 47.9328 33.1099 46.7969 31.6777 45.3647C30.2455 43.9325 29.1379 42.2393 28.3618 40.278C27.5857 38.3166 27.1977 36.186 27.1977 33.8719C27.1977 31.4096 27.621 29.1661 28.4817 27.1271C29.3354 25.0952 30.5136 23.3456 32.0234 21.8922C33.5332 20.4388 35.3111 19.3029 37.3713 18.4987C39.4314 17.6944 41.6679 17.2922 44.0807 17.2922C46.4936 17.2922 48.7019 17.6803 50.7126 18.4634C52.7233 19.2394 54.4518 20.333 55.9122 21.744C57.3656 23.148 58.5015 24.8201 59.3058 26.7532C60.1101 28.6863 60.5122 30.8099 60.5122 33.117C60.5122 35.2759 60.1453 37.3712 59.4187 39.4102C58.692 41.4421 57.6125 43.2411 56.1803 44.8003C54.7481 46.3595 52.9914 47.6153 50.9031 48.5678C48.8147 49.5202 46.3948 50 43.6292 50H43.6221ZM43.1353 19.7898C41.3292 19.8885 39.7418 20.333 38.366 21.1091C36.9903 21.8851 35.8403 22.894 34.909 24.1216C33.9848 25.3563 33.2793 26.7461 32.8066 28.3053C32.3339 29.8645 32.094 31.4449 32.094 33.0535C32.094 34.909 32.3832 36.7081 32.9547 38.4436C33.5332 40.1792 34.3587 41.7243 35.4311 43.0789C36.5035 44.4335 37.7946 45.5129 39.2973 46.3172C40.8001 47.1215 42.4792 47.5236 44.3277 47.5236C46.1761 47.5236 47.82 47.1215 49.2451 46.3172C50.6703 45.5129 51.8626 44.4687 52.815 43.1918C53.7675 41.9077 54.48 40.4685 54.9527 38.8599C55.4254 37.2513 55.6653 35.6427 55.6653 34.0341C55.6653 32.4256 55.4113 30.7041 54.9175 29.025C54.4165 27.3458 53.6405 25.8078 52.5893 24.4321C51.538 23.0492 50.2258 21.9345 48.6454 21.0808C47.0651 20.2272 45.2307 19.7968 43.1212 19.7968L43.1353 19.7898Z" fill="#1B4349"/>
<path d="M92.8108 49.4426V48.7018C93.2059 48.7018 93.5516 48.5537 93.8479 48.2574C94.1442 47.9611 94.4052 47.6153 94.6239 47.2203C94.8497 46.8252 95.0049 46.3948 95.1037 45.9221C95.2025 45.4494 95.2519 45.019 95.2519 44.624V1.50275L100.155 0V44.6169C100.155 45.012 100.205 45.4494 100.303 45.9151C100.402 46.3878 100.564 46.8181 100.783 47.2132C101.009 47.6083 101.256 47.954 101.524 48.2503C101.799 48.5466 102.131 48.6948 102.526 48.6948V49.4356H92.8037L92.8108 49.4426Z" fill="#1B4349"/>
</g>
<defs>
<clipPath id="clip0_511_90">
<rect width="336.934" height="50" fill="white"/>
</clipPath>
</defs>
</svg>
