<svg width="23" height="20" viewBox="0 0 23 20" fill="none" xmlns="http://www.w3.org/2000/svg">
<path id="dot4" d="M22.9998 15.5725C22.9998 16.8216 22.5554 17.8765 21.681 18.7231C20.8066 19.5697 19.7171 20 18.4269 20C17.1367 20 16.0473 19.5697 15.1728 18.7231C14.2984 17.8765 13.854 16.8216 13.854 15.5725C13.854 14.3234 14.2984 13.2685 15.1728 12.4219C16.0473 11.5753 17.1367 11.145 18.4269 11.145C19.7171 11.145 20.8066 11.5614 21.681 12.4219C22.5554 13.2685 22.9998 14.3234 22.9998 15.5725Z" fill="#C8823A"/>
<path id="dot5" d="M9.18099 15.5725C9.18099 16.8216 8.7366 17.8765 7.86216 18.7231C6.98771 19.5697 5.89824 20 4.60807 20C3.31791 20 2.22844 19.5697 1.354 18.7231C0.479554 17.8765 0.0351562 16.8216 0.0351562 15.5725C0.0351562 14.3234 0.479554 13.2685 1.354 12.4219C2.22844 11.5753 3.31791 11.145 4.60807 11.145C5.89824 11.145 6.98771 11.5614 7.86216 12.4219C8.7366 13.2685 9.18099 14.3234 9.18099 15.5725Z" fill="#C8823A"/>
<path id="dot6" d="M16.0911 4.42749C16.0911 5.67663 15.6468 6.73145 14.7723 7.57809C13.8979 8.42472 12.8084 8.85498 11.5182 8.85498C10.2281 8.85498 9.1386 8.42472 8.26415 7.57809C7.38971 6.73145 6.94531 5.67663 6.94531 4.42749C6.94531 3.17836 7.38971 2.12353 8.26415 1.27689C9.1386 0.430258 10.2281 0 11.5182 0C12.8084 0 13.8979 0.416378 14.7723 1.27689C15.6468 2.12353 16.0911 3.17836 16.0911 4.42749Z" fill="#C8823A"/>
</svg>
