<svg width="494" height="563" viewBox="0 0 494 563" fill="none" xmlns="http://www.w3.org/2000/svg">
<path d="M148.981 203.392C103.968 203.392 67.3404 239.689 67.3404 284.297C67.3404 328.905 103.968 365.202 148.981 365.202C193.995 365.202 230.622 328.905 230.622 284.297C230.622 239.689 193.995 203.392 148.981 203.392ZM148.981 338.864C118.615 338.864 93.9175 314.39 93.9175 284.297C93.9175 254.204 118.615 229.73 148.981 229.73C179.348 229.73 204.045 254.204 204.045 284.297C204.045 314.39 179.348 338.864 148.981 338.864Z" fill="#F5F7F5" fill-opacity="0.23"/>
<path d="M459.186 0H-34.6761C-53.605 0 -69 17.0511 -69 38.0235V428.111C-69 449.073 -53.605 466.134 -34.6761 466.134H-2.85249C-16.7513 490.774 -24.6949 519.15 -24.6949 549.331V562.5H322.648V549.331C322.648 519.15 314.715 490.774 300.806 466.134H327.462L449.864 555.282C452.492 557.193 455.554 558.14 458.625 558.14C462.021 558.14 465.407 556.979 468.163 554.667C473.626 550.082 475.181 542.425 471.933 536.036L436.438 466.144H459.176C478.105 466.144 493.5 449.093 493.5 428.12V38.0235C493.5 17.0608 478.105 0 459.176 0H459.186ZM2.48263 536.153C9.21551 462.505 71.8686 404.612 147.919 404.612H150.045C226.085 404.612 288.748 462.505 295.481 536.153H2.48263ZM466.933 428.111C466.933 434.997 462.848 439.797 459.186 439.797H393.314L426.85 505.816L336.193 439.797H282.527C250.841 402.222 203.219 378.274 150.055 378.274H147.928C94.7643 378.274 47.142 402.222 15.4562 439.797H-34.6663C-38.328 439.797 -42.413 434.997 -42.413 428.111V38.0235C-42.413 31.1367 -38.328 26.3375 -34.6663 26.3375H459.196C462.857 26.3375 466.943 31.1367 466.943 38.0235V428.111H466.933Z" fill="#F5F7F5" fill-opacity="0.23"/>
</svg>
