<svg width="76" height="80" viewBox="0 0 76 80" fill="none" xmlns="http://www.w3.org/2000/svg">
<path d="M29.2949 28.9271C23.278 28.9271 18.3821 34.0893 18.3821 40.4335C18.3821 46.7778 23.278 51.94 29.2949 51.94C35.3118 51.94 40.2076 46.7778 40.2076 40.4335C40.2076 34.0893 35.3118 28.9271 29.2949 28.9271ZM29.2949 48.1942C25.2358 48.1942 21.9346 44.7134 21.9346 40.4335C21.9346 36.1536 25.2358 32.6728 29.2949 32.6728C33.3539 32.6728 36.6551 36.1536 36.6551 40.4335C36.6551 44.7134 33.3539 48.1942 29.2949 48.1942Z" fill="#1B4349"/>
<path d="M70.7592 0H4.74588C2.21572 0 0.157898 2.42504 0.157898 5.40779V60.8868C0.157898 63.8682 2.21572 66.2946 4.74588 66.2946H8.99967C7.14185 69.799 6.08004 73.8347 6.08004 78.1271V80H52.5086V78.1271C52.5086 73.8347 51.4481 69.799 49.5889 66.2946H53.152L69.5132 78.9734C69.8645 79.2453 70.2737 79.3799 70.6842 79.3799C71.1381 79.3799 71.5908 79.2148 71.9592 78.886C72.6894 78.2339 72.8973 77.1449 72.4631 76.2362L67.7185 66.296H70.7579C73.2881 66.296 75.3459 63.871 75.3459 60.8882V5.40779C75.3459 2.42643 73.2881 0 70.7579 0H70.7592ZM9.7128 76.2528C10.6128 65.7785 18.9875 57.5448 29.1529 57.5448H29.4371C39.6012 57.5448 47.9772 65.7785 48.8771 76.2528H9.7128ZM71.7947 60.8868C71.7947 61.8663 71.2487 62.5489 70.7592 62.5489H61.9543L66.437 71.9383L54.319 62.5489H47.1456C42.9102 57.2049 36.5447 53.799 29.4384 53.799H29.1542C22.0479 53.799 15.6823 57.2049 11.4469 62.5489H4.7472C4.25774 62.5489 3.71171 61.8663 3.71171 60.8868V5.40779C3.71171 4.42834 4.25774 3.74577 4.7472 3.74577H70.7605C71.25 3.74577 71.796 4.42834 71.796 5.40779V60.8868H71.7947Z" fill="#1B4349"/>
</svg>
