<svg width="80" height="80" viewBox="0 0 80 80" fill="none" xmlns="http://www.w3.org/2000/svg">
<path d="M39.9993 80C38.8771 80 37.7535 79.5722 36.8994 78.7181L1.28226 43.1008C-0.427419 41.3911 -0.427419 38.6106 1.28226 36.9009L7.67793 30.5052C9.2015 28.9817 11.65 28.7956 13.3722 30.0733C17.7957 33.3538 23.3303 33.4093 26.5344 30.2052C29.7385 27.0011 29.6829 21.4665 26.4024 17.043C25.1247 15.3195 25.3108 12.8723 26.8344 11.3487L36.9008 1.28226C38.6105 -0.427421 41.3909 -0.427421 43.1006 1.28226L50.4157 8.59738C50.4907 8.67238 50.5754 8.68488 50.6338 8.68488C50.7143 8.68349 50.7837 8.65294 50.8379 8.59461C53.6878 5.52939 57.7225 3.79471 61.9029 3.83082C69.986 3.90304 76.6206 10.5376 76.6928 18.6208C76.7303 22.8026 74.9942 26.8359 71.929 29.6858C71.8707 29.74 71.8401 29.8094 71.8388 29.89C71.8388 29.9483 71.8526 30.033 71.9263 30.1066L78.7178 36.8982C80.4274 38.6078 80.4274 41.3883 78.7178 43.098L43.1006 78.7153C42.2465 79.5695 41.1229 79.9972 40.0007 79.9972L39.9993 80ZM10.7806 33.3052C10.7042 33.3052 10.6265 33.3357 10.5667 33.3955L4.17107 39.7911C4.09885 39.8634 4.08357 39.9453 4.08357 40.0023C4.08357 40.0592 4.09885 40.1411 4.17107 40.2134L39.7882 75.8307C39.9049 75.9473 40.0937 75.9473 40.2104 75.8307L75.8275 40.2134C75.8998 40.1411 75.915 40.0592 75.915 40.0023C75.915 39.9453 75.8998 39.8634 75.8275 39.7911L69.036 32.9996C68.1986 32.1621 67.7305 31.0025 67.7527 29.8191C67.775 28.6206 68.2694 27.5122 69.1458 26.697C71.3721 24.6276 72.6332 21.6985 72.6054 18.6611C72.5526 12.7903 67.7347 7.9724 61.864 7.91962C61.8321 7.91962 61.8001 7.91962 61.7682 7.91962C58.7655 7.91962 55.8753 9.17793 53.8281 11.3807C53.0129 12.257 51.9046 12.7528 50.706 12.7737C49.5268 12.7973 48.363 12.3279 47.5255 11.4904L40.2104 4.17526C40.0937 4.05859 39.9049 4.05859 39.7882 4.17526L29.7218 14.2417C29.619 14.3445 29.6024 14.5042 29.6829 14.6139C34.18 20.6777 34.0703 28.4511 29.4232 33.0996C24.7761 37.7481 17.0013 37.8565 10.9376 33.3593C10.8917 33.3246 10.8362 33.308 10.7792 33.308L10.7806 33.3052Z" fill="#F5F7F5"/>
</svg>
