<svg width="360" height="344" viewBox="0 0 360 344" fill="none" xmlns="http://www.w3.org/2000/svg">
<g filter="url(#filter0_dddd_458_684)">
<rect x="330" y="80.1943" width="233.333" height="300" rx="32" transform="rotate(90 330 80.1943)" fill="#C8823A"/>
<path d="M272.938 32.4734L208.625 90.5632C203.189 95.4729 206.662 104.5 213.987 104.5H268.388C272.287 104.5 275.619 101.689 276.274 97.8456L286.187 39.7558C287.464 32.2715 278.573 27.3842 272.938 32.4734Z" fill="#C8823A"/>
</g>
<path d="M63.3078 149.126C62.4798 149.126 61.7478 148.982 61.1118 148.694C60.4878 148.406 59.9958 148.004 59.6358 147.488C59.2758 146.972 59.0838 146.396 59.0598 145.76H60.3918C60.4518 146.372 60.7218 146.912 61.2018 147.38C61.6818 147.836 62.3838 148.064 63.3078 148.064C64.1598 148.064 64.8318 147.848 65.3238 147.416C65.8278 146.972 66.0798 146.414 66.0798 145.742C66.0798 145.202 65.9418 144.77 65.6658 144.446C65.3898 144.11 65.0478 143.864 64.6398 143.708C64.2318 143.54 63.6678 143.36 62.9478 143.168C62.1078 142.94 61.4418 142.718 60.9498 142.502C60.4578 142.286 60.0378 141.95 59.6898 141.494C59.3418 141.038 59.1678 140.42 59.1678 139.64C59.1678 138.992 59.3358 138.416 59.6718 137.912C60.0078 137.396 60.4818 136.994 61.0938 136.706C61.7058 136.418 62.4078 136.274 63.1998 136.274C64.3638 136.274 65.2998 136.562 66.0078 137.138C66.7278 137.702 67.1418 138.434 67.2498 139.334H65.8818C65.7978 138.818 65.5158 138.362 65.0358 137.966C64.5558 137.558 63.9078 137.354 63.0918 137.354C62.3358 137.354 61.7058 137.558 61.2018 137.966C60.6978 138.362 60.4458 138.908 60.4458 139.604C60.4458 140.132 60.5838 140.558 60.8598 140.882C61.1358 141.206 61.4778 141.452 61.8858 141.62C62.3058 141.788 62.8698 141.968 63.5778 142.16C64.3938 142.388 65.0538 142.616 65.5578 142.844C66.0618 143.06 66.4878 143.396 66.8358 143.852C67.1838 144.308 67.3578 144.92 67.3578 145.688C67.3578 146.276 67.2018 146.834 66.8898 147.362C66.5778 147.89 66.1158 148.316 65.5038 148.64C64.8918 148.964 64.1598 149.126 63.3078 149.126ZM74.0945 149.144C73.1705 149.144 72.3365 148.94 71.5925 148.532C70.8605 148.112 70.2785 147.524 69.8465 146.768C69.4265 146 69.2165 145.106 69.2165 144.086C69.2165 143.066 69.4325 142.178 69.8645 141.422C70.2965 140.654 70.8845 140.066 71.6285 139.658C72.3725 139.238 73.2065 139.028 74.1305 139.028C75.0545 139.028 75.8885 139.238 76.6325 139.658C77.3885 140.066 77.9765 140.654 78.3965 141.422C78.8285 142.178 79.0445 143.066 79.0445 144.086C79.0445 145.094 78.8285 145.982 78.3965 146.75C77.9645 147.518 77.3705 148.112 76.6145 148.532C75.8585 148.94 75.0185 149.144 74.0945 149.144ZM74.0945 148.046C74.7425 148.046 75.3425 147.902 75.8945 147.614C76.4465 147.314 76.8905 146.87 77.2265 146.282C77.5745 145.682 77.7485 144.95 77.7485 144.086C77.7485 143.222 77.5805 142.496 77.2445 141.908C76.9085 141.308 76.4645 140.864 75.9125 140.576C75.3605 140.276 74.7605 140.126 74.1125 140.126C73.4645 140.126 72.8645 140.276 72.3125 140.576C71.7605 140.864 71.3165 141.308 70.9805 141.908C70.6565 142.496 70.4945 143.222 70.4945 144.086C70.4945 144.95 70.6565 145.682 70.9805 146.282C71.3165 146.87 71.7545 147.314 72.2945 147.614C72.8465 147.902 73.4465 148.046 74.0945 148.046ZM89.8554 139.172V149H88.5954V147.272C88.3074 147.884 87.8634 148.352 87.2634 148.676C86.6634 149 85.9914 149.162 85.2474 149.162C84.0714 149.162 83.1114 148.802 82.3674 148.082C81.6234 147.35 81.2514 146.294 81.2514 144.914V139.172H82.4934V144.77C82.4934 145.838 82.7574 146.654 83.2854 147.218C83.8254 147.782 84.5574 148.064 85.4814 148.064C86.4294 148.064 87.1854 147.764 87.7494 147.164C88.3134 146.564 88.5954 145.682 88.5954 144.518V139.172H89.8554ZM93.992 135.68V149H92.732V135.68H93.992ZM105.601 149.126C104.773 149.126 104.041 148.982 103.405 148.694C102.781 148.406 102.289 148.004 101.929 147.488C101.569 146.972 101.377 146.396 101.353 145.76H102.685C102.745 146.372 103.015 146.912 103.495 147.38C103.975 147.836 104.677 148.064 105.601 148.064C106.453 148.064 107.125 147.848 107.617 147.416C108.121 146.972 108.373 146.414 108.373 145.742C108.373 145.202 108.235 144.77 107.959 144.446C107.683 144.11 107.341 143.864 106.933 143.708C106.525 143.54 105.961 143.36 105.241 143.168C104.401 142.94 103.735 142.718 103.243 142.502C102.751 142.286 102.331 141.95 101.983 141.494C101.635 141.038 101.461 140.42 101.461 139.64C101.461 138.992 101.629 138.416 101.965 137.912C102.301 137.396 102.775 136.994 103.387 136.706C103.999 136.418 104.701 136.274 105.493 136.274C106.657 136.274 107.593 136.562 108.301 137.138C109.021 137.702 109.435 138.434 109.543 139.334H108.175C108.091 138.818 107.809 138.362 107.329 137.966C106.849 137.558 106.201 137.354 105.385 137.354C104.629 137.354 103.999 137.558 103.495 137.966C102.991 138.362 102.739 138.908 102.739 139.604C102.739 140.132 102.877 140.558 103.153 140.882C103.429 141.206 103.771 141.452 104.179 141.62C104.599 141.788 105.163 141.968 105.871 142.16C106.687 142.388 107.347 142.616 107.851 142.844C108.355 143.06 108.781 143.396 109.129 143.852C109.477 144.308 109.651 144.92 109.651 145.688C109.651 146.276 109.495 146.834 109.183 147.362C108.871 147.89 108.409 148.316 107.797 148.64C107.185 148.964 106.453 149.126 105.601 149.126ZM113.724 140.234V146.336C113.724 146.936 113.838 147.35 114.066 147.578C114.294 147.806 114.696 147.92 115.272 147.92H116.424V149H115.074C114.186 149 113.526 148.796 113.094 148.388C112.662 147.968 112.446 147.284 112.446 146.336V140.234H111.078V139.172H112.446V136.706H113.724V139.172H116.424V140.234H113.724ZM119.762 140.918C120.038 140.306 120.458 139.832 121.022 139.496C121.598 139.16 122.3 138.992 123.128 138.992V140.306H122.786C121.874 140.306 121.142 140.552 120.59 141.044C120.038 141.536 119.762 142.358 119.762 143.51V149H118.502V139.172H119.762V140.918ZM133.915 143.582C133.915 144.014 133.903 144.344 133.879 144.572H125.725C125.761 145.316 125.941 145.952 126.265 146.48C126.589 147.008 127.015 147.41 127.543 147.686C128.071 147.95 128.647 148.082 129.271 148.082C130.087 148.082 130.771 147.884 131.323 147.488C131.887 147.092 132.259 146.558 132.439 145.886H133.771C133.531 146.846 133.015 147.632 132.223 148.244C131.443 148.844 130.459 149.144 129.271 149.144C128.347 149.144 127.519 148.94 126.787 148.532C126.055 148.112 125.479 147.524 125.059 146.768C124.651 146 124.447 145.106 124.447 144.086C124.447 143.066 124.651 142.172 125.059 141.404C125.467 140.636 126.037 140.048 126.769 139.64C127.501 139.232 128.335 139.028 129.271 139.028C130.207 139.028 131.023 139.232 131.719 139.64C132.427 140.048 132.967 140.6 133.339 141.296C133.723 141.98 133.915 142.742 133.915 143.582ZM132.637 143.546C132.649 142.814 132.499 142.19 132.187 141.674C131.887 141.158 131.473 140.768 130.945 140.504C130.417 140.24 129.841 140.108 129.217 140.108C128.281 140.108 127.483 140.408 126.823 141.008C126.163 141.608 125.797 142.454 125.725 143.546H132.637ZM140.828 138.992C142.004 138.992 142.964 139.358 143.708 140.09C144.452 140.81 144.824 141.86 144.824 143.24V149H143.582V143.384C143.582 142.316 143.312 141.5 142.772 140.936C142.244 140.372 141.518 140.09 140.594 140.09C139.646 140.09 138.89 140.39 138.326 140.99C137.762 141.59 137.48 142.472 137.48 143.636V149H136.22V139.172H137.48V140.846C137.792 140.246 138.242 139.79 138.83 139.478C139.418 139.154 140.084 138.992 140.828 138.992ZM151.733 139.028C152.657 139.028 153.461 139.244 154.145 139.676C154.829 140.108 155.321 140.654 155.621 141.314V139.172H156.881V149.252C156.881 150.152 156.683 150.95 156.287 151.646C155.903 152.342 155.363 152.876 154.667 153.248C153.971 153.632 153.179 153.824 152.291 153.824C151.031 153.824 149.981 153.524 149.141 152.924C148.313 152.324 147.797 151.508 147.593 150.476H148.835C149.051 151.16 149.459 151.706 150.059 152.114C150.671 152.522 151.415 152.726 152.291 152.726C152.927 152.726 153.497 152.588 154.001 152.312C154.505 152.048 154.901 151.652 155.189 151.124C155.477 150.596 155.621 149.972 155.621 149.252V146.822C155.309 147.494 154.811 148.052 154.127 148.496C153.455 148.928 152.657 149.144 151.733 149.144C150.833 149.144 150.023 148.934 149.303 148.514C148.595 148.094 148.037 147.5 147.629 146.732C147.233 145.964 147.035 145.076 147.035 144.068C147.035 143.06 147.233 142.178 147.629 141.422C148.037 140.654 148.595 140.066 149.303 139.658C150.023 139.238 150.833 139.028 151.733 139.028ZM155.621 144.086C155.621 143.294 155.459 142.598 155.135 141.998C154.811 141.398 154.367 140.936 153.803 140.612C153.251 140.288 152.639 140.126 151.967 140.126C151.271 140.126 150.647 140.282 150.095 140.594C149.543 140.906 149.105 141.362 148.781 141.962C148.469 142.55 148.313 143.252 148.313 144.068C148.313 144.872 148.469 145.58 148.781 146.192C149.105 146.792 149.543 147.254 150.095 147.578C150.647 147.89 151.271 148.046 151.967 148.046C152.639 148.046 153.251 147.884 153.803 147.56C154.367 147.236 154.811 146.774 155.135 146.174C155.459 145.574 155.621 144.878 155.621 144.086ZM161.395 140.234V146.336C161.395 146.936 161.509 147.35 161.737 147.578C161.965 147.806 162.367 147.92 162.943 147.92H164.095V149H162.745C161.857 149 161.197 148.796 160.765 148.388C160.333 147.968 160.117 147.284 160.117 146.336V140.234H158.749V139.172H160.117V136.706H161.395V139.172H164.095V140.234H161.395ZM170.853 138.992C171.597 138.992 172.263 139.148 172.851 139.46C173.451 139.772 173.919 140.252 174.255 140.9C174.603 141.536 174.777 142.316 174.777 143.24V149H173.535V143.384C173.535 142.316 173.265 141.5 172.725 140.936C172.197 140.372 171.471 140.09 170.547 140.09C169.599 140.09 168.843 140.39 168.279 140.99C167.715 141.59 167.433 142.472 167.433 143.636V149H166.173V135.68H167.433V140.846C167.745 140.258 168.201 139.802 168.801 139.478C169.413 139.154 170.097 138.992 170.853 138.992ZM181.927 144.086C181.927 143.066 182.131 142.178 182.539 141.422C182.947 140.654 183.511 140.066 184.231 139.658C184.951 139.238 185.773 139.028 186.697 139.028C187.909 139.028 188.905 139.328 189.685 139.928C190.477 140.528 190.987 141.344 191.215 142.376H189.865C189.697 141.668 189.331 141.116 188.767 140.72C188.215 140.312 187.525 140.108 186.697 140.108C186.037 140.108 185.443 140.258 184.915 140.558C184.387 140.858 183.967 141.308 183.655 141.908C183.355 142.496 183.205 143.222 183.205 144.086C183.205 144.95 183.355 145.682 183.655 146.282C183.967 146.882 184.387 147.332 184.915 147.632C185.443 147.932 186.037 148.082 186.697 148.082C187.525 148.082 188.215 147.884 188.767 147.488C189.331 147.08 189.697 146.516 189.865 145.796H191.215C190.987 146.804 190.477 147.614 189.685 148.226C188.893 148.838 187.897 149.144 186.697 149.144C185.773 149.144 184.951 148.94 184.231 148.532C183.511 148.112 182.947 147.524 182.539 146.768C182.131 146 181.927 145.106 181.927 144.086ZM197.845 149.144C196.921 149.144 196.087 148.94 195.343 148.532C194.611 148.112 194.029 147.524 193.597 146.768C193.177 146 192.967 145.106 192.967 144.086C192.967 143.066 193.183 142.178 193.615 141.422C194.047 140.654 194.635 140.066 195.379 139.658C196.123 139.238 196.957 139.028 197.881 139.028C198.805 139.028 199.639 139.238 200.383 139.658C201.139 140.066 201.727 140.654 202.147 141.422C202.579 142.178 202.795 143.066 202.795 144.086C202.795 145.094 202.579 145.982 202.147 146.75C201.715 147.518 201.121 148.112 200.365 148.532C199.609 148.94 198.769 149.144 197.845 149.144ZM197.845 148.046C198.493 148.046 199.093 147.902 199.645 147.614C200.197 147.314 200.641 146.87 200.977 146.282C201.325 145.682 201.499 144.95 201.499 144.086C201.499 143.222 201.331 142.496 200.995 141.908C200.659 141.308 200.215 140.864 199.663 140.576C199.111 140.276 198.511 140.126 197.863 140.126C197.215 140.126 196.615 140.276 196.063 140.576C195.511 140.864 195.067 141.308 194.731 141.908C194.407 142.496 194.245 143.222 194.245 144.086C194.245 144.95 194.407 145.682 194.731 146.282C195.067 146.87 195.505 147.314 196.045 147.614C196.597 147.902 197.197 148.046 197.845 148.046ZM209.699 138.992C210.875 138.992 211.835 139.358 212.579 140.09C213.323 140.81 213.695 141.86 213.695 143.24V149H212.453V143.384C212.453 142.316 212.183 141.5 211.643 140.936C211.115 140.372 210.389 140.09 209.465 140.09C208.517 140.09 207.761 140.39 207.197 140.99C206.633 141.59 206.351 142.472 206.351 143.636V149H205.091V139.172H206.351V140.846C206.663 140.246 207.113 139.79 207.701 139.478C208.289 139.154 208.955 138.992 209.699 138.992ZM221.09 138.992C222.266 138.992 223.226 139.358 223.97 140.09C224.714 140.81 225.086 141.86 225.086 143.24V149H223.844V143.384C223.844 142.316 223.574 141.5 223.034 140.936C222.506 140.372 221.78 140.09 220.856 140.09C219.908 140.09 219.152 140.39 218.588 140.99C218.024 141.59 217.742 142.472 217.742 143.636V149H216.482V139.172H217.742V140.846C218.054 140.246 218.504 139.79 219.092 139.478C219.68 139.154 220.346 138.992 221.09 138.992ZM236.765 143.582C236.765 144.014 236.753 144.344 236.729 144.572H228.575C228.611 145.316 228.791 145.952 229.115 146.48C229.439 147.008 229.865 147.41 230.393 147.686C230.921 147.95 231.497 148.082 232.121 148.082C232.937 148.082 233.621 147.884 234.173 147.488C234.737 147.092 235.109 146.558 235.289 145.886H236.621C236.381 146.846 235.865 147.632 235.073 148.244C234.293 148.844 233.309 149.144 232.121 149.144C231.197 149.144 230.369 148.94 229.637 148.532C228.905 148.112 228.329 147.524 227.909 146.768C227.501 146 227.297 145.106 227.297 144.086C227.297 143.066 227.501 142.172 227.909 141.404C228.317 140.636 228.887 140.048 229.619 139.64C230.351 139.232 231.185 139.028 232.121 139.028C233.057 139.028 233.873 139.232 234.569 139.64C235.277 140.048 235.817 140.6 236.189 141.296C236.573 141.98 236.765 142.742 236.765 143.582ZM235.487 143.546C235.499 142.814 235.349 142.19 235.037 141.674C234.737 141.158 234.323 140.768 233.795 140.504C233.267 140.24 232.691 140.108 232.067 140.108C231.131 140.108 230.333 140.408 229.673 141.008C229.013 141.608 228.647 142.454 228.575 143.546H235.487ZM238.494 144.086C238.494 143.066 238.698 142.178 239.106 141.422C239.514 140.654 240.078 140.066 240.798 139.658C241.518 139.238 242.34 139.028 243.264 139.028C244.476 139.028 245.472 139.328 246.252 139.928C247.044 140.528 247.554 141.344 247.782 142.376H246.432C246.264 141.668 245.898 141.116 245.334 140.72C244.782 140.312 244.092 140.108 243.264 140.108C242.604 140.108 242.01 140.258 241.482 140.558C240.954 140.858 240.534 141.308 240.222 141.908C239.922 142.496 239.772 143.222 239.772 144.086C239.772 144.95 239.922 145.682 240.222 146.282C240.534 146.882 240.954 147.332 241.482 147.632C242.01 147.932 242.604 148.082 243.264 148.082C244.092 148.082 244.782 147.884 245.334 147.488C245.898 147.08 246.264 146.516 246.432 145.796H247.782C247.554 146.804 247.044 147.614 246.252 148.226C245.46 148.838 244.464 149.144 243.264 149.144C242.34 149.144 241.518 148.94 240.798 148.532C240.078 148.112 239.514 147.524 239.106 146.768C238.698 146 238.494 145.106 238.494 144.086ZM251.747 140.234V146.336C251.747 146.936 251.861 147.35 252.089 147.578C252.317 147.806 252.719 147.92 253.295 147.92H254.447V149H253.097C252.209 149 251.549 148.796 251.117 148.388C250.685 147.968 250.469 147.284 250.469 146.336V140.234H249.101V139.172H250.469V136.706H251.747V139.172H254.447V140.234H251.747ZM259.909 149.144C258.781 149.144 257.857 148.886 257.137 148.37C256.429 147.842 256.033 147.128 255.949 146.228H257.245C257.305 146.78 257.563 147.23 258.019 147.578C258.487 147.914 259.111 148.082 259.891 148.082C260.575 148.082 261.109 147.92 261.493 147.596C261.889 147.272 262.087 146.87 262.087 146.39C262.087 146.054 261.979 145.778 261.763 145.562C261.547 145.346 261.271 145.178 260.935 145.058C260.611 144.926 260.167 144.788 259.603 144.644C258.871 144.452 258.277 144.26 257.821 144.068C257.365 143.876 256.975 143.594 256.651 143.222C256.339 142.838 256.183 142.328 256.183 141.692C256.183 141.212 256.327 140.768 256.615 140.36C256.903 139.952 257.311 139.628 257.839 139.388C258.367 139.148 258.967 139.028 259.639 139.028C260.695 139.028 261.547 139.298 262.195 139.838C262.843 140.366 263.191 141.098 263.239 142.034H261.979C261.943 141.458 261.715 140.996 261.295 140.648C260.887 140.288 260.323 140.108 259.603 140.108C258.967 140.108 258.451 140.258 258.055 140.558C257.659 140.858 257.461 141.23 257.461 141.674C257.461 142.058 257.575 142.376 257.803 142.628C258.043 142.868 258.337 143.06 258.685 143.204C259.033 143.336 259.501 143.486 260.089 143.654C260.797 143.846 261.361 144.032 261.781 144.212C262.201 144.392 262.561 144.656 262.861 145.004C263.161 145.352 263.317 145.814 263.329 146.39C263.329 146.918 263.185 147.392 262.897 147.812C262.609 148.22 262.207 148.544 261.691 148.784C261.175 149.024 260.581 149.144 259.909 149.144ZM278.74 139.172L272.908 153.626H271.594L273.502 148.946L269.47 139.172H270.856L274.204 147.56L277.444 139.172H278.74ZM284.751 149.144C283.827 149.144 282.993 148.94 282.249 148.532C281.517 148.112 280.935 147.524 280.503 146.768C280.083 146 279.873 145.106 279.873 144.086C279.873 143.066 280.089 142.178 280.521 141.422C280.953 140.654 281.541 140.066 282.285 139.658C283.029 139.238 283.863 139.028 284.787 139.028C285.711 139.028 286.545 139.238 287.289 139.658C288.045 140.066 288.633 140.654 289.053 141.422C289.485 142.178 289.701 143.066 289.701 144.086C289.701 145.094 289.485 145.982 289.053 146.75C288.621 147.518 288.027 148.112 287.271 148.532C286.515 148.94 285.675 149.144 284.751 149.144ZM284.751 148.046C285.399 148.046 285.999 147.902 286.551 147.614C287.103 147.314 287.547 146.87 287.883 146.282C288.231 145.682 288.405 144.95 288.405 144.086C288.405 143.222 288.237 142.496 287.901 141.908C287.565 141.308 287.121 140.864 286.569 140.576C286.017 140.276 285.417 140.126 284.769 140.126C284.121 140.126 283.521 140.276 282.969 140.576C282.417 140.864 281.973 141.308 281.637 141.908C281.313 142.496 281.151 143.222 281.151 144.086C281.151 144.95 281.313 145.682 281.637 146.282C281.973 146.87 282.411 147.314 282.951 147.614C283.503 147.902 284.103 148.046 284.751 148.046ZM300.512 139.172V149H299.252V147.272C298.964 147.884 298.52 148.352 297.92 148.676C297.32 149 296.648 149.162 295.904 149.162C294.728 149.162 293.768 148.802 293.024 148.082C292.28 147.35 291.908 146.294 291.908 144.914V139.172H293.15V144.77C293.15 145.838 293.414 146.654 293.942 147.218C294.482 147.782 295.214 148.064 296.138 148.064C297.086 148.064 297.842 147.764 298.406 147.164C298.97 146.564 299.252 145.682 299.252 144.518V139.172H300.512ZM92.0865 166.172L89.0085 176H87.7485L85.0305 167.756L82.3125 176H81.0345L77.9565 166.172H79.2345L81.6825 174.722L84.4365 166.172H85.6965L88.4145 174.74L90.8445 166.172H92.0865ZM94.4343 164.318C94.1823 164.318 93.9663 164.228 93.7863 164.048C93.6063 163.868 93.5163 163.646 93.5163 163.382C93.5163 163.118 93.6063 162.902 93.7863 162.734C93.9663 162.554 94.1823 162.464 94.4343 162.464C94.6863 162.464 94.9023 162.554 95.0823 162.734C95.2623 162.902 95.3523 163.118 95.3523 163.382C95.3523 163.646 95.2623 163.868 95.0823 164.048C94.9023 164.228 94.6863 164.318 94.4343 164.318ZM95.0643 166.172V176H93.8043V166.172H95.0643ZM99.5555 167.234V173.336C99.5555 173.936 99.6695 174.35 99.8975 174.578C100.126 174.806 100.528 174.92 101.104 174.92H102.256V176H100.906C100.018 176 99.3575 175.796 98.9255 175.388C98.4935 174.968 98.2775 174.284 98.2775 173.336V167.234H96.9095V166.172H98.2775V163.706H99.5555V166.172H102.256V167.234H99.5555ZM109.014 165.992C109.758 165.992 110.424 166.148 111.012 166.46C111.612 166.772 112.08 167.252 112.416 167.9C112.764 168.536 112.938 169.316 112.938 170.24V176H111.696V170.384C111.696 169.316 111.426 168.5 110.886 167.936C110.358 167.372 109.632 167.09 108.708 167.09C107.76 167.09 107.004 167.39 106.44 167.99C105.876 168.59 105.594 169.472 105.594 170.636V176H104.334V162.68H105.594V167.846C105.906 167.258 106.362 166.802 106.962 166.478C107.574 166.154 108.258 165.992 109.014 165.992ZM120.088 171.086C120.088 170.066 120.292 169.178 120.7 168.422C121.108 167.654 121.672 167.066 122.392 166.658C123.112 166.238 123.934 166.028 124.858 166.028C126.07 166.028 127.066 166.328 127.846 166.928C128.638 167.528 129.148 168.344 129.376 169.376H128.026C127.858 168.668 127.492 168.116 126.928 167.72C126.376 167.312 125.686 167.108 124.858 167.108C124.198 167.108 123.604 167.258 123.076 167.558C122.548 167.858 122.128 168.308 121.816 168.908C121.516 169.496 121.366 170.222 121.366 171.086C121.366 171.95 121.516 172.682 121.816 173.282C122.128 173.882 122.548 174.332 123.076 174.632C123.604 174.932 124.198 175.082 124.858 175.082C125.686 175.082 126.376 174.884 126.928 174.488C127.492 174.08 127.858 173.516 128.026 172.796H129.376C129.148 173.804 128.638 174.614 127.846 175.226C127.054 175.838 126.058 176.144 124.858 176.144C123.934 176.144 123.112 175.94 122.392 175.532C121.672 175.112 121.108 174.524 120.7 173.768C120.292 173 120.088 172.106 120.088 171.086ZM132.963 162.68V176H131.703V162.68H132.963ZM136.446 164.318C136.194 164.318 135.978 164.228 135.798 164.048C135.618 163.868 135.528 163.646 135.528 163.382C135.528 163.118 135.618 162.902 135.798 162.734C135.978 162.554 136.194 162.464 136.446 162.464C136.698 162.464 136.914 162.554 137.094 162.734C137.274 162.902 137.364 163.118 137.364 163.382C137.364 163.646 137.274 163.868 137.094 164.048C136.914 164.228 136.698 164.318 136.446 164.318ZM137.076 166.172V176H135.816V166.172H137.076ZM148.821 170.582C148.821 171.014 148.809 171.344 148.785 171.572H140.631C140.667 172.316 140.847 172.952 141.171 173.48C141.495 174.008 141.921 174.41 142.449 174.686C142.977 174.95 143.553 175.082 144.177 175.082C144.993 175.082 145.677 174.884 146.229 174.488C146.793 174.092 147.165 173.558 147.345 172.886H148.677C148.437 173.846 147.921 174.632 147.129 175.244C146.349 175.844 145.365 176.144 144.177 176.144C143.253 176.144 142.425 175.94 141.693 175.532C140.961 175.112 140.385 174.524 139.965 173.768C139.557 173 139.353 172.106 139.353 171.086C139.353 170.066 139.557 169.172 139.965 168.404C140.373 167.636 140.943 167.048 141.675 166.64C142.407 166.232 143.241 166.028 144.177 166.028C145.113 166.028 145.929 166.232 146.625 166.64C147.333 167.048 147.873 167.6 148.245 168.296C148.629 168.98 148.821 169.742 148.821 170.582ZM147.543 170.546C147.555 169.814 147.405 169.19 147.093 168.674C146.793 168.158 146.379 167.768 145.851 167.504C145.323 167.24 144.747 167.108 144.123 167.108C143.187 167.108 142.389 167.408 141.729 168.008C141.069 168.608 140.703 169.454 140.631 170.546H147.543ZM155.735 165.992C156.911 165.992 157.871 166.358 158.615 167.09C159.359 167.81 159.731 168.86 159.731 170.24V176H158.489V170.384C158.489 169.316 158.219 168.5 157.679 167.936C157.151 167.372 156.425 167.09 155.501 167.09C154.553 167.09 153.797 167.39 153.233 167.99C152.669 168.59 152.387 169.472 152.387 170.636V176H151.127V166.172H152.387V167.846C152.699 167.246 153.149 166.79 153.737 166.478C154.325 166.154 154.991 165.992 155.735 165.992ZM164.155 167.234V173.336C164.155 173.936 164.269 174.35 164.497 174.578C164.725 174.806 165.127 174.92 165.703 174.92H166.855V176H165.505C164.617 176 163.957 175.796 163.525 175.388C163.093 174.968 162.877 174.284 162.877 173.336V167.234H161.509V166.172H162.877V163.706H164.155V166.172H166.855V167.234H164.155ZM172.317 176.144C171.189 176.144 170.265 175.886 169.545 175.37C168.837 174.842 168.441 174.128 168.357 173.228H169.653C169.713 173.78 169.971 174.23 170.427 174.578C170.895 174.914 171.519 175.082 172.299 175.082C172.983 175.082 173.517 174.92 173.901 174.596C174.297 174.272 174.495 173.87 174.495 173.39C174.495 173.054 174.387 172.778 174.171 172.562C173.955 172.346 173.679 172.178 173.343 172.058C173.019 171.926 172.575 171.788 172.011 171.644C171.279 171.452 170.685 171.26 170.229 171.068C169.773 170.876 169.383 170.594 169.059 170.222C168.747 169.838 168.591 169.328 168.591 168.692C168.591 168.212 168.735 167.768 169.023 167.36C169.311 166.952 169.719 166.628 170.247 166.388C170.775 166.148 171.375 166.028 172.047 166.028C173.103 166.028 173.955 166.298 174.603 166.838C175.251 167.366 175.599 168.098 175.647 169.034H174.387C174.351 168.458 174.123 167.996 173.703 167.648C173.295 167.288 172.731 167.108 172.011 167.108C171.375 167.108 170.859 167.258 170.463 167.558C170.067 167.858 169.869 168.23 169.869 168.674C169.869 169.058 169.983 169.376 170.211 169.628C170.451 169.868 170.745 170.06 171.093 170.204C171.441 170.336 171.909 170.486 172.497 170.654C173.205 170.846 173.769 171.032 174.189 171.212C174.609 171.392 174.969 171.656 175.269 172.004C175.569 172.352 175.725 172.814 175.737 173.39C175.737 173.918 175.593 174.392 175.305 174.812C175.017 175.22 174.615 175.544 174.099 175.784C173.583 176.024 172.989 176.144 172.317 176.144ZM184.686 167.234V173.336C184.686 173.936 184.8 174.35 185.028 174.578C185.256 174.806 185.658 174.92 186.234 174.92H187.386V176H186.036C185.148 176 184.488 175.796 184.056 175.388C183.624 174.968 183.408 174.284 183.408 173.336V167.234H182.04V166.172H183.408V163.706H184.686V166.172H187.386V167.234H184.686ZM194.144 165.992C194.888 165.992 195.554 166.148 196.142 166.46C196.742 166.772 197.21 167.252 197.546 167.9C197.894 168.536 198.068 169.316 198.068 170.24V176H196.826V170.384C196.826 169.316 196.556 168.5 196.016 167.936C195.488 167.372 194.762 167.09 193.838 167.09C192.89 167.09 192.134 167.39 191.57 167.99C191.006 168.59 190.724 169.472 190.724 170.636V176H189.464V162.68H190.724V167.846C191.036 167.258 191.492 166.802 192.092 166.478C192.704 166.154 193.388 165.992 194.144 165.992ZM200.279 171.068C200.279 170.06 200.477 169.178 200.873 168.422C201.281 167.654 201.839 167.066 202.547 166.658C203.267 166.238 204.077 166.028 204.977 166.028C205.913 166.028 206.717 166.244 207.389 166.676C208.073 167.108 208.565 167.66 208.865 168.332V166.172H210.125V176H208.865V173.822C208.553 174.494 208.055 175.052 207.371 175.496C206.699 175.928 205.895 176.144 204.959 176.144C204.071 176.144 203.267 175.934 202.547 175.514C201.839 175.094 201.281 174.5 200.873 173.732C200.477 172.964 200.279 172.076 200.279 171.068ZM208.865 171.086C208.865 170.294 208.703 169.598 208.379 168.998C208.055 168.398 207.611 167.936 207.047 167.612C206.495 167.288 205.883 167.126 205.211 167.126C204.515 167.126 203.891 167.282 203.339 167.594C202.787 167.906 202.349 168.362 202.025 168.962C201.713 169.55 201.557 170.252 201.557 171.068C201.557 171.872 201.713 172.58 202.025 173.192C202.349 173.792 202.787 174.254 203.339 174.578C203.891 174.89 204.515 175.046 205.211 175.046C205.883 175.046 206.495 174.884 207.047 174.56C207.611 174.236 208.055 173.774 208.379 173.174C208.703 172.574 208.865 171.878 208.865 171.086ZM214.64 167.234V173.336C214.64 173.936 214.754 174.35 214.982 174.578C215.21 174.806 215.612 174.92 216.188 174.92H217.34V176H215.99C215.102 176 214.442 175.796 214.01 175.388C213.578 174.968 213.362 174.284 213.362 173.336V167.234H211.994V166.172H213.362V163.706H214.64V166.172H217.34V167.234H214.64ZM236.057 165.992C237.209 165.992 238.145 166.358 238.865 167.09C239.597 167.81 239.963 168.86 239.963 170.24V176H238.721V170.384C238.721 169.316 238.463 168.5 237.947 167.936C237.431 167.372 236.729 167.09 235.841 167.09C234.917 167.09 234.179 167.396 233.627 168.008C233.075 168.62 232.799 169.508 232.799 170.672V176H231.557V170.384C231.557 169.316 231.299 168.5 230.783 167.936C230.267 167.372 229.559 167.09 228.659 167.09C227.735 167.09 226.997 167.396 226.445 168.008C225.893 168.62 225.617 169.508 225.617 170.672V176H224.357V166.172H225.617V167.864C225.929 167.252 226.373 166.79 226.949 166.478C227.525 166.154 228.167 165.992 228.875 165.992C229.727 165.992 230.471 166.196 231.107 166.604C231.755 167.012 232.223 167.612 232.511 168.404C232.775 167.624 233.225 167.03 233.861 166.622C234.509 166.202 235.241 165.992 236.057 165.992ZM242.185 171.068C242.185 170.06 242.383 169.178 242.779 168.422C243.187 167.654 243.745 167.066 244.453 166.658C245.173 166.238 245.983 166.028 246.883 166.028C247.819 166.028 248.623 166.244 249.295 166.676C249.979 167.108 250.471 167.66 250.771 168.332V166.172H252.031V176H250.771V173.822C250.459 174.494 249.961 175.052 249.277 175.496C248.605 175.928 247.801 176.144 246.865 176.144C245.977 176.144 245.173 175.934 244.453 175.514C243.745 175.094 243.187 174.5 242.779 173.732C242.383 172.964 242.185 172.076 242.185 171.068ZM250.771 171.086C250.771 170.294 250.609 169.598 250.285 168.998C249.961 168.398 249.517 167.936 248.953 167.612C248.401 167.288 247.789 167.126 247.117 167.126C246.421 167.126 245.797 167.282 245.245 167.594C244.693 167.906 244.255 168.362 243.931 168.962C243.619 169.55 243.463 170.252 243.463 171.068C243.463 171.872 243.619 172.58 243.931 173.192C244.255 173.792 244.693 174.254 245.245 174.578C245.797 174.89 246.421 175.046 247.117 175.046C247.789 175.046 248.401 174.884 248.953 174.56C249.517 174.236 249.961 173.774 250.285 173.174C250.609 172.574 250.771 171.878 250.771 171.086ZM256.546 167.234V173.336C256.546 173.936 256.66 174.35 256.888 174.578C257.116 174.806 257.518 174.92 258.094 174.92H259.246V176H257.896C257.008 176 256.348 175.796 255.916 175.388C255.484 174.968 255.268 174.284 255.268 173.336V167.234H253.9V166.172H255.268V163.706H256.546V166.172H259.246V167.234H256.546ZM260.748 171.086C260.748 170.066 260.952 169.178 261.36 168.422C261.768 167.654 262.332 167.066 263.052 166.658C263.772 166.238 264.594 166.028 265.518 166.028C266.73 166.028 267.726 166.328 268.506 166.928C269.298 167.528 269.808 168.344 270.036 169.376H268.686C268.518 168.668 268.152 168.116 267.588 167.72C267.036 167.312 266.346 167.108 265.518 167.108C264.858 167.108 264.264 167.258 263.736 167.558C263.208 167.858 262.788 168.308 262.476 168.908C262.176 169.496 262.026 170.222 262.026 171.086C262.026 171.95 262.176 172.682 262.476 173.282C262.788 173.882 263.208 174.332 263.736 174.632C264.264 174.932 264.858 175.082 265.518 175.082C266.346 175.082 267.036 174.884 267.588 174.488C268.152 174.08 268.518 173.516 268.686 172.796H270.036C269.808 173.804 269.298 174.614 268.506 175.226C267.714 175.838 266.718 176.144 265.518 176.144C264.594 176.144 263.772 175.94 263.052 175.532C262.332 175.112 261.768 174.524 261.36 173.768C260.952 173 260.748 172.106 260.748 171.086ZM277.043 165.992C277.787 165.992 278.453 166.148 279.041 166.46C279.641 166.772 280.109 167.252 280.445 167.9C280.793 168.536 280.967 169.316 280.967 170.24V176H279.725V170.384C279.725 169.316 279.455 168.5 278.915 167.936C278.387 167.372 277.661 167.09 276.737 167.09C275.789 167.09 275.033 167.39 274.469 167.99C273.905 168.59 273.623 169.472 273.623 170.636V176H272.363V162.68H273.623V167.846C273.935 167.258 274.391 166.802 274.991 166.478C275.603 166.154 276.287 165.992 277.043 165.992ZM107.046 193.172L101.214 207.626H99.8999L101.808 202.946L97.7759 193.172H99.1619L102.51 201.56L105.75 193.172H107.046ZM113.056 203.144C112.132 203.144 111.298 202.94 110.554 202.532C109.822 202.112 109.24 201.524 108.808 200.768C108.388 200 108.178 199.106 108.178 198.086C108.178 197.066 108.394 196.178 108.826 195.422C109.258 194.654 109.846 194.066 110.59 193.658C111.334 193.238 112.168 193.028 113.092 193.028C114.016 193.028 114.85 193.238 115.594 193.658C116.35 194.066 116.938 194.654 117.358 195.422C117.79 196.178 118.006 197.066 118.006 198.086C118.006 199.094 117.79 199.982 117.358 200.75C116.926 201.518 116.332 202.112 115.576 202.532C114.82 202.94 113.98 203.144 113.056 203.144ZM113.056 202.046C113.704 202.046 114.304 201.902 114.856 201.614C115.408 201.314 115.852 200.87 116.188 200.282C116.536 199.682 116.71 198.95 116.71 198.086C116.71 197.222 116.542 196.496 116.206 195.908C115.87 195.308 115.426 194.864 114.874 194.576C114.322 194.276 113.722 194.126 113.074 194.126C112.426 194.126 111.826 194.276 111.274 194.576C110.722 194.864 110.278 195.308 109.942 195.908C109.618 196.496 109.456 197.222 109.456 198.086C109.456 198.95 109.618 199.682 109.942 200.282C110.278 200.87 110.716 201.314 111.256 201.614C111.808 201.902 112.408 202.046 113.056 202.046ZM128.817 193.172V203H127.557V201.272C127.269 201.884 126.825 202.352 126.225 202.676C125.625 203 124.953 203.162 124.209 203.162C123.033 203.162 122.073 202.802 121.329 202.082C120.585 201.35 120.213 200.294 120.213 198.914V193.172H121.455V198.77C121.455 199.838 121.719 200.654 122.247 201.218C122.787 201.782 123.519 202.064 124.443 202.064C125.391 202.064 126.147 201.764 126.711 201.164C127.275 200.564 127.557 199.682 127.557 198.518V193.172H128.817ZM132.954 194.918C133.23 194.306 133.65 193.832 134.214 193.496C134.79 193.16 135.492 192.992 136.32 192.992V194.306H135.978C135.066 194.306 134.334 194.552 133.782 195.044C133.23 195.536 132.954 196.358 132.954 197.51V203H131.694V193.172H132.954V194.918ZM146.539 203.144C145.411 203.144 144.487 202.886 143.767 202.37C143.059 201.842 142.663 201.128 142.579 200.228H143.875C143.935 200.78 144.193 201.23 144.649 201.578C145.117 201.914 145.741 202.082 146.521 202.082C147.205 202.082 147.739 201.92 148.123 201.596C148.519 201.272 148.717 200.87 148.717 200.39C148.717 200.054 148.609 199.778 148.393 199.562C148.177 199.346 147.901 199.178 147.565 199.058C147.241 198.926 146.797 198.788 146.233 198.644C145.501 198.452 144.907 198.26 144.451 198.068C143.995 197.876 143.605 197.594 143.281 197.222C142.969 196.838 142.813 196.328 142.813 195.692C142.813 195.212 142.957 194.768 143.245 194.36C143.533 193.952 143.941 193.628 144.469 193.388C144.997 193.148 145.597 193.028 146.269 193.028C147.325 193.028 148.177 193.298 148.825 193.838C149.473 194.366 149.821 195.098 149.869 196.034H148.609C148.573 195.458 148.345 194.996 147.925 194.648C147.517 194.288 146.953 194.108 146.233 194.108C145.597 194.108 145.081 194.258 144.685 194.558C144.289 194.858 144.091 195.23 144.091 195.674C144.091 196.058 144.205 196.376 144.433 196.628C144.673 196.868 144.967 197.06 145.315 197.204C145.663 197.336 146.131 197.486 146.719 197.654C147.427 197.846 147.991 198.032 148.411 198.212C148.831 198.392 149.191 198.656 149.491 199.004C149.791 199.352 149.947 199.814 149.959 200.39C149.959 200.918 149.815 201.392 149.527 201.812C149.239 202.22 148.837 202.544 148.321 202.784C147.805 203.024 147.211 203.144 146.539 203.144ZM153.573 195.332C153.885 194.672 154.377 194.126 155.049 193.694C155.733 193.25 156.543 193.028 157.479 193.028C158.367 193.028 159.165 193.238 159.873 193.658C160.593 194.066 161.151 194.654 161.547 195.422C161.955 196.178 162.159 197.06 162.159 198.068C162.159 199.076 161.955 199.964 161.547 200.732C161.151 201.5 160.593 202.094 159.873 202.514C159.165 202.934 158.367 203.144 157.479 203.144C156.555 203.144 155.751 202.928 155.067 202.496C154.383 202.052 153.885 201.5 153.573 200.84V207.644H152.331V193.172H153.573V195.332ZM160.881 198.068C160.881 197.252 160.719 196.55 160.395 195.962C160.083 195.362 159.651 194.906 159.099 194.594C158.547 194.282 157.923 194.126 157.227 194.126C156.555 194.126 155.937 194.288 155.373 194.612C154.821 194.936 154.383 195.398 154.059 195.998C153.735 196.598 153.573 197.294 153.573 198.086C153.573 198.878 153.735 199.574 154.059 200.174C154.383 200.774 154.821 201.236 155.373 201.56C155.937 201.884 156.555 202.046 157.227 202.046C157.923 202.046 158.547 201.89 159.099 201.578C159.651 201.254 160.083 200.792 160.395 200.192C160.719 199.58 160.881 198.872 160.881 198.068ZM173.369 197.582C173.369 198.014 173.357 198.344 173.333 198.572H165.179C165.215 199.316 165.395 199.952 165.719 200.48C166.043 201.008 166.469 201.41 166.997 201.686C167.525 201.95 168.101 202.082 168.725 202.082C169.541 202.082 170.225 201.884 170.777 201.488C171.341 201.092 171.713 200.558 171.893 199.886H173.225C172.985 200.846 172.469 201.632 171.677 202.244C170.897 202.844 169.913 203.144 168.725 203.144C167.801 203.144 166.973 202.94 166.241 202.532C165.509 202.112 164.933 201.524 164.513 200.768C164.105 200 163.901 199.106 163.901 198.086C163.901 197.066 164.105 196.172 164.513 195.404C164.921 194.636 165.491 194.048 166.223 193.64C166.955 193.232 167.789 193.028 168.725 193.028C169.661 193.028 170.477 193.232 171.173 193.64C171.881 194.048 172.421 194.6 172.793 195.296C173.177 195.98 173.369 196.742 173.369 197.582ZM172.091 197.546C172.103 196.814 171.953 196.19 171.641 195.674C171.341 195.158 170.927 194.768 170.399 194.504C169.871 194.24 169.295 194.108 168.671 194.108C167.735 194.108 166.937 194.408 166.277 195.008C165.617 195.608 165.251 196.454 165.179 197.546H172.091ZM175.098 198.086C175.098 197.066 175.302 196.178 175.71 195.422C176.118 194.654 176.682 194.066 177.402 193.658C178.122 193.238 178.944 193.028 179.868 193.028C181.08 193.028 182.076 193.328 182.856 193.928C183.648 194.528 184.158 195.344 184.386 196.376H183.036C182.868 195.668 182.502 195.116 181.938 194.72C181.386 194.312 180.696 194.108 179.868 194.108C179.208 194.108 178.614 194.258 178.086 194.558C177.558 194.858 177.138 195.308 176.826 195.908C176.526 196.496 176.376 197.222 176.376 198.086C176.376 198.95 176.526 199.682 176.826 200.282C177.138 200.882 177.558 201.332 178.086 201.632C178.614 201.932 179.208 202.082 179.868 202.082C180.696 202.082 181.386 201.884 181.938 201.488C182.502 201.08 182.868 200.516 183.036 199.796H184.386C184.158 200.804 183.648 201.614 182.856 202.226C182.064 202.838 181.068 203.144 179.868 203.144C178.944 203.144 178.122 202.94 177.402 202.532C176.682 202.112 176.118 201.524 175.71 200.768C175.302 200 175.098 199.106 175.098 198.086ZM187.343 191.318C187.091 191.318 186.875 191.228 186.695 191.048C186.515 190.868 186.425 190.646 186.425 190.382C186.425 190.118 186.515 189.902 186.695 189.734C186.875 189.554 187.091 189.464 187.343 189.464C187.595 189.464 187.811 189.554 187.991 189.734C188.171 189.902 188.261 190.118 188.261 190.382C188.261 190.646 188.171 190.868 187.991 191.048C187.811 191.228 187.595 191.318 187.343 191.318ZM187.973 193.172V203H186.713V193.172H187.973ZM190.251 198.068C190.251 197.06 190.449 196.178 190.845 195.422C191.253 194.654 191.811 194.066 192.519 193.658C193.239 193.238 194.049 193.028 194.949 193.028C195.885 193.028 196.689 193.244 197.361 193.676C198.045 194.108 198.537 194.66 198.837 195.332V193.172H200.097V203H198.837V200.822C198.525 201.494 198.027 202.052 197.343 202.496C196.671 202.928 195.867 203.144 194.931 203.144C194.043 203.144 193.239 202.934 192.519 202.514C191.811 202.094 191.253 201.5 190.845 200.732C190.449 199.964 190.251 199.076 190.251 198.068ZM198.837 198.086C198.837 197.294 198.675 196.598 198.351 195.998C198.027 195.398 197.583 194.936 197.019 194.612C196.467 194.288 195.855 194.126 195.183 194.126C194.487 194.126 193.863 194.282 193.311 194.594C192.759 194.906 192.321 195.362 191.997 195.962C191.685 196.55 191.529 197.252 191.529 198.068C191.529 198.872 191.685 199.58 191.997 200.192C192.321 200.792 192.759 201.254 193.311 201.578C193.863 201.89 194.487 202.046 195.183 202.046C195.855 202.046 196.467 201.884 197.019 201.56C197.583 201.236 198.027 200.774 198.351 200.174C198.675 199.574 198.837 198.878 198.837 198.086ZM204.233 189.68V203H202.973V189.68H204.233ZM208.724 194.234V200.336C208.724 200.936 208.838 201.35 209.066 201.578C209.294 201.806 209.696 201.92 210.272 201.92H211.424V203H210.074C209.186 203 208.526 202.796 208.094 202.388C207.662 201.968 207.446 201.284 207.446 200.336V194.234H206.078V193.172H207.446V190.706H208.724V193.172H211.424V194.234H208.724ZM221.603 193.172L215.771 207.626H214.457L216.365 202.946L212.333 193.172H213.719L217.067 201.56L220.307 193.172H221.603ZM227.675 198.068C227.675 197.06 227.873 196.178 228.269 195.422C228.677 194.654 229.235 194.066 229.943 193.658C230.663 193.238 231.473 193.028 232.373 193.028C233.309 193.028 234.113 193.244 234.785 193.676C235.469 194.108 235.961 194.66 236.261 195.332V193.172H237.521V203H236.261V200.822C235.949 201.494 235.451 202.052 234.767 202.496C234.095 202.928 233.291 203.144 232.355 203.144C231.467 203.144 230.663 202.934 229.943 202.514C229.235 202.094 228.677 201.5 228.269 200.732C227.873 199.964 227.675 199.076 227.675 198.068ZM236.261 198.086C236.261 197.294 236.099 196.598 235.775 195.998C235.451 195.398 235.007 194.936 234.443 194.612C233.891 194.288 233.279 194.126 232.607 194.126C231.911 194.126 231.287 194.282 230.735 194.594C230.183 194.906 229.745 195.362 229.421 195.962C229.109 196.55 228.953 197.252 228.953 198.068C228.953 198.872 229.109 199.58 229.421 200.192C229.745 200.792 230.183 201.254 230.735 201.578C231.287 201.89 231.911 202.046 232.607 202.046C233.279 202.046 233.891 201.884 234.443 201.56C235.007 201.236 235.451 200.774 235.775 200.174C236.099 199.574 236.261 198.878 236.261 198.086ZM245.005 192.992C246.181 192.992 247.141 193.358 247.885 194.09C248.629 194.81 249.001 195.86 249.001 197.24V203H247.759V197.384C247.759 196.316 247.489 195.5 246.949 194.936C246.421 194.372 245.695 194.09 244.771 194.09C243.823 194.09 243.067 194.39 242.503 194.99C241.939 195.59 241.657 196.472 241.657 197.636V203H240.397V193.172H241.657V194.846C241.969 194.246 242.419 193.79 243.007 193.478C243.595 193.154 244.261 192.992 245.005 192.992ZM251.212 198.068C251.212 197.06 251.416 196.178 251.824 195.422C252.232 194.654 252.79 194.066 253.498 193.658C254.218 193.238 255.028 193.028 255.928 193.028C256.792 193.028 257.572 193.238 258.268 193.658C258.964 194.078 259.474 194.624 259.798 195.296V189.68H261.058V203H259.798V200.804C259.498 201.488 259.006 202.052 258.322 202.496C257.638 202.928 256.834 203.144 255.91 203.144C255.01 203.144 254.2 202.934 253.48 202.514C252.772 202.094 252.214 201.5 251.806 200.732C251.41 199.964 251.212 199.076 251.212 198.068ZM259.798 198.086C259.798 197.294 259.636 196.598 259.312 195.998C258.988 195.398 258.544 194.936 257.98 194.612C257.428 194.288 256.816 194.126 256.144 194.126C255.448 194.126 254.824 194.282 254.272 194.594C253.72 194.906 253.282 195.362 252.958 195.962C252.646 196.55 252.49 197.252 252.49 198.068C252.49 198.872 252.646 199.58 252.958 200.192C253.282 200.792 253.72 201.254 254.272 201.578C254.824 201.89 255.448 202.046 256.144 202.046C256.816 202.046 257.428 201.884 257.98 201.56C258.544 201.236 258.988 200.774 259.312 200.174C259.636 199.574 259.798 198.878 259.798 198.086ZM86.5736 222.332C86.8856 221.672 87.3776 221.126 88.0496 220.694C88.7336 220.25 89.5436 220.028 90.4796 220.028C91.3676 220.028 92.1656 220.238 92.8736 220.658C93.5936 221.066 94.1516 221.654 94.5476 222.422C94.9556 223.178 95.1596 224.06 95.1596 225.068C95.1596 226.076 94.9556 226.964 94.5476 227.732C94.1516 228.5 93.5936 229.094 92.8736 229.514C92.1656 229.934 91.3676 230.144 90.4796 230.144C89.5556 230.144 88.7516 229.928 88.0676 229.496C87.3836 229.052 86.8856 228.5 86.5736 227.84V234.644H85.3316V220.172H86.5736V222.332ZM93.8816 225.068C93.8816 224.252 93.7196 223.55 93.3956 222.962C93.0836 222.362 92.6516 221.906 92.0996 221.594C91.5476 221.282 90.9236 221.126 90.2276 221.126C89.5556 221.126 88.9376 221.288 88.3736 221.612C87.8216 221.936 87.3836 222.398 87.0596 222.998C86.7356 223.598 86.5736 224.294 86.5736 225.086C86.5736 225.878 86.7356 226.574 87.0596 227.174C87.3836 227.774 87.8216 228.236 88.3736 228.56C88.9376 228.884 89.5556 229.046 90.2276 229.046C90.9236 229.046 91.5476 228.89 92.0996 228.578C92.6516 228.254 93.0836 227.792 93.3956 227.192C93.7196 226.58 93.8816 225.872 93.8816 225.068ZM98.7381 221.918C99.0141 221.306 99.4341 220.832 99.9981 220.496C100.574 220.16 101.276 219.992 102.104 219.992V221.306H101.762C100.85 221.306 100.118 221.552 99.5661 222.044C99.0141 222.536 98.7381 223.358 98.7381 224.51V230H97.4781V220.172H98.7381V221.918ZM112.892 224.582C112.892 225.014 112.88 225.344 112.856 225.572H104.702C104.738 226.316 104.918 226.952 105.242 227.48C105.566 228.008 105.992 228.41 106.52 228.686C107.048 228.95 107.624 229.082 108.248 229.082C109.064 229.082 109.748 228.884 110.3 228.488C110.864 228.092 111.236 227.558 111.416 226.886H112.748C112.508 227.846 111.992 228.632 111.2 229.244C110.42 229.844 109.436 230.144 108.248 230.144C107.324 230.144 106.496 229.94 105.764 229.532C105.032 229.112 104.456 228.524 104.036 227.768C103.628 227 103.424 226.106 103.424 225.086C103.424 224.066 103.628 223.172 104.036 222.404C104.444 221.636 105.014 221.048 105.746 220.64C106.478 220.232 107.312 220.028 108.248 220.028C109.184 220.028 110 220.232 110.696 220.64C111.404 221.048 111.944 221.6 112.316 222.296C112.7 222.98 112.892 223.742 112.892 224.582ZM111.614 224.546C111.626 223.814 111.476 223.19 111.164 222.674C110.864 222.158 110.45 221.768 109.922 221.504C109.394 221.24 108.818 221.108 108.194 221.108C107.258 221.108 106.46 221.408 105.8 222.008C105.14 222.608 104.774 223.454 104.702 224.546H111.614ZM119.067 221.234H116.781V230H115.521V221.234H114.153V220.172H115.521V219.488C115.521 218.42 115.791 217.634 116.331 217.13C116.883 216.626 117.771 216.374 118.995 216.374V217.454C118.179 217.454 117.603 217.61 117.267 217.922C116.943 218.234 116.781 218.756 116.781 219.488V220.172H119.067V221.234ZM129.942 224.582C129.942 225.014 129.93 225.344 129.906 225.572H121.752C121.788 226.316 121.968 226.952 122.292 227.48C122.616 228.008 123.042 228.41 123.57 228.686C124.098 228.95 124.674 229.082 125.298 229.082C126.114 229.082 126.798 228.884 127.35 228.488C127.914 228.092 128.286 227.558 128.466 226.886H129.798C129.558 227.846 129.042 228.632 128.25 229.244C127.47 229.844 126.486 230.144 125.298 230.144C124.374 230.144 123.546 229.94 122.814 229.532C122.082 229.112 121.506 228.524 121.086 227.768C120.678 227 120.474 226.106 120.474 225.086C120.474 224.066 120.678 223.172 121.086 222.404C121.494 221.636 122.064 221.048 122.796 220.64C123.528 220.232 124.362 220.028 125.298 220.028C126.234 220.028 127.05 220.232 127.746 220.64C128.454 221.048 128.994 221.6 129.366 222.296C129.75 222.98 129.942 223.742 129.942 224.582ZM128.664 224.546C128.676 223.814 128.526 223.19 128.214 222.674C127.914 222.158 127.5 221.768 126.972 221.504C126.444 221.24 125.868 221.108 125.244 221.108C124.308 221.108 123.51 221.408 122.85 222.008C122.19 222.608 121.824 223.454 121.752 224.546H128.664ZM133.508 221.918C133.784 221.306 134.204 220.832 134.768 220.496C135.344 220.16 136.046 219.992 136.874 219.992V221.306H136.532C135.62 221.306 134.888 221.552 134.336 222.044C133.784 222.536 133.508 223.358 133.508 224.51V230H132.248V220.172H133.508V221.918ZM140.029 221.918C140.305 221.306 140.725 220.832 141.289 220.496C141.865 220.16 142.567 219.992 143.395 219.992V221.306H143.053C142.141 221.306 141.409 221.552 140.857 222.044C140.305 222.536 140.029 223.358 140.029 224.51V230H138.769V220.172H140.029V221.918ZM154.183 224.582C154.183 225.014 154.171 225.344 154.147 225.572H145.993C146.029 226.316 146.209 226.952 146.533 227.48C146.857 228.008 147.283 228.41 147.811 228.686C148.339 228.95 148.915 229.082 149.539 229.082C150.355 229.082 151.039 228.884 151.591 228.488C152.155 228.092 152.527 227.558 152.707 226.886H154.039C153.799 227.846 153.283 228.632 152.491 229.244C151.711 229.844 150.727 230.144 149.539 230.144C148.615 230.144 147.787 229.94 147.055 229.532C146.323 229.112 145.747 228.524 145.327 227.768C144.919 227 144.715 226.106 144.715 225.086C144.715 224.066 144.919 223.172 145.327 222.404C145.735 221.636 146.305 221.048 147.037 220.64C147.769 220.232 148.603 220.028 149.539 220.028C150.475 220.028 151.291 220.232 151.987 220.64C152.695 221.048 153.235 221.6 153.607 222.296C153.991 222.98 154.183 223.742 154.183 224.582ZM152.905 224.546C152.917 223.814 152.767 223.19 152.455 222.674C152.155 222.158 151.741 221.768 151.213 221.504C150.685 221.24 150.109 221.108 149.485 221.108C148.549 221.108 147.751 221.408 147.091 222.008C146.431 222.608 146.065 223.454 145.993 224.546H152.905ZM155.912 225.068C155.912 224.06 156.116 223.178 156.524 222.422C156.932 221.654 157.49 221.066 158.198 220.658C158.918 220.238 159.728 220.028 160.628 220.028C161.492 220.028 162.272 220.238 162.968 220.658C163.664 221.078 164.174 221.624 164.498 222.296V216.68H165.758V230H164.498V227.804C164.198 228.488 163.706 229.052 163.022 229.496C162.338 229.928 161.534 230.144 160.61 230.144C159.71 230.144 158.9 229.934 158.18 229.514C157.472 229.094 156.914 228.5 156.506 227.732C156.11 226.964 155.912 226.076 155.912 225.068ZM164.498 225.086C164.498 224.294 164.336 223.598 164.012 222.998C163.688 222.398 163.244 221.936 162.68 221.612C162.128 221.288 161.516 221.126 160.844 221.126C160.148 221.126 159.524 221.282 158.972 221.594C158.42 221.906 157.982 222.362 157.658 222.962C157.346 223.55 157.19 224.252 157.19 225.068C157.19 225.872 157.346 226.58 157.658 227.192C157.982 227.792 158.42 228.254 158.972 228.578C159.524 228.89 160.148 229.046 160.844 229.046C161.516 229.046 162.128 228.884 162.68 228.56C163.244 228.236 163.688 227.774 164.012 227.174C164.336 226.574 164.498 225.878 164.498 225.086ZM175.212 221.234V227.336C175.212 227.936 175.326 228.35 175.554 228.578C175.782 228.806 176.184 228.92 176.76 228.92H177.912V230H176.562C175.674 230 175.014 229.796 174.582 229.388C174.15 228.968 173.934 228.284 173.934 227.336V221.234H172.566V220.172H173.934V217.706H175.212V220.172H177.912V221.234H175.212ZM184.67 219.992C185.414 219.992 186.08 220.148 186.668 220.46C187.268 220.772 187.736 221.252 188.072 221.9C188.42 222.536 188.594 223.316 188.594 224.24V230H187.352V224.384C187.352 223.316 187.082 222.5 186.542 221.936C186.014 221.372 185.288 221.09 184.364 221.09C183.416 221.09 182.66 221.39 182.096 221.99C181.532 222.59 181.25 223.472 181.25 224.636V230H179.99V216.68H181.25V221.846C181.562 221.258 182.018 220.802 182.618 220.478C183.23 220.154 183.914 219.992 184.67 219.992ZM200.272 224.582C200.272 225.014 200.26 225.344 200.236 225.572H192.082C192.118 226.316 192.298 226.952 192.622 227.48C192.946 228.008 193.372 228.41 193.9 228.686C194.428 228.95 195.004 229.082 195.628 229.082C196.444 229.082 197.128 228.884 197.68 228.488C198.244 228.092 198.616 227.558 198.796 226.886H200.128C199.888 227.846 199.372 228.632 198.58 229.244C197.8 229.844 196.816 230.144 195.628 230.144C194.704 230.144 193.876 229.94 193.144 229.532C192.412 229.112 191.836 228.524 191.416 227.768C191.008 227 190.804 226.106 190.804 225.086C190.804 224.066 191.008 223.172 191.416 222.404C191.824 221.636 192.394 221.048 193.126 220.64C193.858 220.232 194.692 220.028 195.628 220.028C196.564 220.028 197.38 220.232 198.076 220.64C198.784 221.048 199.324 221.6 199.696 222.296C200.08 222.98 200.272 223.742 200.272 224.582ZM198.994 224.546C199.006 223.814 198.856 223.19 198.544 222.674C198.244 222.158 197.83 221.768 197.302 221.504C196.774 221.24 196.198 221.108 195.574 221.108C194.638 221.108 193.84 221.408 193.18 222.008C192.52 222.608 192.154 223.454 192.082 224.546H198.994ZM203.838 221.918C204.114 221.306 204.534 220.832 205.098 220.496C205.674 220.16 206.376 219.992 207.204 219.992V221.306H206.862C205.95 221.306 205.218 221.552 204.666 222.044C204.114 222.536 203.838 223.358 203.838 224.51V230H202.578V220.172H203.838V221.918ZM208.523 225.068C208.523 224.06 208.721 223.178 209.117 222.422C209.525 221.654 210.083 221.066 210.791 220.658C211.511 220.238 212.321 220.028 213.221 220.028C214.157 220.028 214.961 220.244 215.633 220.676C216.317 221.108 216.809 221.66 217.109 222.332V220.172H218.369V230H217.109V227.822C216.797 228.494 216.299 229.052 215.615 229.496C214.943 229.928 214.139 230.144 213.203 230.144C212.315 230.144 211.511 229.934 210.791 229.514C210.083 229.094 209.525 228.5 209.117 227.732C208.721 226.964 208.523 226.076 208.523 225.068ZM217.109 225.086C217.109 224.294 216.947 223.598 216.623 222.998C216.299 222.398 215.855 221.936 215.291 221.612C214.739 221.288 214.127 221.126 213.455 221.126C212.759 221.126 212.135 221.282 211.583 221.594C211.031 221.906 210.593 222.362 210.269 222.962C209.957 223.55 209.801 224.252 209.801 225.068C209.801 225.872 209.957 226.58 210.269 227.192C210.593 227.792 211.031 228.254 211.583 228.578C212.135 228.89 212.759 229.046 213.455 229.046C214.127 229.046 214.739 228.884 215.291 228.56C215.855 228.236 216.299 227.774 216.623 227.174C216.947 226.574 217.109 225.878 217.109 225.086ZM222.488 222.332C222.8 221.672 223.292 221.126 223.964 220.694C224.648 220.25 225.458 220.028 226.394 220.028C227.282 220.028 228.08 220.238 228.788 220.658C229.508 221.066 230.066 221.654 230.462 222.422C230.87 223.178 231.074 224.06 231.074 225.068C231.074 226.076 230.87 226.964 230.462 227.732C230.066 228.5 229.508 229.094 228.788 229.514C228.08 229.934 227.282 230.144 226.394 230.144C225.47 230.144 224.666 229.928 223.982 229.496C223.298 229.052 222.8 228.5 222.488 227.84V234.644H221.246V220.172H222.488V222.332ZM229.796 225.068C229.796 224.252 229.634 223.55 229.31 222.962C228.998 222.362 228.566 221.906 228.014 221.594C227.462 221.282 226.838 221.126 226.142 221.126C225.47 221.126 224.852 221.288 224.288 221.612C223.736 221.936 223.298 222.398 222.974 222.998C222.65 223.598 222.488 224.294 222.488 225.086C222.488 225.878 222.65 226.574 222.974 227.174C223.298 227.774 223.736 228.236 224.288 228.56C224.852 228.884 225.47 229.046 226.142 229.046C226.838 229.046 227.462 228.89 228.014 228.578C228.566 228.254 228.998 227.792 229.31 227.192C229.634 226.58 229.796 225.872 229.796 225.068ZM242.284 224.582C242.284 225.014 242.272 225.344 242.248 225.572H234.094C234.13 226.316 234.31 226.952 234.634 227.48C234.958 228.008 235.384 228.41 235.912 228.686C236.44 228.95 237.016 229.082 237.64 229.082C238.456 229.082 239.14 228.884 239.692 228.488C240.256 228.092 240.628 227.558 240.808 226.886H242.14C241.9 227.846 241.384 228.632 240.592 229.244C239.812 229.844 238.828 230.144 237.64 230.144C236.716 230.144 235.888 229.94 235.156 229.532C234.424 229.112 233.848 228.524 233.428 227.768C233.02 227 232.816 226.106 232.816 225.086C232.816 224.066 233.02 223.172 233.428 222.404C233.836 221.636 234.406 221.048 235.138 220.64C235.87 220.232 236.704 220.028 237.64 220.028C238.576 220.028 239.392 220.232 240.088 220.64C240.796 221.048 241.336 221.6 241.708 222.296C242.092 222.98 242.284 223.742 242.284 224.582ZM241.006 224.546C241.018 223.814 240.868 223.19 240.556 222.674C240.256 222.158 239.842 221.768 239.314 221.504C238.786 221.24 238.21 221.108 237.586 221.108C236.65 221.108 235.852 221.408 235.192 222.008C234.532 222.608 234.166 223.454 234.094 224.546H241.006ZM253.103 220.172V230H251.843V228.272C251.555 228.884 251.111 229.352 250.511 229.676C249.911 230 249.239 230.162 248.495 230.162C247.319 230.162 246.359 229.802 245.615 229.082C244.871 228.35 244.499 227.294 244.499 225.914V220.172H245.741V225.77C245.741 226.838 246.005 227.654 246.533 228.218C247.073 228.782 247.805 229.064 248.729 229.064C249.677 229.064 250.433 228.764 250.997 228.164C251.561 227.564 251.843 226.682 251.843 225.518V220.172H253.103ZM257.618 221.234V227.336C257.618 227.936 257.732 228.35 257.96 228.578C258.188 228.806 258.59 228.92 259.166 228.92H260.318V230H258.968C258.08 230 257.42 229.796 256.988 229.388C256.556 228.968 256.34 228.284 256.34 227.336V221.234H254.972V220.172H256.34V217.706H257.618V220.172H260.318V221.234H257.618ZM263.026 218.318C262.774 218.318 262.558 218.228 262.378 218.048C262.198 217.868 262.108 217.646 262.108 217.382C262.108 217.118 262.198 216.902 262.378 216.734C262.558 216.554 262.774 216.464 263.026 216.464C263.278 216.464 263.494 216.554 263.674 216.734C263.854 216.902 263.944 217.118 263.944 217.382C263.944 217.646 263.854 217.868 263.674 218.048C263.494 218.228 263.278 218.318 263.026 218.318ZM263.656 220.172V230H262.396V220.172H263.656ZM265.933 225.086C265.933 224.066 266.137 223.178 266.545 222.422C266.953 221.654 267.517 221.066 268.237 220.658C268.957 220.238 269.779 220.028 270.703 220.028C271.915 220.028 272.911 220.328 273.691 220.928C274.483 221.528 274.993 222.344 275.221 223.376H273.871C273.703 222.668 273.337 222.116 272.773 221.72C272.221 221.312 271.531 221.108 270.703 221.108C270.043 221.108 269.449 221.258 268.921 221.558C268.393 221.858 267.973 222.308 267.661 222.908C267.361 223.496 267.211 224.222 267.211 225.086C267.211 225.95 267.361 226.682 267.661 227.282C267.973 227.882 268.393 228.332 268.921 228.632C269.449 228.932 270.043 229.082 270.703 229.082C271.531 229.082 272.221 228.884 272.773 228.488C273.337 228.08 273.703 227.516 273.871 226.796H275.221C274.993 227.804 274.483 228.614 273.691 229.226C272.899 229.838 271.903 230.144 270.703 230.144C269.779 230.144 268.957 229.94 268.237 229.532C267.517 229.112 266.953 228.524 266.545 227.768C266.137 227 265.933 226.106 265.933 225.086ZM159.847 246.992C160.999 246.992 161.935 247.358 162.655 248.09C163.387 248.81 163.753 249.86 163.753 251.24V257H162.511V251.384C162.511 250.316 162.253 249.5 161.737 248.936C161.221 248.372 160.519 248.09 159.631 248.09C158.707 248.09 157.969 248.396 157.417 249.008C156.865 249.62 156.589 250.508 156.589 251.672V257H155.347V251.384C155.347 250.316 155.089 249.5 154.573 248.936C154.057 248.372 153.349 248.09 152.449 248.09C151.525 248.09 150.787 248.396 150.235 249.008C149.683 249.62 149.407 250.508 149.407 251.672V257H148.147V247.172H149.407V248.864C149.719 248.252 150.163 247.79 150.739 247.478C151.315 247.154 151.957 246.992 152.665 246.992C153.517 246.992 154.261 247.196 154.897 247.604C155.545 248.012 156.013 248.612 156.301 249.404C156.565 248.624 157.015 248.03 157.651 247.622C158.299 247.202 159.031 246.992 159.847 246.992ZM170.853 257.144C169.929 257.144 169.095 256.94 168.351 256.532C167.619 256.112 167.037 255.524 166.605 254.768C166.185 254 165.975 253.106 165.975 252.086C165.975 251.066 166.191 250.178 166.623 249.422C167.055 248.654 167.643 248.066 168.387 247.658C169.131 247.238 169.965 247.028 170.889 247.028C171.813 247.028 172.647 247.238 173.391 247.658C174.147 248.066 174.735 248.654 175.155 249.422C175.587 250.178 175.803 251.066 175.803 252.086C175.803 253.094 175.587 253.982 175.155 254.75C174.723 255.518 174.129 256.112 173.373 256.532C172.617 256.94 171.777 257.144 170.853 257.144ZM170.853 256.046C171.501 256.046 172.101 255.902 172.653 255.614C173.205 255.314 173.649 254.87 173.985 254.282C174.333 253.682 174.507 252.95 174.507 252.086C174.507 251.222 174.339 250.496 174.003 249.908C173.667 249.308 173.223 248.864 172.671 248.576C172.119 248.276 171.519 248.126 170.871 248.126C170.223 248.126 169.623 248.276 169.071 248.576C168.519 248.864 168.075 249.308 167.739 249.908C167.415 250.496 167.253 251.222 167.253 252.086C167.253 252.95 167.415 253.682 167.739 254.282C168.075 254.87 168.513 255.314 169.053 255.614C169.605 255.902 170.205 256.046 170.853 256.046ZM177.524 252.068C177.524 251.06 177.728 250.178 178.136 249.422C178.544 248.654 179.102 248.066 179.81 247.658C180.53 247.238 181.34 247.028 182.24 247.028C183.104 247.028 183.884 247.238 184.58 247.658C185.276 248.078 185.786 248.624 186.11 249.296V243.68H187.37V257H186.11V254.804C185.81 255.488 185.318 256.052 184.634 256.496C183.95 256.928 183.146 257.144 182.222 257.144C181.322 257.144 180.512 256.934 179.792 256.514C179.084 256.094 178.526 255.5 178.118 254.732C177.722 253.964 177.524 253.076 177.524 252.068ZM186.11 252.086C186.11 251.294 185.948 250.598 185.624 249.998C185.3 249.398 184.856 248.936 184.292 248.612C183.74 248.288 183.128 248.126 182.456 248.126C181.76 248.126 181.136 248.282 180.584 248.594C180.032 248.906 179.594 249.362 179.27 249.962C178.958 250.55 178.802 251.252 178.802 252.068C178.802 252.872 178.958 253.58 179.27 254.192C179.594 254.792 180.032 255.254 180.584 255.578C181.136 255.89 181.76 256.046 182.456 256.046C183.128 256.046 183.74 255.884 184.292 255.56C184.856 255.236 185.3 254.774 185.624 254.174C185.948 253.574 186.11 252.878 186.11 252.086ZM199.139 251.582C199.139 252.014 199.127 252.344 199.103 252.572H190.949C190.985 253.316 191.165 253.952 191.489 254.48C191.813 255.008 192.239 255.41 192.767 255.686C193.295 255.95 193.871 256.082 194.495 256.082C195.311 256.082 195.995 255.884 196.547 255.488C197.111 255.092 197.483 254.558 197.663 253.886H198.995C198.755 254.846 198.239 255.632 197.447 256.244C196.667 256.844 195.683 257.144 194.495 257.144C193.571 257.144 192.743 256.94 192.011 256.532C191.279 256.112 190.703 255.524 190.283 254.768C189.875 254 189.671 253.106 189.671 252.086C189.671 251.066 189.875 250.172 190.283 249.404C190.691 248.636 191.261 248.048 191.993 247.64C192.725 247.232 193.559 247.028 194.495 247.028C195.431 247.028 196.247 247.232 196.943 247.64C197.651 248.048 198.191 248.6 198.563 249.296C198.947 249.98 199.139 250.742 199.139 251.582ZM197.861 251.546C197.873 250.814 197.723 250.19 197.411 249.674C197.111 249.158 196.697 248.768 196.169 248.504C195.641 248.24 195.065 248.108 194.441 248.108C193.505 248.108 192.707 248.408 192.047 249.008C191.387 249.608 191.021 250.454 190.949 251.546H197.861ZM202.704 243.68V257H201.444V243.68H202.704ZM208.941 257.144C207.813 257.144 206.889 256.886 206.169 256.37C205.461 255.842 205.065 255.128 204.981 254.228H206.277C206.337 254.78 206.595 255.23 207.051 255.578C207.519 255.914 208.143 256.082 208.923 256.082C209.607 256.082 210.141 255.92 210.525 255.596C210.921 255.272 211.119 254.87 211.119 254.39C211.119 254.054 211.011 253.778 210.795 253.562C210.579 253.346 210.303 253.178 209.967 253.058C209.643 252.926 209.199 252.788 208.635 252.644C207.903 252.452 207.309 252.26 206.853 252.068C206.397 251.876 206.007 251.594 205.683 251.222C205.371 250.838 205.215 250.328 205.215 249.692C205.215 249.212 205.359 248.768 205.647 248.36C205.935 247.952 206.343 247.628 206.871 247.388C207.399 247.148 207.999 247.028 208.671 247.028C209.727 247.028 210.579 247.298 211.227 247.838C211.875 248.366 212.223 249.098 212.271 250.034H211.011C210.975 249.458 210.747 248.996 210.327 248.648C209.919 248.288 209.355 248.108 208.635 248.108C207.999 248.108 207.483 248.258 207.087 248.558C206.691 248.858 206.493 249.23 206.493 249.674C206.493 250.058 206.607 250.376 206.835 250.628C207.075 250.868 207.369 251.06 207.717 251.204C208.065 251.336 208.533 251.486 209.121 251.654C209.829 251.846 210.393 252.032 210.813 252.212C211.233 252.392 211.593 252.656 211.893 253.004C212.193 253.352 212.349 253.814 212.361 254.39C212.361 254.918 212.217 255.392 211.929 255.812C211.641 256.22 211.239 256.544 210.723 256.784C210.207 257.024 209.613 257.144 208.941 257.144Z" fill="#F5F7F5"/>
<defs>
<filter id="filter0_dddd_458_684" x="0" y="0.382324" width="360" height="343.145" filterUnits="userSpaceOnUse" color-interpolation-filters="sRGB">
<feFlood flood-opacity="0" result="BackgroundImageFix"/>
<feColorMatrix in="SourceAlpha" type="matrix" values="0 0 0 0 0 0 0 0 0 0 0 0 0 0 0 0 0 0 127 0" result="hardAlpha"/>
<feOffset dx="10" dy="10"/>
<feGaussianBlur stdDeviation="10"/>
<feComposite in2="hardAlpha" operator="out"/>
<feColorMatrix type="matrix" values="0 0 0 0 0.713726 0 0 0 0 0.431373 0 0 0 0 0.141176 0 0 0 1 0"/>
<feBlend mode="normal" in2="BackgroundImageFix" result="effect1_dropShadow_458_684"/>
<feColorMatrix in="SourceAlpha" type="matrix" values="0 0 0 0 0 0 0 0 0 0 0 0 0 0 0 0 0 0 127 0" result="hardAlpha"/>
<feOffset dx="-10" dy="-10"/>
<feGaussianBlur stdDeviation="10"/>
<feComposite in2="hardAlpha" operator="out"/>
<feColorMatrix type="matrix" values="0 0 0 0 0.870588 0 0 0 0 0.556863 0 0 0 0 0.231373 0 0 0 0.85 0"/>
<feBlend mode="normal" in2="effect1_dropShadow_458_684" result="effect2_dropShadow_458_684"/>
<feColorMatrix in="SourceAlpha" type="matrix" values="0 0 0 0 0 0 0 0 0 0 0 0 0 0 0 0 0 0 127 0" result="hardAlpha"/>
<feOffset dx="2" dy="2"/>
<feGaussianBlur stdDeviation="2"/>
<feComposite in2="hardAlpha" operator="out"/>
<feColorMatrix type="matrix" values="0 0 0 0 0.666667 0 0 0 0 0.439216 0 0 0 0 0.207843 0 0 0 0.85 0"/>
<feBlend mode="normal" in2="effect2_dropShadow_458_684" result="effect3_dropShadow_458_684"/>
<feColorMatrix in="SourceAlpha" type="matrix" values="0 0 0 0 0 0 0 0 0 0 0 0 0 0 0 0 0 0 127 0" result="hardAlpha"/>
<feOffset dx="-2" dy="-2"/>
<feGaussianBlur stdDeviation="2"/>
<feComposite in2="hardAlpha" operator="out"/>
<feColorMatrix type="matrix" values="0 0 0 0 0.898039 0 0 0 0 0.584314 0 0 0 0 0.258824 0 0 0 0.75 0"/>
<feBlend mode="normal" in2="effect3_dropShadow_458_684" result="effect4_dropShadow_458_684"/>
<feBlend mode="normal" in="SourceGraphic" in2="effect4_dropShadow_458_684" result="shape"/>
</filter>
</defs>
</svg>
