<svg width="166" height="118" viewBox="0 0 166 118" fill="#1B4349" xmlns="http://www.w3.org/2000/svg">
<g clip-path="url(#clip0_231_736)">
<path d="M14.681 87.9327C14.681 89.1124 14.4441 90.1162 13.9702 90.9527C13.4964 91.7892 12.8847 92.467 12.1394 92.9818C11.3942 93.5009 10.5499 93.8784 9.61509 94.11C8.6803 94.346 7.74982 94.4618 6.82365 94.4618C5.89748 94.4618 5.05747 94.3674 4.36822 94.1786C3.67898 93.9899 3.05435 93.814 2.48142 93.651C2.10233 93.5352 1.76202 93.4322 1.45186 93.3507C1.14601 93.2692 0.835849 93.2263 0.529997 93.2263V89.2025H0.883234C0.883234 90.099 1.11155 90.8069 1.57248 91.3388C2.03341 91.8707 2.57188 92.274 3.18789 92.5571C3.8039 92.8402 4.41992 93.0204 5.03593 93.1019C5.65194 93.1834 6.10425 93.2263 6.38857 93.2263C7.40951 93.2263 8.28399 93.0805 9.02062 92.7845C9.75725 92.4885 10.3603 92.1024 10.8342 91.6176C11.308 91.1329 11.657 90.6009 11.8853 90.009C12.1093 89.4212 12.2213 88.8207 12.2213 88.2072C12.2213 87.4308 12.0576 86.7787 11.7259 86.2468C11.3942 85.7191 10.9634 85.2515 10.4293 84.8526C9.89509 84.4536 9.2877 84.1105 8.60276 83.8273C7.91783 83.5442 7.21997 83.2611 6.50918 82.9779C5.70363 82.6734 4.91531 82.3559 4.1356 82.0256C3.3559 81.6953 2.65804 81.2877 2.04203 80.8073C1.42601 80.3268 0.93062 79.7477 0.551536 79.0785C0.172452 78.4093 -0.0170898 77.5771 -0.0170898 76.5904C-0.0170898 75.6037 0.185375 74.6557 0.585998 73.8878C0.986621 73.1242 1.52509 72.4936 2.20141 72.0003C2.87343 71.507 3.64452 71.1338 4.50607 70.8892C5.36763 70.6404 6.25072 70.516 7.14674 70.516C7.76275 70.516 8.33999 70.5589 8.88277 70.6404C9.42555 70.7219 9.94679 70.8249 10.4422 70.9407C10.8428 71.0351 11.2348 71.1123 11.6139 71.1724C11.993 71.2324 12.3591 71.2624 12.7124 71.2624V74.9002H12.3591C12.3118 73.6776 11.825 72.8454 10.8988 72.4121C9.97263 71.9788 8.69322 71.7601 7.05627 71.7601C6.10856 71.7601 5.32886 71.9188 4.72577 72.2362C4.11837 72.5537 3.64021 72.9441 3.28266 73.4031C2.92512 73.8621 2.68388 74.3554 2.55465 74.8873C2.42542 75.415 2.3608 75.8826 2.3608 76.2815C2.3608 76.9422 2.50726 77.5041 2.8045 77.976C3.10174 78.4479 3.49805 78.8597 3.99345 79.2115C4.49315 79.5632 5.06608 79.8807 5.71655 80.1638C6.36703 80.4469 7.05196 80.7172 7.76275 80.9746C8.5683 81.2792 9.38678 81.6095 10.2182 81.9655C11.0496 82.3173 11.7905 82.7549 12.441 83.2739C13.0958 83.793 13.6256 84.4279 14.0435 85.1829C14.457 85.9379 14.6681 86.8559 14.6681 87.937L14.681 87.9327Z" fill="#1B4349"/>
<path d="M27.7335 93.8312H27.9101V94.1829H22.8743V93.8312H23.0509C23.2404 93.8312 23.4041 93.7582 23.5463 93.621C23.6885 93.4794 23.8134 93.3164 23.9168 93.1276C24.0245 92.9389 24.0977 92.733 24.1494 92.5099C24.1968 92.2868 24.2183 92.0809 24.2183 91.8922V72.1848H20.1044C19.7253 72.1848 19.3936 72.2663 19.1136 72.4336C18.8293 72.5966 18.5924 72.8068 18.4028 73.0513C18.2133 73.3001 18.0711 73.5704 17.9763 73.8621C17.8816 74.1538 17.8342 74.4455 17.8342 74.7286H17.481V70.8806H33.4025V74.7286H33.0492C33.0492 74.4455 33.0019 74.1581 32.9071 73.8621C32.8123 73.5661 32.6702 73.2958 32.4806 73.0513C32.2911 72.8025 32.0541 72.5966 31.7698 72.4336C31.4855 72.2706 31.1538 72.1848 30.7747 72.1848H26.5919V91.8922C26.5919 92.0809 26.6134 92.2868 26.6608 92.5099C26.7082 92.733 26.7857 92.9389 26.8934 93.1276C27.0011 93.3164 27.1174 93.4794 27.2467 93.621C27.3759 93.7625 27.5353 93.8312 27.7248 93.8312H27.7335Z" fill="#1B4349"/>
<path d="M42.5566 93.8312H42.7333V94.1829H37.7319V93.8312H37.9086C38.0722 93.8312 38.2273 93.7582 38.3695 93.621C38.5116 93.4794 38.6366 93.3164 38.74 93.1276C38.8476 92.9389 38.9209 92.733 38.9726 92.5099C39.02 92.2868 39.0415 92.0809 39.0415 91.8922V73.0685C39.0415 72.9054 39.02 72.7167 38.9726 72.5022C38.9252 72.292 38.8476 72.0904 38.74 71.9016C38.6323 71.7129 38.5073 71.5541 38.3695 71.4255C38.2273 71.2968 38.0722 71.2324 37.9086 71.2324H37.7319V70.8806H43.9007C46.2656 70.8806 48.0921 71.3397 49.3801 72.2577C50.6682 73.1757 51.3143 74.5313 51.3143 76.3201C51.3143 77.2167 51.1679 77.9975 50.8706 78.671C50.5734 79.3445 50.1814 79.9193 49.6817 80.3998C49.1863 80.8845 48.6004 81.2706 47.9241 81.5666C47.2521 81.8626 46.537 82.0771 45.7789 82.2186L48.3334 86.1052C48.9494 87.049 49.574 87.9713 50.2115 88.8764C50.8491 89.7816 51.4737 90.7168 52.0897 91.682C52.2534 91.9179 52.4387 92.1667 52.6411 92.4241C52.8436 92.6858 53.0547 92.9174 53.2787 93.1319C53.5027 93.3421 53.7396 93.5137 53.9895 93.6424C54.2393 93.7711 54.4935 93.8355 54.7519 93.8355V94.1872H53.227C52.2793 94.1872 51.5082 93.9556 50.9051 93.5009C50.302 93.0418 49.798 92.5056 49.3974 91.8922C48.3334 90.3393 47.2737 88.7606 46.2226 87.1605C45.1715 85.5604 44.1247 83.9817 43.0822 82.4288C42.8194 82.4074 42.5437 82.3774 42.2508 82.3388C41.9536 82.3044 41.6779 82.2615 41.4194 82.2143V91.8922C41.4194 92.0809 41.4409 92.2868 41.4883 92.5099C41.5357 92.733 41.6132 92.9389 41.7209 93.1276C41.8286 93.3164 41.9449 93.4794 42.0742 93.621C42.2034 93.7625 42.3628 93.8312 42.5523 93.8312H42.5566ZM41.4194 72.0732V81.0432H41.596C41.7855 81.069 42.0871 81.0861 42.5006 81.0947C42.9142 81.1076 43.4268 81.1119 44.0428 81.1119C44.5382 81.1119 45.0638 81.0346 45.6195 80.8802C46.1752 80.7258 46.6964 80.4684 47.1789 80.1038C47.6657 79.7391 48.0663 79.2629 48.3851 78.6752C48.7038 78.0875 48.8632 77.3454 48.8632 76.4488C48.8632 75.5523 48.6909 74.823 48.3506 74.261C48.006 73.6948 47.5364 73.2486 46.9333 72.9183C46.3302 72.588 45.6022 72.3649 44.7536 72.2491C43.9007 72.1333 42.9702 72.0732 41.9536 72.0732H41.4237H41.4194Z" fill="#1B4349"/>
<path d="M59.2577 93.8312H59.4343C59.6239 93.8312 59.7876 93.7668 59.9297 93.6381C60.0719 93.5094 60.1968 93.3507 60.3045 93.162C60.4122 92.9732 60.4941 92.7716 60.5544 92.5614C60.6147 92.3512 60.6448 92.1496 60.6448 91.9608V73.0685C60.6448 72.9054 60.6147 72.7167 60.5544 72.5022C60.4941 72.292 60.4122 72.0904 60.3045 71.9016C60.1968 71.7129 60.0719 71.5541 59.9297 71.4255C59.7876 71.2968 59.6239 71.2324 59.4343 71.2324H59.2577V70.8806H72.9091V74.1666H72.5558C72.5084 73.6261 72.293 73.15 71.9183 72.7338C71.5392 72.322 70.949 72.1161 70.1435 72.1161H63.0141V81.0518H68.9028C69.4456 81.0518 69.9022 80.8888 70.2684 80.5585C70.6345 80.2282 70.8155 79.8421 70.8155 79.3916H71.1687V83.8059H70.8155C70.8155 83.3812 70.6389 83.0165 70.2856 82.712C69.9324 82.4074 69.4715 82.253 68.9028 82.253H63.0141V92.9518H70.781C71.229 92.9518 71.621 92.8445 71.9527 92.6343C72.2844 92.4241 72.5601 92.171 72.7841 91.875C73.0081 91.5833 73.1761 91.2616 73.2795 90.9227C73.3872 90.5838 73.4389 90.2921 73.4389 90.0561H73.7921V94.1872H59.2534V93.8355L59.2577 93.8312Z" fill="#1B4349"/>
<path d="M82.5586 93.8312H82.7352V94.1829H78.7979V93.8312H78.9746C79.1382 93.8312 79.2976 93.7582 79.4527 93.621C79.6078 93.4794 79.7284 93.3164 79.8232 93.1276C79.918 92.9389 79.9955 92.733 80.0558 92.5099C80.1161 92.2868 80.1463 92.0809 80.1463 91.8922V73.0685C80.1463 72.9054 80.129 72.7167 80.0946 72.5022C80.0601 72.292 79.9955 72.0904 79.9007 71.9016C79.8059 71.7129 79.6767 71.5541 79.5087 71.4255C79.345 71.2968 79.1426 71.2324 78.9056 71.2324H78.729V70.8806H82.3088L95.1804 91.0814V73.0685C95.1804 72.9054 95.1502 72.7167 95.0899 72.5022C95.0296 72.292 94.9478 72.0904 94.8401 71.9016C94.7324 71.7129 94.6075 71.5541 94.4696 71.4255C94.3274 71.2968 94.1638 71.2324 93.9742 71.2324H93.7976V70.8806H97.7694V71.2324H97.5927C97.4032 71.2324 97.2395 71.2968 97.0973 71.4255C96.9552 71.5541 96.8303 71.7129 96.7226 71.9016C96.6149 72.0904 96.5416 72.292 96.4943 72.5022C96.4469 72.7124 96.421 72.9012 96.421 73.0685V94.1872H94.2241L81.3869 73.9178V91.8922C81.3869 92.0809 81.4084 92.2868 81.4558 92.5099C81.5032 92.733 81.5808 92.9389 81.6884 93.1276C81.7961 93.3164 81.9211 93.4794 82.0589 93.621C82.2011 93.7625 82.3648 93.8312 82.5543 93.8312H82.5586Z" fill="#1B4349"/>
<path d="M118.726 81.8926H123.797V82.2444H123.62C123.43 82.2444 123.267 82.3087 123.125 82.4374C122.982 82.5661 122.862 82.7248 122.771 82.9136C122.681 83.1023 122.599 83.3039 122.539 83.5141C122.478 83.7243 122.448 83.9131 122.448 84.0804V93.5437C122.022 93.7068 121.539 93.8483 120.996 93.9684C120.454 94.0886 119.885 94.1872 119.295 94.2687C118.705 94.3502 118.102 94.4146 117.486 94.4618C116.87 94.509 116.305 94.5304 115.784 94.5304C113.656 94.5304 111.799 94.1786 110.218 93.4708C108.633 92.763 107.324 91.8407 106.281 90.6996C105.239 89.5585 104.468 88.2673 103.959 86.8345C103.451 85.3974 103.197 83.9517 103.197 82.4889C103.197 81.0261 103.451 79.5804 103.959 78.1476C104.468 76.7105 105.247 75.4278 106.298 74.2996C107.349 73.1714 108.676 72.2577 110.27 71.5627C111.864 70.8678 113.764 70.5203 115.961 70.5203C116.788 70.5203 117.555 70.5932 118.265 70.7305C118.976 70.8721 119.601 71.0008 120.144 71.1209C120.449 71.1895 120.716 71.2581 120.94 71.3139C121.164 71.374 121.358 71.404 121.526 71.404H121.845V75.149H121.492C121.35 74.4197 121.074 73.832 120.66 73.3816C120.247 72.9355 119.769 72.5923 119.226 72.3563C118.683 72.1204 118.11 71.9617 117.507 71.8802C116.904 71.7987 116.344 71.7558 115.823 71.7558C114.048 71.7558 112.514 72.0689 111.214 72.6909C109.913 73.313 108.849 74.1194 108.021 75.1104C107.194 76.0971 106.578 77.2124 106.178 78.4479C105.777 79.6833 105.575 80.9145 105.575 82.1371C105.575 83.5013 105.833 84.8526 106.354 86.1824C106.876 87.5123 107.608 88.7005 108.551 89.7473C109.495 90.794 110.636 91.6434 111.972 92.2911C113.307 92.9389 114.793 93.2606 116.422 93.2606C116.87 93.2606 117.425 93.2091 118.089 93.1019C118.752 92.9946 119.411 92.7544 120.075 92.3769V84.0761C120.075 83.9131 120.049 83.7244 120.001 83.5099C119.954 83.2954 119.876 83.098 119.769 82.9093C119.661 82.7205 119.54 82.5618 119.398 82.4331C119.256 82.3044 119.092 82.2401 118.903 82.2401H118.726V81.8883V81.8926Z" fill="#1B4349"/>
<path d="M136.884 93.8312H137.06V94.1829H132.025V93.8312H132.201C132.391 93.8312 132.555 93.7582 132.697 93.621C132.839 93.4794 132.964 93.3164 133.067 93.1276C133.175 92.9389 133.248 92.733 133.3 92.5099C133.347 92.2868 133.369 92.0809 133.369 91.8922V72.1848H129.255C128.876 72.1848 128.544 72.2663 128.264 72.4336C127.98 72.5966 127.743 72.8068 127.553 73.0513C127.364 73.3001 127.222 73.5704 127.127 73.8621C127.032 74.1538 126.985 74.4455 126.985 74.7286H126.631V70.8806H142.553V74.7286H142.2C142.2 74.4455 142.152 74.1581 142.057 73.8621C141.963 73.5661 141.821 73.2958 141.631 73.0513C141.441 72.8025 141.205 72.5966 140.92 72.4336C140.636 72.2706 140.304 72.1848 139.925 72.1848H135.742V91.8922C135.742 92.0809 135.764 92.2868 135.811 92.5099C135.859 92.733 135.936 92.9389 136.044 93.1276C136.152 93.3164 136.268 93.4794 136.397 93.621C136.526 93.7625 136.686 93.8312 136.875 93.8312H136.884Z" fill="#1B4349"/>
<path d="M161.033 93.8312H161.21C161.373 93.8312 161.528 93.7668 161.671 93.6381C161.813 93.5094 161.938 93.3464 162.041 93.1448C162.149 92.9432 162.222 92.733 162.274 92.5099C162.321 92.2868 162.343 92.0809 162.343 91.8922V82.2873H150.996V91.8922C150.996 92.0809 151.017 92.2868 151.065 92.5099C151.112 92.733 151.185 92.9389 151.276 93.1276C151.371 93.3164 151.483 93.4794 151.612 93.621C151.741 93.7625 151.901 93.8312 152.09 93.8312H152.267V94.1829H147.3V93.8312H147.476C147.64 93.8312 147.795 93.7668 147.937 93.6381C148.08 93.5094 148.204 93.3464 148.308 93.1448C148.416 92.9432 148.489 92.733 148.54 92.5099C148.588 92.2868 148.609 92.0809 148.609 91.8922V73.0685C148.609 72.9054 148.588 72.7167 148.54 72.5022C148.493 72.292 148.42 72.0904 148.329 71.9016C148.235 71.7129 148.118 71.5541 147.976 71.4255C147.834 71.2968 147.67 71.2324 147.481 71.2324H147.304V70.8806H152.271V71.2324H152.094C151.905 71.2324 151.741 71.2968 151.599 71.4255C151.457 71.5541 151.345 71.7129 151.263 71.9016C151.181 72.0904 151.116 72.292 151.069 72.5022C151.022 72.7124 151 72.9012 151 73.0685V81.0518H162.347V73.0685C162.347 72.9054 162.325 72.7167 162.278 72.5022C162.231 72.292 162.157 72.0904 162.067 71.9016C161.972 71.7129 161.856 71.5541 161.714 71.4255C161.571 71.2968 161.408 71.2324 161.218 71.2324H161.042V70.8806H166.008V71.2324H165.832C165.642 71.2324 165.479 71.2968 165.336 71.4255C165.194 71.5541 165.082 71.7129 165 71.9016C164.919 72.0904 164.854 72.292 164.807 72.5022C164.759 72.7124 164.738 72.9012 164.738 73.0685V91.8922C164.738 92.0809 164.768 92.2868 164.828 92.5099C164.888 92.733 164.962 92.9389 165.061 93.1276C165.156 93.3164 165.268 93.4794 165.397 93.621C165.526 93.7625 165.672 93.8312 165.84 93.8312H166.017V94.1829H161.05V93.8312H161.033Z" fill="#1B4349"/>
<path d="M113.773 14.1521C113.773 14.9114 113.514 15.5463 112.997 16.0654C112.48 16.5801 111.843 16.8375 111.076 16.8375C110.309 16.8375 109.676 16.5801 109.155 16.0654C108.638 15.5506 108.379 14.9114 108.379 14.1521C108.379 13.3928 108.638 12.7536 109.155 12.2388C109.672 11.7241 110.314 11.4667 111.076 11.4667C111.839 11.4667 112.48 11.7241 112.997 12.2388C113.514 12.7536 113.773 13.3885 113.773 14.1521Z" fill="#1B4349"/>
<path d="M105.618 14.1521C105.618 14.9114 105.359 15.5463 104.843 16.0654C104.326 16.5801 103.688 16.8375 102.921 16.8375C102.154 16.8375 101.521 16.5801 101 16.0654C100.483 15.5506 100.225 14.9114 100.225 14.1521C100.225 13.3928 100.483 12.7536 101 12.2388C101.517 11.7241 102.159 11.4667 102.921 11.4667C103.684 11.4667 104.326 11.7241 104.843 12.2388C105.359 12.7536 105.618 13.3885 105.618 14.1521Z" fill="#1B4349"/>
<path d="M109.698 7.39136C109.698 8.15066 109.439 8.78555 108.922 9.30462C108.405 9.81939 107.768 10.0768 107.001 10.0768C106.234 10.0768 105.601 9.81939 105.08 9.30462C104.563 8.78984 104.304 8.15066 104.304 7.39136C104.304 6.63206 104.563 5.99288 105.08 5.4781C105.597 4.96332 106.238 4.70593 107.001 4.70593C107.763 4.70593 108.405 4.96332 108.922 5.4781C109.439 5.99288 109.698 6.62777 109.698 7.39136Z" fill="#1B4349"/>
<path d="M123.47 20.6984V41.1308C123.47 41.1308 123.47 41.1522 123.47 41.1608C123.452 47.5054 121.906 52.2156 120.458 54.6265C119.39 56.4068 116.676 57.934 113.428 57.9597C110.18 57.934 107.47 56.4068 106.398 54.6265C104.95 52.2156 103.404 47.5054 103.387 41.1608C103.387 41.1479 103.387 41.1393 103.387 41.1308V20.6984H97.9546V41.0793C97.9546 41.1093 97.9632 41.1351 97.9632 41.1651C98.0106 47.4196 99.4192 52.0698 102.211 55.0941C105.049 58.1699 108.737 59.71 113.273 59.71C113.325 59.71 113.372 59.7014 113.424 59.7014C113.475 59.7014 113.523 59.71 113.575 59.71C118.111 59.71 121.802 58.1699 124.637 55.0941C127.428 52.0655 128.841 47.4196 128.884 41.1651C128.884 41.1351 128.893 41.1093 128.893 41.0793V20.6984H123.461H123.47Z" fill="#1B4349"/>
<path d="M110.779 20.6984V27.7122C110.779 27.7122 110.779 27.7337 110.779 27.7422C110.761 34.0869 109.219 38.7971 107.768 41.208C106.699 42.9883 103.985 44.5154 100.737 44.5412V46.2828C100.789 46.2828 100.836 46.2914 100.888 46.2914C105.424 46.2914 109.116 44.7514 111.95 41.6756C114.742 38.647 116.155 34.0011 116.198 27.7465C116.198 27.7165 116.207 27.6908 116.207 27.6607V20.6984H110.774H110.779Z" fill="#1B4349"/>
<path d="M51.6974 48.7323C51.6974 50.2938 51.3054 51.7309 50.5214 53.0522C49.7374 54.3734 48.6691 55.5274 47.3121 56.5184C45.9552 57.5093 44.3742 58.29 42.5693 58.8563C40.7643 59.4268 38.8043 59.71 36.6978 59.71C34.1088 59.71 31.998 59.3625 30.374 58.6761C28.7456 57.9855 27.3628 57.2819 26.217 56.5613C25.4329 56.0808 24.7092 55.6775 24.0501 55.3472C23.3868 55.0169 22.663 54.8539 21.8833 54.8539V48.0159H22.788C22.9689 48.8567 23.4944 49.7705 24.3689 50.7614C25.2434 51.7524 26.2945 52.6661 27.5308 53.5069C28.7628 54.3477 30.1198 55.0512 31.5974 55.6218C33.0706 56.1923 34.5654 56.4754 36.0688 56.4754C37.1544 56.4754 38.2658 56.3553 39.4117 56.1151C40.5532 55.8749 41.5957 55.4845 42.5305 54.944C43.4653 54.4035 44.245 53.73 44.8782 52.9192C45.5115 52.1084 45.8259 51.1346 45.8259 49.9935C45.8259 48.8524 45.4942 47.8658 44.8308 47.025C44.1674 46.1842 43.3231 45.4506 42.3022 44.82C41.2769 44.1894 40.1009 43.636 38.7784 43.1556C37.4516 42.6751 36.1291 42.2247 34.8023 41.8043C33.2343 41.3238 31.6534 40.7833 30.0595 40.187C28.4613 39.5864 27.0311 38.8829 25.7689 38.0721C24.5025 37.2614 23.4772 36.2747 22.6975 35.1036C21.9135 33.9325 21.5215 32.5383 21.5215 30.921C21.5215 29.544 21.7756 28.2227 22.2883 26.9615C22.8009 25.7003 23.6452 24.6064 24.8169 23.6755C25.993 22.7446 27.5136 21.9982 29.3789 21.4276C31.2441 20.8571 33.5057 20.574 36.155 20.574C38.5027 20.574 40.3249 20.7713 41.6216 21.1574C42.9182 21.5478 43.9865 21.9553 44.8308 22.3714C45.3736 22.6717 45.9164 22.8991 46.4549 23.0449C46.9976 23.1951 47.5964 23.268 48.2641 23.268V29.5654H47.5404C46.4549 27.5878 44.8007 26.0864 42.5693 25.0654C40.3421 24.0444 38.0504 23.5339 35.7027 23.5339C34.1949 23.5339 32.9026 23.7313 31.8171 24.1174C30.7315 24.5077 29.8441 24.9882 29.1505 25.5587C28.457 26.1293 27.9444 26.7728 27.6127 27.4934C27.281 28.2141 27.1173 28.9348 27.1173 29.6512C27.1173 30.6722 27.4016 31.5387 27.9745 32.2594C28.5475 32.9801 29.3315 33.6107 30.3223 34.147C31.3174 34.6875 32.4288 35.198 33.6651 35.6784C34.8971 36.1589 36.2067 36.6093 37.5938 37.0297C39.2781 37.5702 40.9668 38.1536 42.6554 38.7843C44.3398 39.4149 45.8475 40.1784 47.1743 41.0793C48.4968 41.9802 49.5823 43.044 50.4266 44.2752C51.271 45.5064 51.6931 46.9907 51.6931 48.728L51.6974 48.7323Z" fill="#1B4349"/>
<path d="M73.8308 59.7099C70.8197 59.7099 68.1058 59.2166 65.6977 58.2257C63.2897 57.2347 61.2262 55.8877 59.5074 54.1761C57.793 52.4644 56.4662 50.4439 55.5314 48.1017C54.5966 45.7638 54.1313 43.2156 54.1313 40.453C54.1313 37.5144 54.644 34.829 55.6692 32.401C56.6945 29.9729 58.1074 27.8881 59.9167 26.1464C61.7259 24.409 63.8626 23.0578 66.331 22.0968C68.7993 21.1359 71.483 20.6555 74.3736 20.6555C77.2641 20.6555 79.9134 21.1188 82.3257 22.0496C84.7338 22.9805 86.8144 24.2846 88.5591 25.962C90.3037 27.6436 91.6607 29.6383 92.6256 31.9463C93.5905 34.2542 94.073 36.7895 94.073 39.5478C94.073 42.126 93.6379 44.6312 92.7634 47.0593C91.889 49.4873 90.5966 51.6322 88.8778 53.494C87.159 55.3558 85.0525 56.8529 82.554 57.994C80.0555 59.1308 77.1478 59.7057 73.8351 59.7057L73.8308 59.7099ZM73.2449 23.6283C71.0824 23.7484 69.1784 24.2718 67.5242 25.2027C65.8743 26.1336 64.4915 27.3304 63.3801 28.8018C62.2687 30.2732 61.4287 31.9377 60.8601 33.7952C60.2915 35.6569 60.0028 37.5445 60.0028 39.462C60.0028 41.6798 60.3475 43.8248 61.0367 45.8967C61.7259 47.9644 62.7167 49.8091 64.0091 51.4306C65.2971 53.0522 66.8436 54.3391 68.6442 55.3C70.4449 56.2609 72.4566 56.7414 74.6794 56.7414C76.9022 56.7414 78.8666 56.2609 80.5768 55.3C82.2869 54.3391 83.7171 53.0951 84.8544 51.5679C85.9959 50.0364 86.8489 48.3162 87.4218 46.3944C87.9904 44.4768 88.2791 42.555 88.2791 40.6374C88.2791 38.7199 87.9775 36.6651 87.3787 34.6531C86.7756 32.6455 85.8452 30.8137 84.5873 29.1665C83.3251 27.5192 81.7528 26.185 79.8617 25.1641C77.9706 24.1431 75.7607 23.6326 73.2406 23.6326L73.2449 23.6283Z" fill="#1B4349"/>
<path d="M132.817 59.045V58.1571C133.291 58.1571 133.709 57.9812 134.062 57.6251C134.42 57.2691 134.73 56.8572 134.997 56.3854C135.264 55.9135 135.458 55.3944 135.574 54.8324C135.691 54.2705 135.751 53.7557 135.751 53.2795V1.79743L141.627 0V53.2838C141.627 53.7557 141.687 54.2748 141.803 54.8367C141.92 55.3987 142.113 55.9178 142.381 56.3896C142.648 56.8615 142.945 57.2776 143.272 57.6294C143.6 57.9855 144 58.1613 144.474 58.1613V59.0493H132.813L132.817 59.045Z" fill="#1B4349"/>
<path d="M44.7665 117.644H44.857V117.824H42.8625V117.644H42.953C43.0348 117.644 43.1167 117.61 43.1942 117.537C43.2717 117.464 43.3364 117.382 43.3837 117.288C43.4311 117.194 43.4699 117.086 43.5001 116.975C43.5302 116.863 43.5431 116.756 43.5431 116.662V107.134C43.5431 107.052 43.5345 106.954 43.5173 106.846C43.5 106.739 43.4656 106.636 43.4182 106.542C43.3708 106.448 43.3062 106.366 43.22 106.302C43.1382 106.237 43.0348 106.203 42.9142 106.203H42.8237V106.023H44.6373L51.155 116.25V107.13C51.155 107.048 51.142 106.949 51.1119 106.842C51.0817 106.735 51.0387 106.632 50.987 106.538C50.9353 106.443 50.8706 106.362 50.7974 106.297C50.7242 106.233 50.6423 106.199 50.5476 106.199H50.4571V106.019H52.4688V106.199H52.3784C52.2836 106.199 52.1974 106.233 52.1285 106.297C52.0553 106.362 51.995 106.443 51.939 106.538C51.8873 106.632 51.8485 106.735 51.8227 106.842C51.7968 106.949 51.7882 107.044 51.7882 107.13V117.82H50.6768L44.1764 107.559V116.657C44.1764 116.752 44.1893 116.859 44.2108 116.97C44.2324 117.082 44.2754 117.189 44.3271 117.284C44.3788 117.378 44.4434 117.464 44.5167 117.532C44.5899 117.605 44.6718 117.64 44.7665 117.64V117.644Z" fill="#1B4349"/>
<path d="M55.2686 117.644H55.359C55.4538 117.644 55.5399 117.61 55.6089 117.545C55.6778 117.481 55.7424 117.399 55.7984 117.305C55.8544 117.211 55.8932 117.108 55.9233 117C55.9535 116.893 55.9664 116.79 55.9664 116.696V107.13C55.9664 107.048 55.9535 106.949 55.9233 106.842C55.8932 106.735 55.8501 106.632 55.7984 106.538C55.7467 106.443 55.6821 106.362 55.6089 106.297C55.5356 106.233 55.4538 106.199 55.359 106.199H55.2686V106.019H62.1825V107.683H62.0016C61.9801 107.408 61.8681 107.168 61.6785 106.958C61.489 106.748 61.1874 106.645 60.7825 106.645H57.1726V111.166H60.1536C60.4293 111.166 60.6576 111.085 60.8471 110.918C61.0324 110.75 61.1271 110.553 61.1271 110.326H61.3081V112.561H61.1271C61.1271 112.346 61.0367 112.162 60.86 112.007C60.6791 111.853 60.4465 111.775 60.1579 111.775H57.1769V117.194H61.1099C61.3382 117.194 61.5364 117.138 61.7044 117.031C61.8724 116.923 62.0145 116.795 62.1265 116.644C62.2385 116.494 62.3247 116.336 62.3764 116.16C62.4324 115.988 62.4582 115.842 62.4582 115.722H62.6392V117.816H55.2772V117.635L55.2686 117.644Z" fill="#1B4349"/>
<path d="M69.6352 117.644H69.7257V117.824H67.1755V117.644H67.2659C67.3607 117.644 67.4468 117.61 67.5158 117.537C67.589 117.464 67.6493 117.382 67.7053 117.288C67.7613 117.194 67.8001 117.086 67.8216 116.975C67.8475 116.863 67.8561 116.756 67.8561 116.662V106.683H65.7754C65.5859 106.683 65.4179 106.726 65.2714 106.808C65.1293 106.889 65.0087 106.997 64.9139 107.121C64.8191 107.245 64.7459 107.383 64.6985 107.533C64.6511 107.683 64.6253 107.829 64.6253 107.97H64.4443V106.023H72.5042V107.97H72.3232C72.3232 107.829 72.2974 107.683 72.25 107.533C72.2026 107.383 72.1294 107.245 72.0346 107.121C71.9399 106.997 71.8192 106.894 71.6771 106.808C71.5349 106.726 71.3669 106.683 71.1731 106.683H69.0537V116.662C69.0537 116.756 69.0666 116.863 69.0881 116.975C69.1097 117.086 69.1527 117.194 69.2044 117.288C69.2604 117.382 69.3164 117.468 69.3854 117.537C69.45 117.61 69.5318 117.644 69.6266 117.644H69.6352Z" fill="#1B4349"/>
<path d="M87.9991 106.199C87.7579 106.199 87.5554 106.302 87.3874 106.503C87.2194 106.705 87.1074 106.928 87.0471 107.164L83.7775 117.893L80.9775 109.094L78.1774 117.91L74.8906 107.181C74.8303 106.954 74.7269 106.735 74.5761 106.52C74.4253 106.306 74.2573 106.199 74.0635 106.199V106.019H76.6137V106.199C76.4586 106.199 76.3294 106.263 76.226 106.387C76.1226 106.512 76.0752 106.671 76.0752 106.859C76.0752 106.919 76.0881 106.997 76.1097 107.091L78.4445 114.671L81.3005 105.911L84.0489 114.654L86.4182 107.091C86.4182 107.065 86.4268 107.018 86.444 106.941C86.4612 106.864 86.4699 106.799 86.4699 106.752C86.4699 106.585 86.4225 106.452 86.3277 106.349C86.2329 106.246 86.1382 106.199 86.0391 106.199V106.019H87.9948V106.199H87.9991Z" fill="#1B4349"/>
<path d="M94.6418 105.843C95.5765 105.843 96.4123 106.006 97.1532 106.336C97.8941 106.662 98.5274 107.104 99.0486 107.657C99.5698 108.211 99.9705 108.854 100.25 109.588C100.53 110.321 100.673 111.085 100.673 111.887C100.673 112.779 100.509 113.603 100.177 114.354C99.8455 115.104 99.3975 115.748 98.8203 116.284C98.2474 116.82 97.5797 117.241 96.8172 117.545C96.0547 117.85 95.2448 118 94.3833 118C93.4614 118 92.6343 117.833 91.8977 117.498C91.1611 117.163 90.5408 116.722 90.0324 116.177C89.5241 115.628 89.1321 114.997 88.8564 114.281C88.5807 113.564 88.4429 112.822 88.4429 112.046C88.4429 111.269 88.5807 110.527 88.8564 109.785C89.1321 109.043 89.537 108.374 90.0669 107.79C90.6011 107.207 91.2472 106.735 92.014 106.379C92.7808 106.023 93.6553 105.843 94.6374 105.843H94.6418ZM94.6331 117.374C95.4344 117.339 96.1409 117.155 96.7483 116.829C97.3557 116.503 97.8597 116.082 98.2689 115.576C98.6781 115.07 98.9797 114.512 99.1778 113.903C99.376 113.294 99.4751 112.693 99.4751 112.097C99.4751 111.441 99.3545 110.78 99.1132 110.111C98.872 109.442 98.5317 108.837 98.088 108.296C97.6443 107.756 97.1144 107.314 96.4984 106.975C95.8824 106.636 95.1888 106.465 94.4221 106.465C93.6553 106.465 93.0134 106.628 92.4276 106.958C91.8417 107.284 91.3377 107.704 90.9242 108.219C90.5106 108.73 90.1961 109.305 89.9807 109.935C89.7654 110.566 89.6577 111.188 89.6577 111.793C89.6577 112.449 89.7826 113.105 90.0367 113.77C90.2866 114.431 90.6355 115.031 91.0792 115.568C91.5229 116.104 92.0485 116.537 92.6516 116.872C93.259 117.206 93.9181 117.374 94.6374 117.374H94.6331Z" fill="#1B4349"/>
<path d="M105.812 117.644H105.902V117.824H103.369V117.644H103.46C103.541 117.644 103.623 117.61 103.692 117.537C103.765 117.464 103.826 117.382 103.882 117.288C103.938 117.194 103.972 117.086 103.998 116.975C104.024 116.863 104.033 116.756 104.033 116.662V107.134C104.033 107.052 104.02 106.954 103.998 106.846C103.977 106.739 103.933 106.636 103.882 106.542C103.83 106.448 103.765 106.366 103.692 106.302C103.619 106.237 103.541 106.203 103.46 106.203H103.369V106.023H106.492C107.69 106.023 108.616 106.254 109.266 106.722C109.917 107.185 110.244 107.872 110.244 108.777C110.244 109.232 110.171 109.626 110.02 109.965C109.87 110.304 109.671 110.596 109.417 110.84C109.167 111.085 108.87 111.282 108.53 111.432C108.19 111.582 107.828 111.69 107.444 111.763L108.737 113.727C109.047 114.204 109.366 114.671 109.689 115.13C110.012 115.589 110.33 116.061 110.641 116.55C110.723 116.67 110.817 116.795 110.921 116.928C111.024 117.061 111.132 117.176 111.244 117.284C111.356 117.391 111.476 117.477 111.601 117.541C111.726 117.605 111.855 117.64 111.989 117.64V117.82H111.218C110.74 117.82 110.348 117.704 110.042 117.472C109.736 117.241 109.482 116.97 109.279 116.657C108.741 115.872 108.207 115.07 107.673 114.259C107.138 113.449 106.609 112.651 106.083 111.866C105.949 111.853 105.812 111.84 105.661 111.823C105.51 111.806 105.372 111.784 105.239 111.758V116.657C105.239 116.752 105.252 116.859 105.273 116.97C105.295 117.082 105.338 117.189 105.389 117.284C105.441 117.378 105.501 117.464 105.57 117.532C105.635 117.605 105.717 117.64 105.812 117.64V117.644ZM105.234 106.628V111.171H105.325C105.42 111.183 105.575 111.192 105.781 111.196C105.993 111.201 106.251 111.205 106.561 111.205C106.811 111.205 107.078 111.166 107.358 111.089C107.638 111.012 107.901 110.879 108.146 110.694C108.392 110.51 108.594 110.27 108.758 109.969C108.922 109.673 108.999 109.296 108.999 108.841C108.999 108.387 108.913 108.018 108.741 107.734C108.569 107.451 108.327 107.224 108.022 107.057C107.716 106.889 107.35 106.778 106.919 106.718C106.488 106.658 106.014 106.628 105.501 106.628H105.234Z" fill="#1B4349"/>
<path d="M116.655 117.644H116.745V117.824H114.178V117.644H114.268C114.363 117.644 114.449 117.61 114.518 117.537C114.591 117.464 114.652 117.382 114.708 117.288C114.764 117.194 114.798 117.086 114.824 116.975C114.85 116.863 114.858 116.756 114.858 116.662V107.134C114.858 107.052 114.845 106.954 114.824 106.846C114.802 106.739 114.759 106.636 114.708 106.542C114.656 106.448 114.591 106.366 114.518 106.302C114.445 106.237 114.367 106.203 114.285 106.203H114.195V106.023H116.762V106.203H116.672C116.577 106.203 116.491 106.237 116.422 106.302C116.349 106.366 116.289 106.448 116.233 106.542C116.177 106.636 116.138 106.739 116.108 106.846C116.077 106.954 116.06 107.048 116.06 107.134V111.282L120.622 106.778C120.695 106.696 120.73 106.598 120.73 106.49C120.73 106.302 120.657 106.203 120.514 106.203H120.424V106.023H122.612V106.203H122.522C122.354 106.203 122.182 106.263 122.001 106.383C121.82 106.503 121.643 106.649 121.462 106.829L117.693 110.566L121.66 116.554C121.673 116.58 121.725 116.649 121.82 116.769C121.915 116.889 122.031 117.013 122.169 117.142C122.307 117.275 122.462 117.391 122.634 117.49C122.806 117.592 122.983 117.64 123.164 117.64V117.82H122.733C122.375 117.82 122.07 117.798 121.828 117.755C121.583 117.713 121.372 117.644 121.191 117.55C121.01 117.455 120.855 117.335 120.717 117.194C120.579 117.052 120.437 116.872 120.295 116.657L116.814 111.419L116.06 112.187V116.657C116.06 116.752 116.073 116.855 116.108 116.962C116.138 117.069 116.177 117.172 116.224 117.275C116.271 117.378 116.332 117.464 116.405 117.532C116.478 117.605 116.56 117.64 116.655 117.64V117.644Z" fill="#1B4349"/>
</g>
<defs>
<clipPath id="clip0_231_736">
<rect width="166" height="118" fill="white"/>
</clipPath>
</defs>
</svg>
